<svg width="24" height="24" viewBox="0 0 24 24" fill="none" xmlns="http://www.w3.org/2000/svg">
<path d="M19.5 3C20.3284 3.00001 21 3.67158 21 4.5V8L8 21H4.5C3.67157 21 3 20.3284 3 19.5V4.5C3.00001 3.67158 3.67158 3 4.5 3H19.5Z" fill="#FA9D3B"/>
<path d="M8 21H4.35254C3.71352 20.9999 3.17748 20.5568 3.03613 19.9609C6.29388 16.4074 10.7409 13.9616 15.7461 13.2529L8 21Z" fill="white"/>
<path fill-rule="evenodd" clip-rule="evenodd" d="M6.75 5.75C7.44036 5.75 8 6.30964 8 7C8 7.69036 7.44036 8.25 6.75 8.25C6.05964 8.25 5.5 7.69036 5.5 7C5.5 6.30964 6.05964 5.75 6.75 5.75Z" fill="white"/>
<path opacity="0.7" fill-rule="evenodd" clip-rule="evenodd" d="M20.2495 13.3536C20.0543 13.1583 19.7377 13.1583 19.5424 13.3536L18.8353 14.0607L20.9567 16.182L21.6638 15.4749C21.859 15.2796 21.859 14.963 21.6638 14.7678L20.2495 13.3536ZM20.2495 16.8891L18.1282 14.7678L14.1499 18.7461C14.0561 18.8399 14.0034 18.9671 14.0034 19.0997L14.0034 20.5139C14.0034 20.79 14.2273 21.0139 14.5034 21.0139L15.9177 21.0139C16.0503 21.0139 16.1774 20.9612 16.2712 20.8674L20.2495 16.8891Z" fill="#FA9D3B"/>
<path opacity="0.7" d="M8 21H4.35254C3.71352 20.9999 3.17748 20.5568 3.03613 19.9609C6.29388 16.4074 10.7409 13.9616 15.7461 13.2529L8 21Z" fill="#FA9D3B"/>
</svg>
