<svg width="24" height="24" viewBox="0 0 24 24" fill="none" xmlns="http://www.w3.org/2000/svg">
<path fill-rule="evenodd" clip-rule="evenodd" d="M4.14868 8.6422L5.03044 9.0843C5.30394 9.22142 5.61609 9.30056 5.95575 9.30056H6.53983C7.49165 9.30056 8.33983 8.76082 8.75641 7.9428L9.26993 6.93442L9.82849 7.91858C10.2976 8.74513 11.1844 9.30056 12.2001 9.30056C13.2159 9.30056 14.1027 8.74513 14.5718 7.91858L15.1303 6.93442L15.6439 7.9428C16.0604 8.76082 16.9086 9.30056 17.8604 9.30056H18.4445C18.7843 9.30056 19.0965 9.22138 19.3701 9.08417L20.2519 8.64189V18.1288C20.2519 19.4748 19.1602 20.5603 17.8166 20.5603H6.58395C5.23899 20.5603 4.14868 19.4703 4.14868 18.1257V8.6422Z" fill="#FF3370"/>
<path fill-rule="evenodd" clip-rule="evenodd" d="M9.20022 1.99997H5.27231C4.49364 1.99997 3.80232 2.49824 3.55608 3.23696L2.7725 5.58771C2.05854 7.72958 3.65277 9.94145 5.91048 9.94145L6.20022 9.94145C7.29726 9.94145 8.30161 9.46364 8.99174 8.68642L9.20022 1.99997ZM19.1281 1.99997H15.2002L15.4088 8.68649C16.0989 9.46367 17.1032 9.94145 18.2002 9.94145L18.49 9.94145C20.7477 9.94145 22.3419 7.72958 21.6279 5.58771L20.8444 3.23696C20.5981 2.49824 19.9068 1.99997 19.1281 1.99997Z" fill="white"/>
<path fill-rule="evenodd" clip-rule="evenodd" d="M9.20022 1.99997H5.27231C4.49364 1.99997 3.80232 2.49824 3.55608 3.23696L2.7725 5.58771C2.05854 7.72958 3.65277 9.94145 5.91048 9.94145L6.20022 9.94145C7.29726 9.94145 8.30161 9.46364 8.99174 8.68642L9.20022 1.99997ZM19.1281 1.99997H15.2002L15.4088 8.68649C16.0989 9.46367 17.1032 9.94145 18.2002 9.94145L18.49 9.94145C20.7477 9.94145 22.3419 7.72958 21.6279 5.58771L20.8444 3.23696C20.5981 2.49824 19.9068 1.99997 19.1281 1.99997Z" fill="#FF3370" fill-opacity="0.6"/>
<path d="M8.99174 8.68642C10.5388 10.3783 13.8616 10.3783 15.4088 8.68649L15.2002 1.99997H9.20022L8.99174 8.68642Z" fill="white"/>
<path d="M8.99174 8.68642C10.5388 10.3783 13.8616 10.3783 15.4088 8.68649L15.2002 1.99997H9.20022L8.99174 8.68642Z" fill="#FF3370" fill-opacity="0.4"/>
<path fill-rule="evenodd" clip-rule="evenodd" d="M3.37464 20.7496C2.89166 20.7496 2.50012 20.3581 2.50012 19.8751V13.3746C2.50012 12.8916 2.89166 12.5001 3.37464 12.5001H9.12542C9.60841 12.5001 9.99994 12.8916 9.99994 13.3746V14.0243C11.4107 14.2079 12.5001 15.4143 12.5001 16.875V19.8751C12.5001 20.3581 12.1086 20.7496 11.6256 20.7496C8.63036 20.7496 5.87865 20.7496 3.37464 20.7496Z" fill="white"/>
<path fill-rule="evenodd" clip-rule="evenodd" d="M3.37464 20.7496C2.89166 20.7496 2.50012 20.3581 2.50012 19.8751V13.3746C2.50012 12.8916 2.89166 12.5001 3.37464 12.5001H9.12542C9.60841 12.5001 9.99994 12.8916 9.99994 13.3746V14.0243C11.4107 14.2079 12.5001 15.4143 12.5001 16.875V19.8751C12.5001 20.3581 12.1086 20.7496 11.6256 20.7496C8.63036 20.7496 5.87865 20.7496 3.37464 20.7496Z" fill="#FF3370" fill-opacity="0.3"/>
<path d="M6.00012 20.3121C6.00012 20.8644 5.5524 21.3121 5.00012 21.3121C4.44784 21.3121 4.00012 20.8644 4.00012 20.3121C4.00012 19.7599 4.44784 19.3121 5.00012 19.3121C5.5524 19.3121 6.00012 19.7599 6.00012 20.3121Z" fill="#FF3370"/>
<path d="M10.5 20.3121C10.5 20.8644 10.0523 21.3121 9.5 21.3121C8.94771 21.3121 8.5 20.8644 8.5 20.3121C8.5 19.7599 8.94771 19.3121 9.5 19.3121C10.0523 19.3121 10.5 19.7599 10.5 20.3121Z" fill="#FF3370"/>
<path fill-rule="evenodd" clip-rule="evenodd" d="M10 14.0243C11.4107 14.208 12.5001 15.4143 12.5001 16.875V17.3122H10V14.0243Z" fill="white"/>
</svg>
