<svg width="24" height="24" viewBox="0 0 24 24" fill="none" xmlns="http://www.w3.org/2000/svg">
<g clip-path="url(#clip0_2512_46532)">
<rect x="2" y="2" width="20" height="20" rx="10" fill="#FF6045"/>
<rect x="2.03906" y="8.67969" width="6.64062" height="6.64062" fill="#FF6045"/>
<rect x="8.67969" y="2.03906" width="6.64062" height="6.64062" fill="#FF6045"/>
<rect x="8.67969" y="15.3203" width="6.64062" height="6.64062" fill="#FF6045"/>
<rect x="15.3203" y="8.67969" width="6.64062" height="6.64062" fill="#FF6045"/>
<path fill-rule="evenodd" clip-rule="evenodd" d="M2.03906 2.03906H8.67969V8.67969H2.03906V2.03906ZM15.3203 8.67969H8.67969V15.3203H2.03906V21.9609H8.67969V15.3203H15.3203V21.9609H21.9609V15.3203H15.3203V8.67969ZM15.3203 8.67969V2.03906H21.9609V8.67969H15.3203ZM11.9736 4.5257C12.896 4.5257 13.6438 4.37386 13.6438 4.07019C13.6438 3.14777 12.896 2.4 11.9736 2.4C11.0512 2.4 10.3034 3.14777 10.3034 4.07019C10.3034 4.38528 11.0512 4.5257 11.9736 4.5257ZM13.9471 4.13855C13.9471 4.48018 13.0634 4.84078 11.9732 4.84078C10.8831 4.84078 9.99939 4.49302 9.99939 4.13855C9.99939 4.12629 9.99951 4.11405 9.99975 4.10185C9.62066 4.26041 9.39219 4.46529 9.39219 4.68901C9.39219 5.19215 10.5478 5.60002 11.9734 5.60002C13.3989 5.60002 14.5546 5.19215 14.5546 4.68901C14.5546 4.46524 14.326 4.26031 13.9467 4.10173C13.947 4.11397 13.9471 4.12625 13.9471 4.13855ZM14.0795 18.8489C14.0363 18.8038 13.9801 18.7899 13.911 18.8072C13.8868 18.8142 13.86 18.822 13.8306 18.8307C13.8012 18.8394 13.7649 18.8481 13.7216 18.8568C13.6784 18.8655 13.6248 18.8741 13.5608 18.8828C13.4969 18.8915 13.4182 18.8976 13.3248 18.9011C13.1485 18.908 12.992 18.9063 12.8554 18.8959C12.7188 18.8854 12.5952 18.8628 12.4845 18.8281C12.4154 18.8072 12.3522 18.8107 12.2952 18.8385C12.2381 18.8663 12.1958 18.9185 12.1681 18.9949C12.1577 19.0262 12.1439 19.0662 12.1266 19.1148C12.1093 19.1635 12.0851 19.2165 12.054 19.2738C12.0229 19.3311 11.9822 19.3937 11.9321 19.4615C11.8819 19.5292 11.8171 19.5996 11.7376 19.6726C11.658 19.7456 11.5681 19.8194 11.4678 19.8941C11.3676 19.9689 11.2578 20.0349 11.1385 20.0922C11.0192 20.1496 10.8912 20.1948 10.7546 20.2278C10.618 20.2608 10.4754 20.2686 10.3267 20.2512C10.2541 20.2443 10.1814 20.2426 10.1088 20.246C10.0362 20.2495 9.96878 20.2625 9.90653 20.2851C9.84429 20.3077 9.78896 20.3407 9.74054 20.3842C9.69213 20.4276 9.65582 20.4823 9.63162 20.5484C9.60395 20.6248 9.59444 20.6969 9.60309 20.7647C9.61173 20.8325 9.62643 20.8907 9.64718 20.9394C9.67138 20.9984 9.70251 21.0523 9.74054 21.101C9.84774 21.1218 9.96186 21.1392 10.0829 21.1531C10.1866 21.167 10.3077 21.1783 10.446 21.187C10.5843 21.1957 10.733 21.2 10.8921 21.2C11.1687 21.2 11.39 21.1878 11.556 21.1635C11.722 21.1392 11.8629 21.1044 11.9788 21.0593C12.0946 21.0141 12.1984 20.9619 12.29 20.9029C12.3816 20.8438 12.4914 20.7778 12.6194 20.7048C12.73 20.6422 12.8398 20.597 12.9488 20.5692C13.0577 20.5414 13.1588 20.5241 13.2522 20.5171C13.3456 20.5102 13.4277 20.5075 13.4986 20.5093C13.5695 20.511 13.6205 20.5119 13.6516 20.5119C13.7346 20.5084 13.8133 20.5067 13.8876 20.5067C13.962 20.5067 14.0277 20.5084 14.0847 20.5119C14.1418 20.5154 14.1893 20.5188 14.2274 20.5223C14.2654 20.5258 14.2896 20.5275 14.3 20.5275C14.3173 20.5275 14.3406 20.4702 14.37 20.3555C14.3994 20.2408 14.4072 20.0775 14.3934 19.8655C14.3795 19.65 14.3493 19.4693 14.3026 19.3233C14.2559 19.1774 14.217 19.0731 14.1859 19.0105C14.1582 18.948 14.1228 18.8941 14.0795 18.8489ZM12.2433 19.2217C12.2727 19.1921 12.3064 19.1774 12.3445 19.1774C12.386 19.1774 12.4214 19.1921 12.4508 19.2217C12.4802 19.2512 12.4949 19.2868 12.4949 19.3285C12.4949 19.3668 12.4802 19.4007 12.4508 19.4302C12.4214 19.4597 12.386 19.4745 12.3445 19.4745C12.3064 19.4745 12.2727 19.4597 12.2433 19.4302C12.2139 19.4007 12.1992 19.3668 12.1992 19.3285C12.1992 19.2868 12.2139 19.2512 12.2433 19.2217ZM11.9113 19.6335C11.9407 19.604 11.9762 19.5892 12.0177 19.5892C12.0626 19.5892 12.0998 19.604 12.1292 19.6335C12.1586 19.663 12.1733 19.6987 12.1733 19.7404C12.1733 19.7855 12.1586 19.8229 12.1292 19.8524C12.0998 19.882 12.0626 19.8968 12.0177 19.8968C11.9762 19.8968 11.9407 19.882 11.9113 19.8524C11.8819 19.8229 11.8672 19.7855 11.8672 19.7404C11.8672 19.6987 11.8819 19.663 11.9113 19.6335ZM14.1133 20.7152H14.2118C14.2533 20.7187 14.2879 20.7352 14.3156 20.7647C14.3432 20.7943 14.3571 20.8438 14.3571 20.9133C14.3571 20.9897 14.3406 21.0401 14.3078 21.0645C14.2749 21.0888 14.2395 21.101 14.2014 21.101H13.19C13.1519 21.101 13.1156 21.0871 13.081 21.0593C13.0464 21.0315 13.0292 20.9863 13.0292 20.9237C13.0292 20.8473 13.0439 20.7943 13.0732 20.7647C13.1026 20.7352 13.1364 20.7204 13.1744 20.7204C13.1882 20.7204 13.2219 20.7195 13.2755 20.7178C13.3291 20.7161 13.3923 20.7152 13.4649 20.7152H13.6983H13.9265H14.1133ZM3.18914 9.20791C3.21558 9.19275 3.25053 9.19938 3.29398 9.22782C3.33743 9.25625 3.37804 9.31976 3.41582 9.41833C3.42715 9.44866 3.4536 9.51406 3.49516 9.61452C3.53672 9.71499 3.58583 9.8202 3.6425 9.93014C3.67273 9.98701 3.71051 10.0439 3.75584 10.1007C3.80118 10.1576 3.84935 10.2097 3.90035 10.2571C3.95136 10.3045 4.00331 10.3434 4.0562 10.3737C4.10909 10.404 4.15821 10.4192 4.20354 10.4192C4.24132 10.4192 4.28383 10.405 4.33105 10.3766C4.37828 10.3481 4.42645 10.3131 4.47556 10.2714C4.52468 10.2297 4.57001 10.1851 4.61157 10.1377C4.65313 10.0903 4.68902 10.0458 4.71924 10.0041C4.74569 9.96616 4.77403 9.91498 4.80425 9.85053C4.83447 9.78608 4.86375 9.72068 4.89209 9.65433C4.92042 9.58799 4.94404 9.52827 4.96293 9.4752C4.98182 9.42212 4.99504 9.38989 5.0026 9.37852C5.01393 9.35198 5.03282 9.31691 5.05927 9.27331C5.08571 9.22971 5.11972 9.20981 5.16128 9.2136C5.1915 9.2136 5.21228 9.22024 5.22361 9.23351C5.23495 9.24677 5.23684 9.27426 5.22928 9.31596C5.2255 9.34629 5.21133 9.39463 5.18678 9.46098C5.16222 9.52733 5.13861 9.60599 5.11594 9.69698C5.10083 9.74627 5.0876 9.80503 5.07627 9.87328L5.03093 10.0666C5.0196 10.1349 5.00921 10.1965 4.99976 10.2515L4.97993 10.368C4.97237 10.4135 4.96104 10.46 4.94593 10.5074C4.93081 10.5547 4.9327 10.6031 4.95159 10.6524C4.97426 10.713 5.01204 10.7566 5.06494 10.7832C5.0876 10.7983 5.11405 10.8097 5.14427 10.8173C5.13294 10.859 5.11972 10.9007 5.1046 10.9424C5.09327 10.9803 5.08099 11.022 5.06777 11.0675C5.05455 11.113 5.04227 11.1604 5.03093 11.2097C5.0196 11.259 5.00921 11.3064 4.99976 11.3519C4.99032 11.3973 4.98182 11.4409 4.97426 11.4827C4.96293 11.5281 4.95537 11.5717 4.95159 11.6134C4.9327 11.5945 4.90815 11.586 4.87792 11.5879C4.8477 11.5898 4.8137 11.5945 4.77592 11.6021C4.73813 11.6059 4.68619 11.6163 4.62007 11.6334C4.55396 11.6504 4.468 11.6741 4.36222 11.7044C4.30933 11.7196 4.26682 11.7291 4.23471 11.7329C4.2026 11.7367 4.17521 11.7367 4.15254 11.7329C4.12987 11.7291 4.1072 11.7243 4.08453 11.7187C4.06187 11.713 4.03731 11.7063 4.01086 11.6988C3.98442 11.6912 3.95136 11.6826 3.91169 11.6732C3.87202 11.6637 3.83141 11.6533 3.78985 11.6419C3.74829 11.6305 3.70862 11.6201 3.67084 11.6106C3.63306 11.6011 3.60094 11.5945 3.5745 11.5907C3.52161 11.5869 3.4876 11.5888 3.47249 11.5964C3.46116 11.604 3.4536 11.6116 3.44982 11.6191L3.42715 11.494C3.4196 11.4561 3.41204 11.4173 3.40449 11.3774C3.39693 11.3376 3.38937 11.2969 3.38182 11.2552L3.34498 11.1187C3.33176 11.0694 3.31948 11.022 3.30815 10.9765C3.29303 10.9234 3.27792 10.8685 3.26281 10.8116C3.27792 10.8116 3.29303 10.8078 3.30815 10.8002C3.33459 10.7889 3.3686 10.7604 3.41015 10.7149C3.45171 10.6732 3.46871 10.6277 3.46116 10.5784C3.4536 10.5292 3.44605 10.4837 3.43849 10.442C3.43471 10.4192 3.42621 10.3718 3.41299 10.2998C3.39976 10.2278 3.38465 10.1491 3.36765 10.0638C3.35065 9.97848 3.33365 9.89792 3.31665 9.82209C3.29965 9.74627 3.28737 9.69319 3.27981 9.66286C3.26848 9.6022 3.25242 9.5406 3.23164 9.47804C3.21086 9.41548 3.19669 9.37473 3.18914 9.35577C3.18158 9.33682 3.17214 9.31123 3.1608 9.279C3.14947 9.24677 3.15891 9.22308 3.18914 9.20791ZM4.20354 11.9433C4.25643 11.9471 4.32633 11.9385 4.41322 11.9177C4.50012 11.8968 4.58512 11.875 4.66824 11.8523C4.76647 11.8258 4.86848 11.7935 4.97426 11.7556C5.00071 11.8504 5.03282 11.949 5.0706 12.0513C5.10083 12.1385 5.13672 12.2409 5.17828 12.3584C5.21984 12.476 5.26517 12.5954 5.31429 12.7167C5.34451 12.7963 5.38607 12.9006 5.43896 13.0295C5.49185 13.1584 5.54475 13.2863 5.59764 13.4133C5.65053 13.5403 5.70059 13.6541 5.74782 13.7545C5.79504 13.855 5.8281 13.9147 5.84699 13.9337C5.86588 13.9526 5.8961 13.9744 5.93766 13.9991C5.97922 14.0237 6 14.0493 6 14.0759C6 14.1213 5.97072 14.1574 5.91216 14.1839C5.8536 14.2104 5.75065 14.2389 5.60331 14.2692C5.52775 14.2806 5.42763 14.2938 5.30295 14.309C5.17828 14.3242 5.04793 14.3384 4.91192 14.3517C4.77592 14.3649 4.64368 14.3763 4.51523 14.3858C4.38678 14.3953 4.28288 14.4 4.20354 14.4C4.11287 14.4 3.99764 14.3943 3.85785 14.3829C3.71806 14.3716 3.57544 14.3574 3.42999 14.3403C3.28453 14.3232 3.15041 14.3071 3.02763 14.292C2.90484 14.2768 2.81511 14.2635 2.75844 14.2521C2.67532 14.237 2.59693 14.218 2.52326 14.1953C2.44959 14.1725 2.40897 14.1384 2.40142 14.0929C2.39764 14.0777 2.40142 14.0616 2.41275 14.0446C2.42409 14.0275 2.4392 14.0114 2.45809 13.9962C2.47698 13.9811 2.49587 13.9678 2.51476 13.9564C2.53365 13.9451 2.55065 13.9337 2.56576 13.9223C2.58087 13.9109 2.60732 13.8635 2.6451 13.7801C2.68288 13.6967 2.72444 13.6001 2.76978 13.4901C2.81511 13.3802 2.86139 13.2683 2.90862 13.1546C2.95584 13.0408 2.99457 12.948 3.02479 12.8759C3.07013 12.7736 3.11547 12.657 3.1608 12.5262C3.20614 12.3954 3.24959 12.2731 3.29115 12.1594C3.33648 12.0267 3.38182 11.8921 3.42715 11.7556C3.44604 11.7632 3.46871 11.7708 3.49516 11.7784C3.51405 11.7859 3.53861 11.7945 3.56883 11.804C3.59906 11.8134 3.62928 11.822 3.6595 11.8295C3.69351 11.8409 3.73507 11.8532 3.78418 11.8665C3.83329 11.8798 3.8843 11.8921 3.93719 11.9035C3.99008 11.9149 4.04014 11.9243 4.08737 11.9319C4.13459 11.9395 4.17332 11.9433 4.20354 11.9433ZM20.7533 9.71626C20.9546 9.76455 21.0088 10.0711 21.1171 10.6844L21.3676 12.1019C21.6067 12.166 21.7484 12.4126 21.6841 12.6527L21.4716 13.4457C21.3165 14.0244 21.239 14.3138 21.0118 14.4456C20.7846 14.5774 20.4964 14.5002 19.9201 14.3458L19.3089 14.182C18.7326 14.0276 18.4445 13.9504 18.3136 13.7226C18.1827 13.4949 18.2603 13.2055 18.4154 12.6267L18.6319 11.8185C18.694 11.5868 18.9313 11.4491 19.162 11.5109L19.9895 10.4138C20.3645 9.91658 20.552 9.66796 20.7533 9.71626ZM20.6791 10.0252L21.0301 12.0115L19.4919 11.5993L20.6791 10.0252Z" fill="#FFC642" fill-opacity="0.21" style="mix-blend-mode:color-dodge"/>
<path d="M19.3285 17.4632L17.3084 19.4833C17.2699 19.5218 17.2257 19.5523 17.1758 19.5748C17.1258 19.5973 17.0719 19.61 17.0139 19.6131C16.9558 19.6162 16.8982 19.6073 16.8411 19.5863C16.7839 19.5654 16.7289 19.5285 16.6761 19.4757L16.3149 19.1145C16.2072 19.0068 16.1614 18.8953 16.1774 18.78C16.1934 18.6648 16.2455 18.563 16.3338 18.4747L18.3369 16.4716L19.3285 17.4632ZM19.3496 17.043L18.754 16.4474L19.1139 16.0875C19.1523 16.049 19.185 16.0206 19.2119 16.0022C19.2387 15.9837 19.2654 15.9719 19.2918 15.9666C19.3182 15.9613 19.3472 15.9598 19.3788 15.962C19.4104 15.9642 19.4491 15.9655 19.495 15.9661C19.6282 15.9681 19.7318 15.9732 19.8058 15.9816C19.8798 15.99 19.9394 16.0054 19.9845 16.0279C20.0512 16.0583 20.0955 16.089 20.1174 16.12C20.1392 16.1509 20.1458 16.1824 20.137 16.2143C20.1283 16.2463 20.1086 16.2787 20.078 16.3114C20.0473 16.3442 20.015 16.3775 19.9811 16.4115L19.3496 17.043Z" fill="#FF6433"/>
<path d="M17.8098 5.11065C17.8639 5.08098 17.938 5.10495 17.9884 5.16816L19.325 6.8471C19.3513 6.8801 19.3705 6.9191 19.3803 6.95951C19.3901 6.99991 19.3901 7.04002 19.3803 7.07509L19.1041 8.06406C19.0926 8.10499 19.0684 8.13685 19.0353 8.15455C19.0023 8.17224 18.9622 8.17476 18.9215 8.16171L17.9363 7.84613C17.9017 7.835 17.8682 7.8131 17.8398 7.78298C17.8114 7.75286 17.7892 7.71578 17.7759 7.67607L17.0956 5.65661C17.0831 5.61959 17.081 5.58165 17.0897 5.54893C17.0984 5.51622 17.1174 5.49064 17.1435 5.47633L17.8097 5.11073L17.8098 5.11065ZM17.283 3.74535C17.3021 3.73487 17.3243 3.7307 17.3476 3.73321C17.371 3.73571 17.3948 3.74481 17.4171 3.75972C17.4394 3.77463 17.4595 3.7949 17.4756 3.8188C17.4917 3.8427 17.5033 3.86951 17.5096 3.89692L17.6587 4.55547C17.6664 4.58925 17.6653 4.62251 17.6557 4.65085C17.646 4.67919 17.6283 4.70127 17.6047 4.71416L16.918 5.091C16.8949 5.10369 16.8673 5.10693 16.8387 5.1003C16.8102 5.09367 16.7819 5.07747 16.7576 5.05377L16.2722 4.58C16.2519 4.5602 16.2351 4.53592 16.2231 4.5093C16.2111 4.48268 16.2044 4.45454 16.2035 4.42736C16.2027 4.40017 16.2077 4.37477 16.2182 4.35339C16.2287 4.33201 16.2443 4.3153 16.2636 4.30475L17.2831 3.74527L17.283 3.74535Z" fill="#FF6433"/>
<path d="M3.2 17.88L3.88571 18.6L4.22857 18.24L4.22171 20.4H6.97829L6.97143 18.24L7.31429 18.6L8 17.88L6.97143 16.8H6.62857C6.49143 17.2212 6.056 17.52 5.60686 17.52C5.16114 17.52 4.712 17.2212 4.57143 16.8H4.22857L3.2 17.88Z" fill="#FF6433"/>
<path d="M7.69621 5.658L5.88936 5.178C5.78131 5.14929 5.6697 5.14971 5.57645 5.17917C5.48321 5.20863 5.41506 5.26501 5.38541 5.33723L4.74893 6.8869C4.73242 6.92711 4.72837 6.97099 4.73703 7.01573C4.7457 7.06048 4.76689 7.1051 4.79926 7.14677C4.83162 7.18843 4.87446 7.22622 4.92502 7.25772C4.97559 7.28922 5.03278 7.31374 5.09294 7.32972L7.31975 7.92129C7.37991 7.93727 7.44172 7.94435 7.50125 7.94209C7.56077 7.93984 7.6167 7.92829 7.66547 7.90818C7.71424 7.88807 7.75478 7.85984 7.78451 7.8253C7.81423 7.79076 7.83248 7.75066 7.8381 7.70756L8.05469 6.04634C8.06479 5.96893 8.03362 5.88618 7.9673 5.81433C7.90099 5.74248 7.80432 5.68673 7.69628 5.65802L7.69621 5.658Z" fill="#FF6433"/>
<path d="M6.26088 5.50056C6.24926 5.52383 6.23537 5.5444 6.22001 5.5611C6.20466 5.57781 6.18813 5.59031 6.17138 5.59791C6.15463 5.60551 6.13798 5.60805 6.12238 5.60538C6.10678 5.60272 6.09254 5.5949 6.08048 5.58238C6.06841 5.56986 6.05875 5.55288 6.05205 5.5324C6.04534 5.51193 6.04173 5.48837 6.04142 5.46306C6.0411 5.43776 6.04409 5.4112 6.05021 5.38491C6.05633 5.35863 6.06546 5.33312 6.07708 5.30986C6.20523 5.0534 6.37145 4.84605 6.55287 4.71636C6.73429 4.58667 6.92198 4.54101 7.09011 4.58567C7.25823 4.63034 7.39852 4.76313 7.49166 4.96575C7.58479 5.16838 7.6262 5.43089 7.61017 5.71713C7.60871 5.7431 7.60398 5.76977 7.59625 5.79563C7.58852 5.82149 7.57793 5.84603 7.5651 5.86784C7.55226 5.88965 7.53744 5.90832 7.52146 5.92276C7.50548 5.93721 7.48866 5.94716 7.47197 5.95204C7.45528 5.95692 7.43904 5.95664 7.42418 5.95121C7.40931 5.94579 7.39612 5.93532 7.38535 5.92041C7.37457 5.9055 7.36643 5.88644 7.36139 5.86432C7.35635 5.84219 7.3545 5.81744 7.35596 5.79147C7.36737 5.58705 7.33778 5.39959 7.27124 5.25489C7.20471 5.11019 7.10451 5.01536 6.98443 4.98346C6.86436 4.95156 6.7303 4.98416 6.60073 5.07676C6.47115 5.16936 6.35242 5.31742 6.26088 5.50056Z" fill="#FF6433"/>
<ellipse cx="11.9023" cy="19.5977" rx="3.80859" ry="0.800781" fill="#DA3B25" style="mix-blend-mode:multiply"/>
<path d="M12.8594 6.39453C12.6641 6.97396 12.0547 8.31641 11.1797 9.05078C9.85156 9.06641 9.35026 9.05729 9.26562 9.05078C9.70182 8.52995 10.5898 7.32031 10.6523 6.64844C9.42188 7.97656 8.99219 8.95312 8.21094 9.34375" stroke="black" stroke-width="0.0390625"/>
<path d="M6.74429 15.5926C5.21049 14.6304 4.21761 13.4735 3.9448 12.8597C5.78672 12.4786 6.31306 12.8451 6.14642 11.7834C5.86635 9.99884 5.74318 8.65049 6.71567 7.52032C7.72504 6.34338 9.39093 6.02424 11.3039 5.7582C13.2862 5.48253 15.0388 5.32206 16.3673 6.17807C17.6063 6.97163 17.8098 8.2963 18.0452 9.82464C18.0606 9.92244 18.0766 10.0243 18.0919 10.1221C18.372 11.9065 18.4951 13.2549 17.5227 14.385C15.5719 16.6571 9.47321 17.3047 6.74429 15.5926Z" fill="white"/>
<path fill-rule="evenodd" clip-rule="evenodd" d="M11.3531 6.07119C9.41942 6.3401 7.8799 6.65368 6.95875 7.72776C6.09118 8.73601 6.17756 9.93863 6.46024 11.7397C6.50246 12.0087 6.51761 12.2677 6.42177 12.4796C6.31074 12.725 6.09317 12.8282 5.88401 12.8826C5.71285 12.9271 5.49171 12.9525 5.24741 12.9805C5.20935 12.9849 5.17074 12.9893 5.13166 12.9939C4.93124 13.0174 4.70188 13.0461 4.43957 13.0898C4.59202 13.3137 4.81131 13.5835 5.09788 13.8774C5.5543 14.3456 6.1659 14.859 6.91048 15.3261C8.18553 16.1261 10.3066 16.3972 12.3852 16.1688C13.4165 16.0554 14.4188 15.8207 15.2772 15.4793C16.139 15.1365 16.8362 14.6941 17.2797 14.1775C18.1473 13.1692 18.0608 11.9668 17.7782 10.1657L17.7315 9.86828C17.491 8.30696 17.2942 7.14467 16.1986 6.44294C15.5994 6.05689 14.8913 5.89064 14.074 5.85953C13.2532 5.8283 12.3446 5.9333 11.3531 6.07119ZM6.4728 7.31269C7.5704 6.03305 9.36259 5.70838 11.2548 5.44523C12.2456 5.30744 13.2044 5.19437 14.0876 5.22798C14.9743 5.26173 15.8075 5.44372 16.5368 5.91368C17.8983 6.7862 18.1225 8.24346 18.3491 9.71637C18.3524 9.7381 18.3558 9.75983 18.3591 9.78157L18.4056 10.0779C18.6831 11.8457 18.8428 13.3408 17.7654 14.5929C17.2336 15.2121 16.437 15.7026 15.5215 16.0667C14.6024 16.4322 13.5437 16.6784 12.4654 16.797C10.3248 17.0323 8.03202 16.7712 6.57815 15.8591C5.78892 15.364 5.13718 14.8179 4.64552 14.3136C4.15897 13.8145 3.81316 13.34 3.65469 12.9834L3.49694 12.6285L3.87519 12.5503C4.34883 12.4523 4.73754 12.4025 5.04698 12.3662C5.0884 12.3614 5.12784 12.3568 5.16542 12.3525C5.41961 12.323 5.58895 12.3034 5.71368 12.271C5.7805 12.2536 5.81286 12.2374 5.82778 12.2274C5.83775 12.2206 5.83932 12.2176 5.84176 12.2122C5.85531 12.1823 5.87376 12.0889 5.83266 11.827C5.5552 10.0592 5.39558 8.56475 6.4728 7.31269Z" fill="#2F2E47"/>
<path fill-rule="evenodd" clip-rule="evenodd" d="M10.0323 11.4555C10.1357 11.4738 10.2046 11.5724 10.1864 11.6758L10.0925 12.2063C10.0742 12.3097 9.9756 12.3787 9.87222 12.3604C9.76885 12.3421 9.69987 12.2435 9.71815 12.1401L9.81199 11.6096C9.83028 11.5062 9.92891 11.4372 10.0323 11.4555Z" fill="#FF8080"/>
<path fill-rule="evenodd" clip-rule="evenodd" d="M16.0999 10.5591C16.2033 10.5774 16.2723 10.676 16.254 10.7794L16.1601 11.3099C16.1419 11.4133 16.0432 11.4823 15.9399 11.464C15.8365 11.4457 15.7675 11.3471 15.7858 11.2437L15.8796 10.7132C15.8979 10.6098 15.9965 10.5408 16.0999 10.5591Z" fill="#FF8080"/>
<path fill-rule="evenodd" clip-rule="evenodd" d="M10.5384 11.3807C10.6418 11.399 10.7107 11.4976 10.6925 11.601L10.5986 12.1315C10.5803 12.2349 10.4817 12.3039 10.3783 12.2856C10.2749 12.2673 10.206 12.1687 10.2243 12.0653L10.3181 11.5348C10.3364 11.4314 10.435 11.3624 10.5384 11.3807Z" fill="#FF8080"/>
<path fill-rule="evenodd" clip-rule="evenodd" d="M16.6055 10.4844C16.7089 10.5027 16.7779 10.6013 16.7596 10.7047L16.6658 11.2352C16.6475 11.3386 16.5488 11.4076 16.4455 11.3893C16.3421 11.371 16.2731 11.2724 16.2914 11.169L16.3852 10.6385C16.4035 10.5351 16.5021 10.4661 16.6055 10.4844Z" fill="#FF8080"/>
<path d="M12.4706 12.1425C12.3368 12.1623 12.2419 12.2883 12.2878 12.4156C12.4813 12.953 13.0323 13.2978 13.6192 13.2111C14.206 13.1244 14.6338 12.635 14.6636 12.0646C14.6707 11.9295 14.5435 11.8363 14.4096 11.856L12.4706 12.1425Z" fill="#E55757"/>
<path d="M10.8101 9.41196C10.6197 9.44009 10.4586 9.54789 10.3741 9.84343C10.2895 10.1389 10.3105 10.5206 10.3719 10.9361C10.4333 11.3516 10.5241 11.7274 10.6899 11.9815C10.8557 12.2356 11.0417 12.2966 11.2321 12.2685C11.4225 12.2403 11.5835 12.1325 11.6681 11.8369C11.7527 11.5414 11.7381 11.2031 11.6767 10.7876C11.6153 10.3721 11.5181 9.95304 11.3523 9.69887C11.1864 9.44482 11.0049 9.38318 10.8101 9.41196Z" fill="#2F2E47"/>
<ellipse cx="11.0895" cy="10.2903" rx="0.253449" ry="0.380174" transform="rotate(-8.40404 11.0895 10.2903)" fill="white"/>
<path d="M15.0084 8.79169C14.818 8.81981 14.6569 8.92761 14.5724 9.22315C14.4878 9.51865 14.5088 9.90037 14.5701 10.3158C14.6315 10.7314 14.7224 11.1071 14.8882 11.3612C15.054 11.6153 15.24 11.6763 15.4304 11.6482C15.6208 11.6201 15.7818 11.5122 15.8664 11.2167C15.951 10.9212 15.9364 10.5828 15.875 10.1673C15.8136 9.75182 15.7163 9.33277 15.5505 9.0786C15.3847 8.82454 15.2031 8.76291 15.0084 8.79169Z" fill="#2F2E47"/>
<ellipse cx="15.3519" cy="9.66052" rx="0.253449" ry="0.380174" transform="rotate(-8.40404 15.3519 9.66052)" fill="white"/>
<mask id="mask0_2512_46532" style="mask-type:alpha" maskUnits="userSpaceOnUse" x="19" y="12" width="5" height="5">
<path d="M20.8524 12.7842C20.8771 12.7464 20.9002 12.7191 20.9284 12.6989C20.9768 12.6643 21.035 12.6456 21.0945 12.6443C21.1292 12.6437 21.1643 12.6516 21.2068 12.6672C21.249 12.6827 21.3001 12.7057 21.367 12.7365L22.8893 13.4381C22.9654 13.4731 23.0236 13.5002 23.0677 13.5252C23.1118 13.5502 23.1439 13.574 23.1668 13.6043C23.2059 13.6563 23.2262 13.72 23.2256 13.785C23.2252 13.8231 23.2143 13.8615 23.1936 13.9079C23.1729 13.9541 23.1417 14.01 23.1013 14.0834L21.9077 16.25C21.8659 16.3258 21.8343 16.3842 21.8053 16.4277C21.7763 16.4711 21.7492 16.5017 21.7163 16.5225C21.6598 16.5581 21.5925 16.5733 21.5262 16.566C21.4875 16.5617 21.4494 16.5464 21.4043 16.5201C21.3593 16.4938 21.3059 16.4554 21.2353 16.4058L19.8677 15.4438C19.81 15.4032 19.766 15.3724 19.7326 15.3449C19.6991 15.3172 19.6753 15.2919 19.6585 15.2628C19.6299 15.2128 19.6166 15.1553 19.6201 15.0978C19.6222 15.0644 19.632 15.031 19.6497 14.9915C19.6674 14.9521 19.6932 14.9051 19.7269 14.8433L20.7664 12.9363C20.8016 12.8717 20.8278 12.8219 20.8524 12.7842Z" fill="#FFDE33" stroke="black" stroke-width="0.0281074"/>
</mask>
<g mask="url(#mask0_2512_46532)">
<rect x="19.4309" y="15.3784" width="3.45913" height="3.25777" transform="rotate(-61.1479 19.4309 15.3784)" fill="#FFD747"/>
<circle cx="21.183" cy="15.904" r="0.461581" transform="rotate(-60 21.183 15.904)" fill="white"/>
<circle cx="20.1041" cy="13.9885" r="0.384894" transform="rotate(-60 20.1041 13.9885)" fill="white"/>
<circle cx="21.2989" cy="14.3173" r="0.251162" transform="rotate(-60 21.2989 14.3173)" fill="white"/>
<circle cx="21.0483" cy="12.4833" r="0.497542" transform="rotate(-60 21.0483 12.4833)" fill="white"/>
</g>
<path fill-rule="evenodd" clip-rule="evenodd" d="M19.3964 14.663L20.4351 12.7563C20.4367 12.7533 20.4384 12.7503 20.4401 12.7472C20.4711 12.6902 20.5043 12.6293 20.5372 12.5788C20.5745 12.5216 20.6278 12.4514 20.7096 12.3929C20.8199 12.3139 20.9516 12.2703 21.0873 12.2676C21.1878 12.2657 21.2725 12.2901 21.3366 12.3137C21.3932 12.3345 21.4562 12.3636 21.5151 12.3907C21.5183 12.3922 21.5214 12.3936 21.5246 12.3951L23.0469 13.0962C23.0504 13.0978 23.0539 13.0994 23.0573 13.101C23.1245 13.1319 23.195 13.1644 23.253 13.1973C23.3178 13.2339 23.3995 13.2885 23.4668 13.3776C23.5562 13.4961 23.6038 13.6409 23.6022 13.7894C23.601 13.901 23.5676 13.9934 23.5373 14.0614C23.5101 14.1223 23.4726 14.1902 23.4369 14.255C23.4351 14.2583 23.4333 14.2617 23.4314 14.265L22.2376 16.4319C22.2357 16.4354 22.2338 16.4388 22.2319 16.4422C22.195 16.5093 22.1564 16.5793 22.1184 16.6363C22.0762 16.6995 22.0141 16.7793 21.9171 16.8406C21.7886 16.9217 21.6365 16.9569 21.4855 16.9404C21.3714 16.9279 21.2806 16.8834 21.2149 16.8451C21.1557 16.8106 21.0903 16.7646 21.0277 16.7206C21.0245 16.7183 21.0213 16.7161 21.0181 16.7138L19.651 15.7524C19.6482 15.7504 19.6455 15.7485 19.6428 15.7466C19.592 15.7109 19.5373 15.6725 19.4925 15.6354C19.4414 15.5933 19.3799 15.5347 19.3317 15.4507C19.2663 15.3367 19.2358 15.2061 19.2439 15.0749C19.2499 14.9782 19.2791 14.8984 19.3062 14.838C19.33 14.785 19.3619 14.7263 19.3916 14.6718C19.3932 14.6688 19.3948 14.6659 19.3964 14.663ZM19.6705 15.2563C19.7016 15.3104 19.7596 15.3512 19.8757 15.4328L21.2428 16.3943C21.3849 16.4942 21.456 16.5442 21.5279 16.552C21.5911 16.559 21.6548 16.5442 21.7085 16.5103C21.7697 16.4717 21.8116 16.3956 21.8954 16.2435L23.0893 14.0765C23.1703 13.9294 23.2108 13.8559 23.2116 13.7852C23.2123 13.723 23.1923 13.6625 23.1549 13.6129C23.1123 13.5564 23.0361 13.5213 22.8835 13.451L21.3612 12.7499C21.2266 12.6879 21.1594 12.6569 21.0949 12.6582C21.0381 12.6593 20.983 12.6776 20.9368 12.7106C20.8844 12.7481 20.849 12.8131 20.7781 12.9432L19.7395 14.8498C19.6716 14.9744 19.6376 15.0367 19.6338 15.099C19.6304 15.1539 19.6432 15.2086 19.6705 15.2563Z" fill="#DC4B0D"/>
<path fill-rule="evenodd" clip-rule="evenodd" d="M19.3898 13.8083C19.5992 14.0739 19.9335 14.3508 20.221 14.5613C20.3086 14.6254 20.3277 14.7486 20.2635 14.8362C20.1993 14.9239 20.0762 14.943 19.9885 14.8788C19.694 14.6631 19.3243 14.3607 19.0808 14.0519C18.96 13.8988 18.8565 13.727 18.8204 13.5504C18.7815 13.3605 18.8226 13.1672 18.9829 13.013C19.2643 12.7421 19.6702 12.7302 20.0207 12.794C20.3798 12.8594 20.741 13.0142 20.9996 13.1558C21.0949 13.208 21.1299 13.3275 21.0777 13.4228C21.0255 13.5182 20.9059 13.5531 20.8106 13.5009C20.5752 13.372 20.2548 13.2366 19.9502 13.1812C19.6369 13.1241 19.3969 13.1607 19.2557 13.2965C19.2047 13.3456 19.1905 13.3965 19.2059 13.4715C19.224 13.56 19.2841 13.6742 19.3898 13.8083Z" fill="#8C2C03"/>
<mask id="mask1_2512_46532" style="mask-type:alpha" maskUnits="userSpaceOnUse" x="14" y="14" width="6" height="6">
<path d="M19.1517 15.8317C19.2115 15.8513 19.2567 15.8724 19.294 15.903C19.358 15.9556 19.405 16.0264 19.428 16.106C19.4413 16.1522 19.4429 16.2018 19.4373 16.2642C19.4316 16.3266 19.4184 16.4038 19.4011 16.5047L19.007 18.8004C18.9873 18.9151 18.972 19.0029 18.9543 19.071C18.9367 19.1392 18.916 19.19 18.8836 19.2316C18.8279 19.303 18.7503 19.3547 18.6626 19.3773C18.6114 19.3904 18.5559 19.3891 18.4864 19.3781C18.4168 19.367 18.3305 19.3457 18.2176 19.3178L14.8791 18.4946C14.7623 18.4658 14.6734 18.4442 14.6046 18.4209C14.5356 18.3975 14.4845 18.372 14.4447 18.3352C14.3766 18.2723 14.3327 18.1875 14.3186 18.0959C14.3104 18.0424 14.3176 17.9864 14.3367 17.9163C14.3559 17.8462 14.3869 17.7601 14.4283 17.6472L15.2275 15.4665C15.2612 15.3744 15.2864 15.3036 15.3114 15.2488C15.3365 15.1938 15.3624 15.1526 15.3955 15.1197C15.4523 15.0633 15.5244 15.0248 15.6029 15.0089C15.6486 14.9996 15.6967 15.0009 15.7563 15.0105C15.8158 15.0201 15.8887 15.0386 15.9841 15.0617L18.9165 15.7697C19.016 15.7937 19.0921 15.8122 19.1517 15.8317Z" fill="#FFDE33" stroke="black" stroke-width="0.0390625"/>
</mask>
<g mask="url(#mask1_2512_46532)">
<rect x="15.1589" y="14.856" width="4.80735" height="4.52751" transform="rotate(13.8521 15.1589 14.856)" fill="#00C777"/>
<rect x="15.3877" y="14.4529" width="5.0372" height="4.5275" transform="rotate(18.5349 15.3877 14.4529)" fill="#6CEBC3"/>
<circle cx="15.0835" cy="17.3969" r="0.641486" transform="rotate(15 15.0835 17.3969)" fill="white"/>
<circle cx="17.2667" cy="15.2595" r="0.534909" transform="rotate(15 17.2667 15.2595)" fill="white"/>
<circle cx="17.2551" cy="16.9818" r="0.349054" transform="rotate(15 17.2551 16.9818)" fill="white"/>
<circle cx="19.6269" cy="15.9857" r="0.691463" transform="rotate(15 19.6269 15.9857)" fill="white"/>
<circle cx="16.903" cy="19.6031" r="0.845734" transform="rotate(15 16.903 19.6031)" fill="white"/>
</g>
<path fill-rule="evenodd" clip-rule="evenodd" d="M16.0711 14.7004L19.0158 15.4117C19.1058 15.4334 19.1941 15.4547 19.2677 15.4788C19.3491 15.5054 19.4425 15.5444 19.5299 15.6163C19.6518 15.7165 19.7405 15.8513 19.7843 16.0029C19.8157 16.1116 19.8146 16.2129 19.8068 16.2981C19.7998 16.3753 19.7844 16.4648 19.7688 16.556L19.3709 18.8764C19.3531 18.9803 19.3359 19.0807 19.3143 19.1641C19.2907 19.255 19.2536 19.3615 19.1764 19.4604C19.0702 19.5966 18.9219 19.6937 18.7546 19.7366C18.6331 19.7677 18.5206 19.7591 18.4279 19.7443C18.3428 19.7308 18.2439 19.7064 18.1416 19.6812L14.7777 18.8516C14.6717 18.8255 14.5697 18.8004 14.4859 18.772C14.3948 18.7411 14.2883 18.695 14.1936 18.6076C14.0638 18.4877 13.9785 18.3273 13.9516 18.1527C13.932 18.0254 13.9533 17.9112 13.9786 17.8185C14.0018 17.7331 14.038 17.6345 14.0755 17.532L14.879 15.3383C14.8803 15.3347 14.8817 15.3311 14.883 15.3275C14.9134 15.2443 14.9434 15.1624 14.9745 15.0944C15.0089 15.0191 15.0562 14.9337 15.1336 14.8568C15.2419 14.749 15.3795 14.6754 15.5293 14.6451C15.6362 14.6234 15.7335 14.6314 15.8152 14.6445C15.889 14.6564 15.9738 14.6769 16.0599 14.6977C16.0637 14.6986 16.0674 14.6995 16.0711 14.7004ZM15.409 15.1338C15.3475 15.1949 15.3136 15.2875 15.2458 15.4727L14.4469 17.6538C14.3639 17.8805 14.3224 17.9938 14.3377 18.0932C14.3511 18.1805 14.3938 18.2607 14.4587 18.3206C14.5326 18.3889 14.6498 18.4178 14.8841 18.4756L18.2225 19.2988C18.4491 19.3546 18.5624 19.3826 18.6576 19.3582C18.7412 19.3367 18.8154 19.2882 18.8685 19.2201C18.9289 19.1427 18.9487 19.0276 18.9881 18.7976L19.3818 16.5017C19.4165 16.2989 19.4339 16.1974 19.4091 16.1113C19.3872 16.0355 19.3428 15.9681 19.2819 15.918C19.2126 15.8611 19.1126 15.8369 18.9125 15.7886L15.9794 15.0801C15.7878 15.0338 15.6919 15.0107 15.6069 15.0279C15.532 15.0431 15.4632 15.0799 15.409 15.1338Z" fill="#288769"/>
<path fill-rule="evenodd" clip-rule="evenodd" d="M17.2516 14.2359C16.9704 14.6125 16.7189 15.1609 16.5398 15.6225C16.4851 15.7633 16.3267 15.8331 16.1859 15.7785C16.0451 15.7239 15.9753 15.5655 16.0299 15.4247C16.2135 14.9517 16.4864 14.3467 16.8134 13.9087C16.9755 13.6916 17.1689 13.4908 17.393 13.3788C17.634 13.2583 17.9081 13.2439 18.1728 13.4036C18.6377 13.6839 18.7997 14.2245 18.84 14.718C18.8814 15.2236 18.8036 15.7642 18.7065 16.1622C18.6708 16.3089 18.5228 16.3988 18.3761 16.3631C18.2294 16.3273 18.1395 16.1794 18.1752 16.0327C18.2636 15.6703 18.3301 15.1914 18.295 14.7626C18.2589 14.3215 18.1235 14.0125 17.8904 13.8719C17.8061 13.821 17.7328 13.8203 17.6375 13.8679C17.5253 13.924 17.3935 14.0458 17.2516 14.2359Z" fill="#158F68"/>
<path d="M9.6778 18.2756C10.4906 18.1555 11.052 17.3993 10.932 16.5866C10.8119 15.7739 10.0557 15.2124 9.24299 15.3325C8.43031 15.4525 7.86882 16.2087 7.98889 17.0214C8.10896 17.8341 8.86509 18.3956 9.6778 18.2756Z" fill="#2F2E47"/>
<path d="M18.6605 14.2267C19.4732 14.1066 20.0347 13.3505 19.9146 12.5378C19.7946 11.725 19.0384 11.1635 18.2257 11.2836C17.413 11.4037 16.8515 12.1598 16.9716 12.9726C17.0916 13.7853 17.8478 14.3468 18.6605 14.2267Z" fill="#2F2E47"/>
</g>
<defs>
<clipPath id="clip0_2512_46532">
<rect x="2" y="2" width="20" height="20" rx="10" fill="white"/>
</clipPath>
</defs>
</svg>
