<svg width="24" height="24" viewBox="0 0 24 24" fill="none" xmlns="http://www.w3.org/2000/svg">
<path d="M20.5 19.5C20.5 20.3284 19.8284 21 19 21H5C4.17157 21 3.5 20.3284 3.5 19.5V8H20.5V19.5Z" fill="#FF6045"/>
<path fill-rule="evenodd" clip-rule="evenodd" d="M10.75 11.75C11.1642 11.75 11.5 12.0858 11.5 12.5V17.2586C11.5 17.9746 10.6897 18.3465 10.1453 17.9427L8.60473 16.9874C8.25271 16.7691 8.14429 16.3068 8.36258 15.9547C8.58087 15.6027 9.0432 15.4943 9.39523 15.7126L9.99998 16.0876V12.5C9.99998 12.0858 10.3358 11.75 10.75 11.75ZM14 14.0393L14 17.5C14 17.9142 13.6642 18.25 13.25 18.25C12.8358 18.25 12.5 17.9142 12.5 17.5L12.5 12.7414C12.5 12.0098 13.3492 11.6347 13.8924 12.0869L15.4487 13.249C15.7806 13.4969 15.8488 13.9668 15.6009 14.2987C15.3531 14.6306 14.8831 14.6988 14.5512 14.4509L14 14.0393Z" fill="white"/>
<path d="M22.0001 4.5C22.0001 3.67157 21.3286 3 20.5001 3H3.50012C2.6717 3 2.00012 3.67157 2.00012 4.5V7.5C2.00012 8.32843 2.67169 9 3.50012 9H20.5001C21.3285 9 22.0001 8.32843 22.0001 7.5V4.5Z" fill="white"/>
<path opacity="0.7" d="M22.0001 4.5C22.0001 3.67157 21.3286 3 20.5001 3H3.50012C2.6717 3 2.00012 3.67157 2.00012 4.5V7.5C2.00012 8.32843 2.67169 9 3.50012 9H20.5001C21.3285 9 22.0001 8.32843 22.0001 7.5V4.5Z" fill="#FF6045"/>
</svg>
