<svg width="24" height="24" viewBox="0 0 24 24" fill="none" xmlns="http://www.w3.org/2000/svg">
<path d="M19.5 6H4.5V4.5C4.5 3.67157 5.17157 3 6 3H18C18.8284 3 19.5 3.67157 19.5 4.5V6Z" fill="white"/>
<path opacity="0.7" d="M19.5 6H4.5V4.5C4.5 3.67157 5.17157 3 6 3H18C18.8284 3 19.5 3.67157 19.5 4.5V6Z" fill="#03C160"/>
<path d="M21 7.5C21 6.67157 20.3284 6 19.5 6H4.5C3.67157 6 3 6.67157 3 7.5V19.5C3 20.3284 3.67157 21 4.5 21H19.5C20.3284 21 21 20.3284 21 19.5V7.5Z" fill="#03C160"/>
<path fill-rule="evenodd" clip-rule="evenodd" d="M9.53396 9.41239C9.85849 9.15499 10.3302 9.20941 10.5876 9.53393L11.9879 11.2994L13.4163 9.52905C13.6764 9.20668 14.1486 9.1562 14.471 9.4163C14.7933 9.6764 14.8438 10.1486 14.5837 10.471L13.1483 12.25H13.7849C14.1991 12.25 14.5349 12.5858 14.5349 13C14.5349 13.4142 14.1991 13.75 13.7849 13.75H12.7329V14.4674H14C14.4142 14.4674 14.75 14.8032 14.75 15.2174C14.75 15.6316 14.4142 15.9674 14 15.9674H12.7329V17C12.7329 17.4142 12.3971 17.75 11.9829 17.75C11.5687 17.75 11.2329 17.4142 11.2329 17V15.9674H10C9.58582 15.9674 9.25003 15.6316 9.25003 15.2174C9.25003 14.8032 9.58582 14.4674 10 14.4674H11.2329V13.75H10.1952C9.78096 13.75 9.44518 13.4142 9.44518 13C9.44518 12.5858 9.78096 12.25 10.1952 12.25H10.8274L9.41242 10.4661C9.15502 10.1415 9.20944 9.66979 9.53396 9.41239Z" fill="white"/>
</svg>
