<svg width="24" height="24" viewBox="0 0 24 24" fill="none" xmlns="http://www.w3.org/2000/svg">
<path d="M16.6497 12.0478C16.4323 12.1069 16.2332 12.225 16.077 12.3835C15.5747 12.8869 15.5686 13.7074 16.0647 14.2171L16.0801 14.2327C16.2914 14.444 16.567 14.5745 16.8611 14.6087C17.7187 14.7672 18.5028 15.2023 19.0939 15.8488C19.2164 15.9731 19.4124 15.9731 19.5349 15.8519C19.6574 15.7338 19.6605 15.538 19.5441 15.4136C19.5288 15.3981 19.5104 15.3826 19.4921 15.3701C18.8152 14.7361 18.3772 13.8846 18.2547 12.9584C18.0678 12.2622 17.3481 11.8551 16.6497 12.0478Z" fill="#4FA6F6"/>
<path d="M15.4371 14.4285L15.4156 14.4502C14.7755 15.1557 13.9087 15.6095 12.9684 15.7307C12.2762 15.9141 11.8597 16.6227 12.0434 17.3188C12.1016 17.5457 12.2241 17.7539 12.3895 17.9186C12.901 18.4283 13.728 18.4283 14.2395 17.9155C14.4478 17.7042 14.5795 17.4276 14.6131 17.1323C14.7755 16.2684 15.2135 15.4821 15.8597 14.8947C15.9853 14.7797 15.9975 14.5839 15.8873 14.4565L15.8842 14.4533C15.7617 14.3228 15.5657 14.3135 15.4371 14.4285Z" fill="#4FA6F6"/>
<path d="M20.35 15.7337C20.1295 15.7928 19.9273 15.9109 19.7619 16.0756H19.7589C19.5475 16.2869 19.4158 16.5635 19.3852 16.8619C19.2259 17.7259 18.7879 18.5122 18.1447 19.0996C18.0222 19.2177 18.0192 19.4135 18.1356 19.5378L18.1386 19.5409C18.2611 19.6652 18.4602 19.6683 18.5858 19.544C18.6011 19.5285 18.6134 19.516 18.6225 19.4974C19.2627 18.8168 20.1141 18.3785 21.033 18.2604C21.7313 18.0709 22.1417 17.3529 21.9549 16.6568C21.765 15.9575 21.0483 15.5442 20.35 15.7337Z" fill="#4FA6F6"/>
<path d="M14.4539 18.1455C14.3314 18.2667 14.3314 18.4625 14.4478 18.5837C14.46 18.5992 14.4754 18.6117 14.4937 18.621C15.1706 19.255 15.6086 20.1097 15.7311 21.0358C15.921 21.732 16.6408 22.1454 17.336 21.9527C18.0252 21.7693 18.4356 21.0545 18.2549 20.3583L18.2546 20.3566L18.2538 20.3542C18.2529 20.3521 18.2518 20.3495 18.2518 20.3459C18.1079 19.8238 17.6607 19.4415 17.1278 19.3887C16.2702 19.2301 15.4892 18.7919 14.898 18.1424C14.7725 18.0243 14.5764 18.0243 14.4539 18.1455Z" fill="#4FA6F6"/>
<path fill-rule="evenodd" clip-rule="evenodd" d="M12 4.5C7.73657 4.5 4.5 7.5241 4.5 11C4.5 12.6262 5.19106 14.13 6.36826 15.2897C6.67567 15.5925 6.85592 16.0264 6.81941 16.4894L6.66488 18.4488L8.21509 17.3501C8.60899 17.071 9.09744 17.0079 9.53104 17.1391C9.88342 17.2457 10.2481 17.3302 10.6231 17.3906C11.1683 17.4784 11.5392 17.9916 11.4514 18.5369C11.3636 19.0821 10.8504 19.453 10.3051 19.3652C9.9212 19.3033 9.545 19.2209 9.17808 19.119L6.94977 20.6982C5.91188 21.4338 4.48707 20.6246 4.58708 19.3565L4.80793 16.5561C3.38251 15.0798 2.5 13.1402 2.5 11C2.5 6.19163 6.87459 2.5 12 2.5C17.1254 2.5 21.5 6.19163 21.5 11C21.5 11.3893 21.4707 11.773 21.4139 12.1493C21.3314 12.6954 20.8219 13.0713 20.2758 12.9888C19.7297 12.9063 19.3539 12.3968 19.4363 11.8507C19.4783 11.5727 19.5 11.2888 19.5 11C19.5 7.5241 16.2634 4.5 12 4.5Z" fill="#4FA6F6"/>
</svg>
