<svg width="24" height="24" viewBox="0 0 24 24" fill="none" xmlns="http://www.w3.org/2000/svg">
<path opacity="0.7" d="M5.30005 4.75828L5.34749 6.02481L21.0862 9.0015L19.3561 2.54488C19.1417 1.74468 18.3192 1.26981 17.519 1.48422L5.30005 4.75828Z" fill="white"/>
<path opacity="0.7" d="M5.30005 4.75828L5.34749 6.02481L21.0862 9.0015L19.3561 2.54488C19.1417 1.74468 18.3192 1.26981 17.519 1.48422L5.30005 4.75828Z" fill="#FA9D3B"/>
<path fill-rule="evenodd" clip-rule="evenodd" d="M20.5 4C21.3284 4 22 4.67157 22 5.5V9.53962C22 9.78223 21.8225 9.9838 21.5971 10.0735C20.8314 10.378 20.2901 11.1258 20.2901 12C20.2901 12.8742 20.8314 13.622 21.5971 13.9265C21.8225 14.0162 22 14.2178 22 14.4604V18.5C22 19.3284 21.3284 20 20.5 20H3.5C2.67157 20 2 19.3284 2 18.5V14.4604C2 14.2178 2.17747 14.0162 2.40291 13.9265C3.16859 13.622 3.70985 12.8742 3.70985 12C3.70985 11.1258 3.16859 10.378 2.40291 10.0735C2.17747 9.9838 2 9.78223 2 9.53961V5.5C2 4.67157 2.67157 4 3.5 4H20.5Z" fill="#FA9D3B"/>
<path fill-rule="evenodd" clip-rule="evenodd" d="M8 8.75C8.41421 8.75 8.75 9.08579 8.75 9.5V14.5C8.75 14.9142 8.41421 15.25 8 15.25C7.58579 15.25 7.25 14.9142 7.25 14.5V9.5C7.25 9.08579 7.58579 8.75 8 8.75Z" fill="white"/>
</svg>
