<svg width="24" height="24" viewBox="0 0 24 24" fill="none" xmlns="http://www.w3.org/2000/svg">
<path fill-rule="evenodd" clip-rule="evenodd" d="M3.40284 9.74678C3.71226 12.0063 5.11901 14.2041 7.16994 15.6027C7.32586 15.7077 7.43251 15.8831 7.44123 16.0861C7.44407 16.1536 7.43231 16.2169 7.4173 16.2826C7.38764 16.4172 7.35384 16.5706 7.31927 16.7275L7.28458 16.8849C7.18048 17.3573 7.07961 17.8149 7.07302 17.8452C7.0572 17.9184 7.03023 17.9953 7.03348 18.0715C7.04078 18.2402 7.18271 18.3718 7.3508 18.3645C7.4169 18.3617 7.46962 18.3345 7.52416 18.2998L9.47026 17.0522C9.61665 16.9584 9.77338 16.8979 9.94816 16.8904C10.0252 16.887 10.0994 16.8957 10.1714 16.9105C10.7614 17.0423 11.3748 17.1151 12.008 17.1151C13.9359 17.1151 15.4629 16.6666 16.9051 15.6055C16.8678 16.2057 16.6873 16.9282 16.5223 17.3535C15.1648 20.8562 11.2349 22.3745 7.11641 21.0219C3.53525 19.8457 1.34077 15.6465 2.34342 12.1414C2.61228 11.202 2.88702 10.5576 3.40284 9.74678ZM13.0124 7.68502C15.8271 6.64121 18.9451 7.29613 20.7489 9.637C23.0119 12.5738 22.3872 17.0832 19.2134 19.5287C18.4251 20.1362 17.5062 20.4916 16.6083 20.7402C17.3537 19.9407 17.9453 18.9735 18.315 17.8677C19.7039 13.7107 17.4516 9.18971 13.2843 7.76998C13.1938 7.73936 13.1032 7.7124 13.0124 7.68502ZM12.016 2.25C14.8974 2.25041 17.4424 4.02112 18.4485 6.08988C16.1598 5.31696 13.0123 5.18942 10.0642 7.44169C8.43135 8.8085 7.186 10.668 6.85022 13.0324C5.9595 12.0997 5.33702 10.6252 5.17015 9.50762C4.92724 7.88087 5.31533 6.24966 6.46802 4.85588C8.19412 2.76866 10.504 2.24959 12.016 2.25Z" fill="#03C160"/>
</svg>
