<svg width="24" height="24" viewBox="0 0 24 24" fill="none" xmlns="http://www.w3.org/2000/svg">
<path fill-rule="evenodd" clip-rule="evenodd" d="M11.9947 12.25C12.4089 12.25 12.7448 12.5857 12.7448 12.9999L12.745 14.8161C14.5351 14.9049 16.0446 15.3923 17.1627 16.1307C18.4259 16.965 19.25 18.1719 19.25 19.5C19.25 19.9142 18.9142 20.25 18.5 20.25C18.0858 20.25 17.75 19.9142 17.75 19.5C17.75 18.8281 17.3241 18.035 16.336 17.3824C15.49 16.8236 14.2746 16.4052 12.745 16.3182L12.7448 18.0001C12.7448 18.4143 12.4089 18.75 11.9947 18.75C11.5805 18.75 11.2448 18.4141 11.2448 17.9999L11.245 16.3183C9.72028 16.4055 8.50767 16.8237 7.66303 17.3822C6.67603 18.0348 6.25 18.8279 6.25 19.5C6.25 19.9142 5.91421 20.25 5.5 20.25C5.08579 20.25 4.75 19.9142 4.75 19.5C4.75 18.1721 5.57397 16.9652 6.83573 16.131C7.95229 15.3927 9.4592 14.9053 11.245 14.8162L11.2448 13.0001C11.2448 12.5859 11.5805 12.25 11.9947 12.25Z" fill="white"/>
<path opacity="0.7" fill-rule="evenodd" clip-rule="evenodd" d="M11.9947 12.25C12.4089 12.25 12.7448 12.5857 12.7448 12.9999L12.745 14.8161C14.5351 14.9049 16.0446 15.3923 17.1627 16.1307C18.4259 16.965 19.25 18.1719 19.25 19.5C19.25 19.9142 18.9142 20.25 18.5 20.25C18.0858 20.25 17.75 19.9142 17.75 19.5C17.75 18.8281 17.3241 18.035 16.336 17.3824C15.49 16.8236 14.2746 16.4052 12.745 16.3182L12.7448 18.0001C12.7448 18.4143 12.4089 18.75 11.9947 18.75C11.5805 18.75 11.2448 18.4141 11.2448 17.9999L11.245 16.3183C9.72028 16.4055 8.50767 16.8237 7.66303 17.3822C6.67603 18.0348 6.25 18.8279 6.25 19.5C6.25 19.9142 5.91421 20.25 5.5 20.25C5.08579 20.25 4.75 19.9142 4.75 19.5C4.75 18.1721 5.57397 16.9652 6.83573 16.131C7.95229 15.3927 9.4592 14.9053 11.245 14.8162L11.2448 13.0001C11.2448 12.5859 11.5805 12.25 11.9947 12.25Z" fill="#00C777"/>
<path d="M5.49996 17.5C4.39541 17.5 3.5 18.3954 3.5 19.5C3.5 20.6046 4.39541 21.5 5.49996 21.5C6.60451 21.5 7.49993 20.6046 7.49993 19.5C7.49993 18.3954 6.60451 17.5 5.49996 17.5Z" fill="#00C777"/>
<path d="M12 17.5C10.8954 17.5 10 18.3954 10 19.5C10 20.6046 10.8954 21.5 12 21.5C13.1045 21.5 13.9999 20.6046 13.9999 19.5C13.9999 18.3954 13.1045 17.5 12 17.5Z" fill="#00C777"/>
<path d="M18.5 17.5C17.3954 17.5 16.5 18.3954 16.5 19.5C16.5 20.6046 17.3954 21.5 18.5 21.5C19.6045 21.5 20.4999 20.6046 20.4999 19.5C20.4999 18.3954 19.6045 17.5 18.5 17.5Z" fill="#00C777"/>
<path d="M17.5 8.0001C17.5 11.0377 15.0376 13.5002 12 13.5002C8.96243 13.5002 6.5 11.0377 6.5 8.0001C6.5 4.96248 8.96243 2.5 12 2.5C15.0376 2.5 17.5 4.96248 17.5 8.0001Z" fill="#00C777"/>
<path d="M13.6464 8.3536C13.8416 8.15833 13.8416 7.84176 13.6464 7.6465L12.3535 6.35357C12.1582 6.15831 11.8416 6.15831 11.6464 6.35357L10.3535 7.64649C10.1582 7.84176 10.1582 8.15833 10.3535 8.3536L11.6464 9.64652C11.8416 9.84178 12.1582 9.84178 12.3535 9.64652L13.6464 8.3536Z" fill="white"/>
</svg>
