<svg width="24" height="24" viewBox="0 0 24 24" fill="none" xmlns="http://www.w3.org/2000/svg">
<path d="M17.1232 3.89238C16.8828 3.34983 16.3451 3 15.7517 3H8.24827C7.65486 3 7.11723 3.34984 6.87685 3.89238L5.5 7H18.5L17.1232 3.89238Z" fill="white"/>
<path opacity="0.7" d="M17.1232 3.89238C16.8828 3.34983 16.3451 3 15.7517 3H8.24827C7.65486 3 7.11723 3.34984 6.87685 3.89238L5.5 7H18.5L17.1232 3.89238Z" fill="#03C160"/>
<path d="M22 7.5C22 6.67157 21.3284 6 20.5 6H3.5C2.67157 6 2 6.67157 2 7.5V19.5C2 20.3284 2.67157 21 3.5 21H20.5C21.3284 21 22 20.3284 22 19.5V7.5Z" fill="#03C160"/>
<path fill-rule="evenodd" clip-rule="evenodd" d="M8.1499 13.25C8.1499 11.1237 9.87361 9.39998 11.9999 9.39998C14.1262 9.39998 15.8499 11.1237 15.8499 13.25C15.8499 15.3763 14.1262 17.1 11.9999 17.1C9.87361 17.1 8.1499 15.3763 8.1499 13.25ZM9.6499 13.25C9.6499 11.9521 10.702 10.9 11.9999 10.9C13.2978 10.9 14.3499 11.9521 14.3499 13.25C14.3499 14.5478 13.2978 15.6 11.9999 15.6C10.702 15.6 9.6499 14.5478 9.6499 13.25Z" fill="white"/>
</svg>
