<svg width="24" height="24" viewBox="0 0 24 24" fill="none" xmlns="http://www.w3.org/2000/svg">
<path d="M3 9.5C3 8.67157 3.67157 8 4.5 8H5.5C6.32843 8 7 8.67157 7 9.5V20.5C7 21.3284 6.32843 22 5.5 22H4.5C3.67157 22 3 21.3284 3 20.5V9.5Z" fill="#208BF1"/>
<path d="M17 13.5C17 12.6716 17.6716 12 18.5 12H19.5C20.3284 12 21 12.6716 21 13.5V20.5C21 21.3284 20.3284 22 19.5 22H18.5C17.6716 22 17 21.3284 17 20.5V13.5Z" fill="white"/>
<path opacity="0.7" d="M17 13.5C17 12.6716 17.6716 12 18.5 12H19.5C20.3284 12 21 12.6716 21 13.5V20.5C21 21.3284 20.3284 22 19.5 22H18.5C17.6716 22 17 21.3284 17 20.5V13.5Z" fill="#208BF1"/>
<path d="M10 3.5C10 2.67157 10.6716 2 11.5 2H12.5C13.3284 2 14 2.67157 14 3.5V20.5C14 21.3284 13.3284 22 12.5 22H11.5C10.6716 22 10 21.3284 10 20.5V3.5Z" fill="#208BF1"/>
</svg>
