<svg width="24" height="24" viewBox="0 0 24 24" fill="none" xmlns="http://www.w3.org/2000/svg">
<path fill-rule="evenodd" clip-rule="evenodd" d="M15.0309 6.11798C13.7707 6.11798 12.7491 7.13956 12.7491 8.39975H11.2491C11.2491 6.31113 12.9423 4.61798 15.0309 4.61798C17.1195 4.61798 18.8127 6.31113 18.8127 8.39975V10.2946C18.8127 11.354 18.3764 12.3119 17.6757 12.9976V13.5918C17.6757 13.5949 17.6776 13.5978 17.6804 13.599L19.2444 14.2941C20.3402 14.7811 21.14 15.759 21.4002 16.9295L21.6216 17.9259C21.8308 18.8676 21.1142 19.7609 20.1495 19.7609H15.0309V18.2609H20.1495L20.1522 18.2608L20.1527 18.2608L20.1529 18.2607C20.1529 18.2607 20.1529 18.2607 20.1528 18.2607L20.1527 18.2608L20.1527 18.2608C20.1527 18.2608 20.1533 18.2605 20.1541 18.2597C20.1546 18.2593 20.1551 18.2587 20.1557 18.258C20.1566 18.2569 20.1571 18.256 20.1574 18.2554C20.1576 18.255 20.1577 18.2547 20.1578 18.2545L20.1577 18.2539L20.1573 18.2513L19.9359 17.2549C19.7789 16.5487 19.2963 15.9587 18.6352 15.6648L17.0712 14.9697C16.5267 14.7277 16.1757 14.1877 16.1757 13.5918V12.6614C16.1757 12.4338 16.2791 12.2186 16.4566 12.0762C16.9798 11.6568 17.3127 11.0148 17.3127 10.2946V8.39975C17.3127 7.13956 16.2911 6.11798 15.0309 6.11798Z" fill="white"/>
<path opacity="0.7" fill-rule="evenodd" clip-rule="evenodd" d="M15.0309 6.11798C13.7707 6.11798 12.7491 7.13956 12.7491 8.39975H11.2491C11.2491 6.31113 12.9423 4.61798 15.0309 4.61798C17.1195 4.61798 18.8127 6.31113 18.8127 8.39975V10.2946C18.8127 11.354 18.3764 12.3119 17.6757 12.9976V13.5918C17.6757 13.5949 17.6776 13.5978 17.6804 13.599L19.2444 14.2941C20.3402 14.7811 21.14 15.759 21.4002 16.9295L21.6216 17.9259C21.8308 18.8676 21.1142 19.7609 20.1495 19.7609H15.0309V18.2609H20.1495L20.1522 18.2608L20.1527 18.2608L20.1529 18.2607C20.1529 18.2607 20.1529 18.2607 20.1528 18.2607L20.1527 18.2608L20.1527 18.2608C20.1527 18.2608 20.1533 18.2605 20.1541 18.2597C20.1546 18.2593 20.1551 18.2587 20.1557 18.258C20.1566 18.2569 20.1571 18.256 20.1574 18.2554C20.1576 18.255 20.1577 18.2547 20.1578 18.2545L20.1577 18.2539L20.1573 18.2513L19.9359 17.2549C19.7789 16.5487 19.2963 15.9587 18.6352 15.6648L17.0712 14.9697C16.5267 14.7277 16.1757 14.1877 16.1757 13.5918V12.6614C16.1757 12.4338 16.2791 12.2186 16.4566 12.0762C16.9798 11.6568 17.3127 11.0148 17.3127 10.2946V8.39975C17.3127 7.13956 16.2911 6.11798 15.0309 6.11798Z" fill="#208BF1"/>
<path fill-rule="evenodd" clip-rule="evenodd" d="M6.85597 7.26302C6.85597 4.90855 8.76467 2.99988 11.1192 2.99988C13.4737 2.99988 15.3824 4.90855 15.3824 7.26302V9.63143C15.3824 11.0193 14.719 12.2518 13.6935 13.0298C13.5676 13.1253 13.4876 13.2715 13.4876 13.4296V13.7269C13.4876 13.9206 13.6055 14.0948 13.7853 14.1667L16.0689 15.0801C17.3767 15.6033 18.3417 16.7386 18.6472 18.1136L19.0182 19.7829C19.157 20.4075 18.6818 20.9999 18.042 20.9999H4.19621C3.55646 20.9999 3.08124 20.4075 3.22002 19.7829L3.591 18.1135C3.89656 16.7386 4.86156 15.6033 6.16935 15.0801L8.45286 14.1667C8.6327 14.0948 8.75062 13.9206 8.75062 13.7269L8.75063 13.4295C8.75063 13.2714 8.67063 13.1252 8.54471 13.0297C7.51932 12.2517 6.85597 11.0192 6.85597 9.63143V7.26302Z" fill="#208BF1"/>
</svg>
