<svg width="24" height="24" viewBox="0 0 24 24" fill="none" xmlns="http://www.w3.org/2000/svg">
<path fill-rule="evenodd" clip-rule="evenodd" d="M20.3501 4.34998C21.0681 4.34998 21.6501 4.93201 21.6501 5.64998V10.0305C20.7124 10.196 20 11.0148 20 12C20 12.9852 20.7124 13.804 21.6501 13.9695V18.35C21.6501 19.0679 21.0681 19.65 20.3501 19.65H3.6501C2.93213 19.65 2.3501 19.0679 2.3501 18.35V13.9695C3.28774 13.8039 4 12.9851 4 12C4 11.0149 3.28774 10.1961 2.3501 10.0305V5.64998C2.3501 4.93201 2.93213 4.34998 3.6501 4.34998H20.3501Z" fill="#FA9D3B"/>
<path fill-rule="evenodd" clip-rule="evenodd" d="M20.1602 12.7855C17.4755 16.2678 13.5779 18.7668 9.09985 19.65H20.3501C21.0681 19.65 21.6501 19.0679 21.6501 18.35V13.9695C20.9778 13.8509 20.4213 13.3964 20.1602 12.7855Z" fill="white"/>
<path opacity="0.7" fill-rule="evenodd" clip-rule="evenodd" d="M20.1602 12.7855C17.4755 16.2678 13.5779 18.7668 9.09985 19.65H20.3501C21.0681 19.65 21.6501 19.0679 21.6501 18.35V13.9695C20.9778 13.8509 20.4213 13.3964 20.1602 12.7855Z" fill="#FA9D3B"/>
<path fill-rule="evenodd" clip-rule="evenodd" d="M15.4595 9.54043C15.7133 9.79427 15.7133 10.2058 15.4595 10.4597L13.1666 12.7526C12.5222 13.3969 11.4775 13.3969 10.8332 12.7526L10.7474 12.6668C10.6107 12.5301 10.3891 12.5301 10.2524 12.6668L9.4595 13.4597C9.20566 13.7135 8.7941 13.7135 8.54026 13.4597C8.28642 13.2058 8.28642 12.7943 8.54026 12.5404L9.33315 11.7475C9.97752 11.1032 11.0222 11.1032 11.6666 11.7475L11.7524 11.8333C11.8891 11.97 12.1107 11.97 12.2474 11.8333L14.5403 9.54043C14.7941 9.28659 15.2057 9.28659 15.4595 9.54043Z" fill="white"/>
<path fill-rule="evenodd" clip-rule="evenodd" d="M14.9 9.35007C15.3142 9.35007 15.65 9.68585 15.65 10.1001V12.0001C15.65 12.3591 15.359 12.6501 15 12.6501C14.641 12.6501 14.35 12.3591 14.35 12.0001V10.6501H13C12.641 10.6501 12.35 10.3591 12.35 10.0001C12.35 9.64108 12.641 9.35007 13 9.35007H14.9Z" fill="white"/>
</svg>
