<svg width="24" height="24" viewBox="0 0 24 24" fill="none" xmlns="http://www.w3.org/2000/svg">
<path d="M19.7795 4.318L22 9.5C22 9.55733 21.9987 9.6145 21.996 9.6715C21.993 9.72883 21.9887 9.786 21.983 9.843C21.9773 9.9 21.9703 9.95683 21.962 10.0135C21.9537 10.0702 21.9438 10.1267 21.9325 10.183C21.9215 10.239 21.909 10.2948 21.895 10.3505C21.8813 10.4058 21.8662 10.461 21.8495 10.516C21.8328 10.5707 21.8148 10.625 21.7955 10.679C21.7762 10.733 21.7555 10.7863 21.7335 10.839C21.7115 10.8923 21.6882 10.9448 21.6635 10.9965C21.6392 11.0482 21.6135 11.0993 21.5865 11.15C21.5598 11.2003 21.5317 11.2502 21.502 11.2995C21.4727 11.3485 21.442 11.3968 21.41 11.4445C21.3783 11.4922 21.3453 11.5388 21.311 11.5845C21.277 11.6308 21.242 11.6762 21.206 11.7205C21.1693 11.7648 21.1318 11.8082 21.0935 11.8505C21.0548 11.8928 21.0153 11.9343 20.975 11.975C20.9343 12.0153 20.8927 12.0548 20.85 12.0935C20.808 12.1318 20.7647 12.1692 20.72 12.2055C20.676 12.2422 20.631 12.2773 20.585 12.311C20.539 12.3453 20.4922 12.3783 20.4445 12.41C20.3968 12.442 20.3485 12.4727 20.2995 12.502C20.2502 12.5313 20.2002 12.5597 20.1495 12.587C20.0995 12.6137 20.0485 12.6393 19.9965 12.664C19.9445 12.6883 19.8922 12.7117 19.8395 12.734C19.7865 12.7557 19.7332 12.7762 19.6795 12.7955C19.6252 12.8148 19.5707 12.8328 19.516 12.8495C19.4613 12.8662 19.4062 12.8813 19.3505 12.895C19.2948 12.909 19.239 12.9217 19.183 12.933C19.1267 12.944 19.0702 12.9537 19.0135 12.962C18.9568 12.9703 18.9002 12.9773 18.8435 12.983C18.7862 12.9887 18.729 12.993 18.672 12.996C18.6147 12.9987 18.5573 13 18.5 13C18.4133 13 18.3267 12.9967 18.24 12.99C18.1533 12.9837 18.067 12.9742 17.981 12.9615C17.895 12.9485 17.8097 12.9323 17.725 12.913C17.6403 12.894 17.5565 12.8717 17.4735 12.846C17.3905 12.8207 17.3085 12.7923 17.2275 12.761C17.1468 12.729 17.0673 12.6943 16.989 12.657C16.9107 12.6193 16.8338 12.579 16.7585 12.536C16.6832 12.4927 16.6095 12.4467 16.5375 12.398C16.4655 12.3493 16.3955 12.298 16.3275 12.244C16.2595 12.19 16.1935 12.1337 16.1295 12.075C16.0655 12.0163 16.0038 11.9552 15.9445 11.8915C15.8852 11.8282 15.8283 11.7627 15.774 11.695C15.7193 11.6273 15.6673 11.5578 15.618 11.4865C15.569 11.4148 15.5225 11.3415 15.4785 11.2665C15.4348 11.1915 15.3938 11.115 15.3555 11.037C15.3175 10.959 15.2823 10.8797 15.25 10.799C15.2177 10.8797 15.1825 10.959 15.1445 11.037C15.1062 11.115 15.0652 11.1917 15.0215 11.267C14.9775 11.3417 14.9308 11.4148 14.8815 11.4865C14.8325 11.5578 14.7808 11.6273 14.7265 11.695C14.6718 11.7627 14.6148 11.8282 14.5555 11.8915C14.4962 11.9548 14.4345 12.016 14.3705 12.075C14.3065 12.1337 14.2405 12.19 14.1725 12.244C14.1045 12.298 14.0345 12.3493 13.9625 12.398C13.8905 12.4467 13.8168 12.4927 13.7415 12.536C13.6662 12.5793 13.5895 12.6197 13.5115 12.657C13.4328 12.6943 13.3532 12.7288 13.2725 12.7605C13.1915 12.7922 13.1095 12.8207 13.0265 12.846C12.9432 12.8717 12.8593 12.894 12.775 12.913C12.6903 12.9323 12.605 12.9485 12.519 12.9615C12.433 12.9742 12.3467 12.9838 12.26 12.9905C12.1733 12.9968 12.0867 13 12 13C11.9133 13 11.8267 12.9967 11.74 12.99C11.6533 12.9837 11.567 12.9742 11.481 12.9615C11.395 12.9485 11.3097 12.9323 11.225 12.913C11.1403 12.894 11.0565 12.8717 10.9735 12.846C10.8905 12.8207 10.8085 12.7923 10.7275 12.761C10.6468 12.729 10.5673 12.6943 10.489 12.657C10.4107 12.6193 10.3338 12.579 10.2585 12.536C10.1832 12.4927 10.1095 12.4467 10.0375 12.398C9.9655 12.3493 9.8955 12.298 9.8275 12.244C9.7595 12.19 9.6935 12.1337 9.6295 12.075C9.5655 12.0163 9.50383 11.9552 9.4445 11.8915C9.38517 11.8282 9.32833 11.7627 9.274 11.695C9.21933 11.6273 9.16733 11.5578 9.118 11.4865C9.069 11.4148 9.0225 11.3415 8.9785 11.2665C8.93483 11.1915 8.89383 11.115 8.8555 11.037C8.8175 10.959 8.78233 10.8797 8.75 10.799C8.71767 10.8797 8.6825 10.959 8.6445 11.037C8.6065 11.115 8.5655 11.1917 8.5215 11.267C8.4775 11.3417 8.43083 11.4148 8.3815 11.4865C8.3325 11.5578 8.28083 11.6273 8.2265 11.695C8.17183 11.7627 8.11483 11.8282 8.0555 11.8915C7.99617 11.9548 7.9345 12.016 7.8705 12.075C7.8065 12.1337 7.7405 12.19 7.6725 12.244C7.6045 12.298 7.5345 12.3493 7.4625 12.398C7.3905 12.4467 7.31683 12.4927 7.2415 12.536C7.16617 12.5793 7.0895 12.6197 7.0115 12.657C6.93283 12.6943 6.85317 12.7288 6.7725 12.7605C6.6915 12.7922 6.6095 12.8207 6.5265 12.846C6.44317 12.8717 6.35933 12.894 6.275 12.913C6.19033 12.9323 6.105 12.9485 6.019 12.9615C5.933 12.9742 5.84667 12.9838 5.76 12.9905C5.67333 12.9968 5.58667 13 5.5 13C5.44267 13 5.3855 12.9987 5.3285 12.996C5.27117 12.993 5.214 12.9887 5.157 12.983C5.1 12.9773 5.04317 12.9703 4.9865 12.962C4.92983 12.9537 4.87333 12.944 4.817 12.933C4.761 12.9217 4.70517 12.909 4.6495 12.895C4.59383 12.8813 4.53867 12.8662 4.484 12.8495C4.42933 12.8328 4.375 12.8148 4.321 12.7955C4.267 12.7762 4.21367 12.7555 4.161 12.7335C4.10767 12.7115 4.05517 12.6882 4.0035 12.6635C3.95183 12.6392 3.90067 12.6135 3.85 12.5865C3.79967 12.5598 3.74983 12.5317 3.7005 12.502C3.6515 12.4727 3.60317 12.442 3.5555 12.41C3.50783 12.3783 3.46117 12.3453 3.4155 12.311C3.36917 12.277 3.32383 12.242 3.2795 12.206C3.23517 12.1693 3.19183 12.1318 3.1495 12.0935C3.10717 12.0548 3.06567 12.0153 3.025 11.975C2.98467 11.9343 2.94517 11.8927 2.9065 11.85C2.86817 11.808 2.83083 11.7647 2.7945 11.72C2.75783 11.676 2.72267 11.631 2.689 11.585C2.65467 11.539 2.62167 11.4922 2.59 11.4445C2.558 11.3968 2.52733 11.3485 2.498 11.2995C2.46867 11.2502 2.44033 11.2002 2.413 11.1495C2.38633 11.0995 2.36067 11.0485 2.336 10.9965C2.31167 10.9448 2.28833 10.8925 2.266 10.8395C2.24433 10.7865 2.22383 10.7332 2.2045 10.6795C2.18517 10.6252 2.16717 10.5707 2.1505 10.516C2.13383 10.461 2.11867 10.4058 2.105 10.3505C2.091 10.2948 2.0785 10.239 2.0675 10.183C2.05617 10.1267 2.04617 10.0702 2.0375 10.0135C2.0295 9.95683 2.02267 9.90017 2.017 9.8435C2.01133 9.78617 2.007 9.72883 2.004 9.6715C2.00133 9.6145 2 9.55733 2 9.5L4.221 4.318C4.45228 3.77847 4.83677 3.31865 5.32683 2.9955C5.81689 2.67234 6.39099 2.50006 6.978 2.5H17.022C17.6091 2.49997 18.1833 2.6722 18.6735 2.99536C19.1636 3.31852 19.5482 3.77839 19.7795 4.318ZM4.25 15.5C4.25 15.3011 4.32902 15.1103 4.46967 14.9697C4.61032 14.829 4.80109 14.75 5 14.75C5.19891 14.75 5.38968 14.829 5.53033 14.9697C5.67098 15.1103 5.75 15.3011 5.75 15.5C5.75 16.6233 6.32867 17.5983 7.486 18.425C8.72267 19.3083 10.2273 19.75 12 19.75C13.7727 19.75 15.2773 19.3083 16.514 18.425C17.6713 17.5983 18.25 16.6233 18.25 15.5C18.25 15.3011 18.329 15.1103 18.4697 14.9697C18.6103 14.829 18.8011 14.75 19 14.75C19.1989 14.75 19.3897 14.829 19.5303 14.9697C19.671 15.1103 19.75 15.3011 19.75 15.5C19.75 16.315 19.5317 17.0912 19.095 17.8285C18.6873 18.5175 18.1175 19.1233 17.3855 19.646C15.8885 20.7153 14.0933 21.25 12 21.25C9.90667 21.25 8.1115 20.7153 6.6145 19.646C5.8825 19.1233 5.3125 18.5175 4.9045 17.8285C4.46817 17.0912 4.25 16.315 4.25 15.5Z" fill="#FF6146"/>
</svg>
