<svg width="24" height="24" viewBox="0 0 24 24" fill="none" xmlns="http://www.w3.org/2000/svg">
<path fill-rule="evenodd" clip-rule="evenodd" d="M8.40149 10.0318C8.40149 6.3635 11.6068 3.47546 15.4508 3.47546C19.2947 3.47546 22.5001 6.3635 22.5001 10.0318C22.5001 11.704 21.834 13.214 20.745 14.3623L21.4549 16.3144C21.6046 16.7262 21.1829 17.1141 20.785 16.9304L18.5736 15.9098C17.6283 16.3448 16.5664 16.5881 15.4508 16.5881C11.6068 16.5881 8.40149 13.7001 8.40149 10.0318Z" fill="white"/>
<path opacity="0.7" fill-rule="evenodd" clip-rule="evenodd" d="M8.40149 10.0318C8.40149 6.3635 11.6068 3.47546 15.4508 3.47546C19.2947 3.47546 22.5001 6.3635 22.5001 10.0318C22.5001 11.704 21.834 13.214 20.745 14.3623L21.4549 16.3144C21.6046 16.7262 21.1829 17.1141 20.785 16.9304L18.5736 15.9098C17.6283 16.3448 16.5664 16.5881 15.4508 16.5881C11.6068 16.5881 8.40149 13.7001 8.40149 10.0318Z" fill="#03C160"/>
<path fill-rule="evenodd" clip-rule="evenodd" d="M1.50012 12.2502C1.50012 7.89067 5.37913 4.46143 10.0283 4.46143C14.6775 4.46143 18.5565 7.89067 18.5565 12.2502C18.5565 16.6097 14.6775 20.0389 10.0283 20.0389C9.22049 20.0389 8.43594 19.9354 7.69095 19.7414L4.51492 21.0118C4.14154 21.1612 3.75607 20.8247 3.8536 20.4346L4.43062 18.1265C2.64259 16.708 1.50012 14.6161 1.50012 12.2502Z" fill="#03C160"/>
<path d="M7.80988 10.7713C7.80988 11.4519 7.25812 12.0037 6.57749 12.0037C5.89685 12.0037 5.34509 11.4519 5.34509 10.7713C5.34509 10.0906 5.89685 9.53888 6.57749 9.53888C7.25812 9.53888 7.80988 10.0906 7.80988 10.7713Z" fill="white"/>
<path d="M14.7112 10.7713C14.7112 11.4519 14.1595 12.0037 13.4789 12.0037C12.7982 12.0037 12.2465 11.4519 12.2465 10.7713C12.2465 10.0906 12.7982 9.53888 13.4789 9.53888C14.1595 9.53888 14.7112 10.0906 14.7112 10.7713Z" fill="white"/>
</svg>
