<svg width="24" height="24" viewBox="0 0 24 24" fill="none" xmlns="http://www.w3.org/2000/svg">
<path d="M17.1232 3.89238C16.8828 3.34983 16.3451 3 15.7517 3H8.24827C7.65486 3 7.11723 3.34984 6.87685 3.89238L5.5 7H18.5L17.1232 3.89238Z" fill="white"/>
<path opacity="0.7" d="M17.1232 3.89238C16.8828 3.34983 16.3451 3 15.7517 3H8.24827C7.65486 3 7.11723 3.34984 6.87685 3.89238L5.5 7H18.5L17.1232 3.89238Z" fill="#FF6045"/>
<path d="M22 7.5C22 6.67157 21.3284 6 20.5 6H3.5C2.67157 6 2 6.67157 2 7.5V19.5C2 20.3284 2.67157 21 3.5 21H20.5C21.3284 21 22 20.3284 22 19.5V7.5Z" fill="#FF6045"/>
<path d="M8.90423 13.6696L11.6854 9.5437C11.8975 9.229 12.389 9.37915 12.389 9.75868V12.5384C12.389 12.6447 12.475 12.7308 12.5813 12.7308H14.777C15.085 12.7308 15.2681 13.0749 15.0959 13.3304L12.3147 17.4563C12.1026 17.771 11.6112 17.6208 11.6112 17.2413V14.4615C11.6112 14.3553 11.5251 14.2692 11.4189 14.2692H9.22316C8.91508 14.2692 8.73203 13.9251 8.90423 13.6696Z" fill="white"/>
</svg>
