<svg width="24" height="24" viewBox="0 0 24 24" fill="none" xmlns="http://www.w3.org/2000/svg">
<path d="M3 19.5C3 20.3284 3.67157 21 4.5 21L17.5 21C18.3284 21 19 20.3284 19 19.5L19 6.5C19 5.67157 18.3284 5 17.5 5H4.5C3.67157 5 3 5.67157 3 6.5L3 19.5Z" fill="white"/>
<path opacity="0.7" d="M3 19.5C3 20.3284 3.67157 21 4.5 21L17.5 21C18.3284 21 19 20.3284 19 19.5L19 6.5C19 5.67157 18.3284 5 17.5 5H4.5C3.67157 5 3 5.67157 3 6.5L3 19.5Z" fill="#208BF1"/>
<path d="M5 17.5C5 18.3284 5.67157 19 6.5 19H19.5C20.3284 19 21 18.3284 21 17.5L21 4.5C21 3.67157 20.3284 3 19.5 3H6.5C5.67157 3 5 3.67157 5 4.5L5 17.5Z" fill="#208BF1"/>
<path fill-rule="evenodd" clip-rule="evenodd" d="M9.25 11C9.25 10.5858 9.58579 10.25 10 10.25H16C16.4142 10.25 16.75 10.5858 16.75 11C16.75 11.4142 16.4142 11.75 16 11.75H10C9.58579 11.75 9.25 11.4142 9.25 11Z" fill="white"/>
<path fill-rule="evenodd" clip-rule="evenodd" d="M13 7.25C13.4142 7.25 13.75 7.58579 13.75 8L13.75 14C13.75 14.4142 13.4142 14.75 13 14.75C12.5858 14.75 12.25 14.4142 12.25 14L12.25 8C12.25 7.58579 12.5858 7.25 13 7.25Z" fill="white"/>
</svg>
