<svg width="24" height="24" viewBox="0 0 24 24" fill="none" xmlns="http://www.w3.org/2000/svg">
<path fill-rule="evenodd" clip-rule="evenodd" d="M12 2.75C10.2051 2.75 8.75 4.20507 8.75 6C8.75 7.79493 10.2051 9.25 12 9.25C13.7949 9.25 15.25 7.79493 15.25 6C15.25 4.20507 13.7949 2.75 12 2.75ZM7.25 6C7.25 3.37665 9.37665 1.25 12 1.25C14.6234 1.25 16.75 3.37665 16.75 6C16.75 8.62335 14.6234 10.75 12 10.75C9.37665 10.75 7.25 8.62335 7.25 6Z" fill="white"/>
<path opacity="0.7" fill-rule="evenodd" clip-rule="evenodd" d="M12 2.75C10.2051 2.75 8.75 4.20507 8.75 6C8.75 7.79493 10.2051 9.25 12 9.25C13.7949 9.25 15.25 7.79493 15.25 6C15.25 4.20507 13.7949 2.75 12 2.75ZM7.25 6C7.25 3.37665 9.37665 1.25 12 1.25C14.6234 1.25 16.75 3.37665 16.75 6C16.75 8.62335 14.6234 10.75 12 10.75C9.37665 10.75 7.25 8.62335 7.25 6Z" fill="#FA9D3B"/>
<path d="M19.7014 6.75023C19.6489 5.96228 18.9944 5.35001 18.2047 5.35001H5.79518C5.00549 5.35001 4.35103 5.96228 4.2985 6.75023L3.41184 20.0502C3.35412 20.916 4.04082 21.65 4.90852 21.65H9.65239C10.0502 21.65 10.4317 21.492 10.713 21.2107L19.5621 12.3619C19.868 12.0561 20.0269 11.6331 19.9982 11.2015L19.7014 6.75023Z" fill="#FA9D3B"/>
<path fill-rule="evenodd" clip-rule="evenodd" d="M20.2495 14.3536C20.0543 14.1583 19.7377 14.1583 19.5424 14.3536L18.8353 15.0607L20.9567 17.182L21.6638 16.4749C21.859 16.2796 21.859 15.963 21.6638 15.7678L20.2495 14.3536ZM20.2495 17.8891L18.1282 15.7678L14.1499 19.7461C14.0561 19.8399 14.0034 19.9671 14.0034 20.0997L14.0034 21.5139C14.0034 21.79 14.2273 22.0139 14.5034 22.0139L15.9177 22.0139C16.0503 22.0139 16.1774 21.9612 16.2712 21.8674L20.2495 17.8891Z" fill="white"/>
<path opacity="0.7" fill-rule="evenodd" clip-rule="evenodd" d="M20.2495 14.3536C20.0543 14.1583 19.7377 14.1583 19.5424 14.3536L18.8353 15.0607L20.9567 17.182L21.6638 16.4749C21.859 16.2796 21.859 15.963 21.6638 15.7678L20.2495 14.3536ZM20.2495 17.8891L18.1282 15.7678L14.1499 19.7461C14.0561 19.8399 14.0034 19.9671 14.0034 20.0997L14.0034 21.5139C14.0034 21.79 14.2273 22.0139 14.5034 22.0139L15.9177 22.0139C16.0503 22.0139 16.1774 21.9612 16.2712 21.8674L20.2495 17.8891Z" fill="#FA9D3B"/>
</svg>
