<svg width="24" height="24" viewBox="0 0 24 24" fill="none" xmlns="http://www.w3.org/2000/svg">
<path d="M3 19.5C3 20.3284 3.67157 21 4.5 21L17.5 21C18.3284 21 19 20.3284 19 19.5L19 6.5C19 5.67157 18.3284 5 17.5 5H4.5C3.67157 5 3 5.67157 3 6.5L3 19.5Z" fill="white"/>
<path opacity="0.7" d="M3 19.5C3 20.3284 3.67157 21 4.5 21L17.5 21C18.3284 21 19 20.3284 19 19.5L19 6.5C19 5.67157 18.3284 5 17.5 5H4.5C3.67157 5 3 5.67157 3 6.5L3 19.5Z" fill="#208BF1"/>
<path d="M5 17.5C5 18.3284 5.67157 19 6.5 19H19.5C20.3284 19 21 18.3284 21 17.5L21 4.5C21 3.67157 20.3284 3 19.5 3H6.5C5.67157 3 5 3.67157 5 4.5L5 17.5Z" fill="#208BF1"/>
<path fill-rule="evenodd" clip-rule="evenodd" d="M11.4567 10.0949C11.1282 10.3471 10.6573 10.2853 10.4051 9.95673C10.1528 9.62818 10.2147 9.15736 10.5432 8.90511L12.4823 7.41632C12.7876 7.18193 13.2123 7.18193 13.5176 7.41632L15.4567 8.90511C15.7853 9.15736 15.8471 9.62819 15.5949 9.95673C15.3426 10.2853 14.8718 10.3471 14.5432 10.0949L13.75 9.48584L13.75 14C13.75 14.4142 13.4142 14.75 13 14.75C12.5858 14.75 12.25 14.4142 12.25 14L12.25 9.48584L11.4567 10.0949Z" fill="white"/>
</svg>
