<svg width="24" height="24" viewBox="0 0 24 24" fill="none" xmlns="http://www.w3.org/2000/svg">
<path fill-rule="evenodd" clip-rule="evenodd" d="M13.75 2C14.3023 2 14.7378 2.45402 14.8662 2.99119C15.2367 4.54231 16.4577 5.76324 18.0088 6.1338C18.546 6.26213 19 6.69772 19 7.25V8.75C19 9.30228 18.5499 9.75677 18.0021 9.68636C14.5199 9.23876 11.7612 6.48005 11.3136 2.99783C11.2432 2.45006 11.6977 2 12.25 2H13.75Z" fill="white"/>
<path opacity="0.7" fill-rule="evenodd" clip-rule="evenodd" d="M13.75 2C14.3023 2 14.7378 2.45402 14.8662 2.99119C15.2367 4.54231 16.4577 5.76324 18.0088 6.1338C18.546 6.26213 19 6.69772 19 7.25V8.75C19 9.30228 18.5499 9.75677 18.0021 9.68636C14.5199 9.23876 11.7612 6.48005 11.3136 2.99783C11.2432 2.45006 11.6977 2 12.25 2H13.75Z" fill="#6367F0"/>
<path fill-rule="evenodd" clip-rule="evenodd" d="M13.75 2C14.3023 2 14.75 2.44772 14.75 3V15C14.75 18.7279 11.7279 21.75 8 21.75C4.27208 21.75 1.25 18.7279 1.25 15C1.25 11.6107 3.748 8.80484 7.00334 8.32307C7.54968 8.24221 8 8.69772 8 9.25V10.75C8 11.3023 7.54182 11.7347 7.01543 11.9018C5.70181 12.3189 4.75 13.5483 4.75 15C4.75 16.7949 6.20507 18.25 8 18.25C9.79493 18.25 11.25 16.7949 11.25 15V3C11.25 2.44772 11.6977 2 12.25 2H13.75Z" fill="#6367F0"/>
<path fill-rule="evenodd" clip-rule="evenodd" d="M16.25 15C16.25 14.5858 16.5858 14.25 17 14.25L19 14.25C19.4142 14.25 19.75 14.5858 19.75 15C19.75 15.4142 19.4142 15.75 19 15.75L17 15.75C16.5858 15.75 16.25 15.4142 16.25 15Z" fill="white"/>
<path opacity="0.7" fill-rule="evenodd" clip-rule="evenodd" d="M16.25 15C16.25 14.5858 16.5858 14.25 17 14.25L19 14.25C19.4142 14.25 19.75 14.5858 19.75 15C19.75 15.4142 19.4142 15.75 19 15.75L17 15.75C16.5858 15.75 16.25 15.4142 16.25 15Z" fill="#6367F0"/>
<path d="M22.4667 15.4L19.8 17.4C19.4704 17.6472 19 17.412 19 17V13C19 12.588 19.4704 12.3528 19.8 12.6L22.4667 14.6C22.7333 14.8 22.7333 15.2 22.4667 15.4Z" fill="#6367F0"/>
<path fill-rule="evenodd" clip-rule="evenodd" d="M14.25 20C14.25 19.5858 14.5858 19.25 15 19.25L17 19.25C17.4142 19.25 17.75 19.5858 17.75 20C17.75 20.4142 17.4142 20.75 17 20.75L15 20.75C14.5858 20.75 14.25 20.4142 14.25 20Z" fill="white"/>
<path opacity="0.7" fill-rule="evenodd" clip-rule="evenodd" d="M14.25 20C14.25 19.5858 14.5858 19.25 15 19.25L17 19.25C17.4142 19.25 17.75 19.5858 17.75 20C17.75 20.4142 17.4142 20.75 17 20.75L15 20.75C14.5858 20.75 14.25 20.4142 14.25 20Z" fill="#6367F0"/>
<path d="M20.4667 20.4L17.8 22.4C17.4704 22.6472 17 22.412 17 22V18C17 17.588 17.4704 17.3528 17.8 17.6L20.4667 19.6C20.7333 19.8 20.7333 20.2 20.4667 20.4Z" fill="#6367F0"/>
</svg>
