<svg width="24" height="24" viewBox="0 0 24 24" fill="none" xmlns="http://www.w3.org/2000/svg">
<path d="M21.75 20.1568C21.75 20.9941 20.9428 21.5947 20.1408 21.3541L16.8589 20.3695L17.1708 20.9934C17.3561 21.3639 17.2059 21.8144 16.8354 21.9996C16.4649 22.1849 16.0144 22.0347 15.8292 21.6642L15.0365 20.0788H14.5C13.8096 20.0788 13.25 19.5192 13.25 18.8288V16.3288C13.25 15.6384 13.8096 15.0788 14.5 15.0788L15.8899 15.0788L20.1408 13.8035C20.9428 13.5629 21.75 14.1635 21.75 15.0008V20.1568Z" fill="white"/>
<path opacity="0.7" d="M21.75 20.1568C21.75 20.9941 20.9428 21.5947 20.1408 21.3541L16.8589 20.3695L17.1708 20.9934C17.3561 21.3639 17.2059 21.8144 16.8354 21.9996C16.4649 22.1849 16.0144 22.0347 15.8292 21.6642L15.0365 20.0788H14.5C13.8096 20.0788 13.25 19.5192 13.25 18.8288V16.3288C13.25 15.6384 13.8096 15.0788 14.5 15.0788L15.8899 15.0788L20.1408 13.8035C20.9428 13.5629 21.75 14.1635 21.75 15.0008V20.1568Z" fill="#FA9D3B"/>
<path fill-rule="evenodd" clip-rule="evenodd" d="M7.12341 6.99998C7.12341 4.51471 9.13815 2.5 11.6235 2.5C14.1088 2.5 16.1235 4.51471 16.1235 6.99998V9.49997C16.1235 10.965 15.4232 12.2659 14.3408 13.0871C14.2079 13.188 14.1234 13.3423 14.1234 13.5091V13.6044C12.7828 13.788 11.75 14.9378 11.75 16.3288V18.8288C11.75 20.1214 12.6418 21.2057 13.8437 21.5H4.24662C3.60687 21.5 3.13165 20.9076 3.27044 20.2831L3.67705 18.4533C3.99958 17.0019 5.01819 15.8036 6.39865 15.2514L8.80901 14.2872C8.99884 14.2113 9.12332 14.0275 9.12332 13.823L9.12332 13.509C9.12332 13.3422 9.03888 13.1879 8.90596 13.087C7.82361 12.2658 7.12341 10.9649 7.12341 9.49997V6.99998Z" fill="#FA9D3B"/>
</svg>
