<svg width="24" height="24" viewBox="0 0 24 24" fill="none" xmlns="http://www.w3.org/2000/svg">
<path d="M21.0914 20.0148C21.5577 20.1184 22 19.7636 22 19.2859V12.1758C22 11.6981 21.5577 11.3433 21.0914 11.4469L13.8729 13.051L13.8318 13.0601H11.6615C11.2491 13.0601 10.9148 13.3944 10.9148 13.8067V17.6549C10.9148 18.0672 11.2491 18.4015 11.6615 18.4015H13.1145L13.752 20.7806C13.8587 21.1789 14.2681 21.4153 14.6664 21.3086L15.6096 21.0559C16.0079 20.9491 16.2443 20.5397 16.1375 20.1414L15.7878 18.8362L21.0914 20.0148Z" fill="white"/>
<path opacity="0.7" d="M21.0914 20.0148C21.5577 20.1184 22 19.7636 22 19.2859V12.1758C22 11.6981 21.5577 11.3433 21.0914 11.4469L13.8729 13.051L13.8318 13.0601H11.6615C11.2491 13.0601 10.9148 13.3944 10.9148 13.8067V17.6549C10.9148 18.0672 11.2491 18.4015 11.6615 18.4015H13.1145L13.752 20.7806C13.8587 21.1789 14.2681 21.4153 14.6664 21.3086L15.6096 21.0559C16.0079 20.9491 16.2443 20.5397 16.1375 20.1414L15.7878 18.8362L21.0914 20.0148Z" fill="#03C160"/>
<path fill-rule="evenodd" clip-rule="evenodd" d="M9.43773 17.8517C9.43211 17.7871 9.42923 17.7217 9.42923 17.6556V13.8074C9.42923 12.5745 10.4287 11.575 11.6617 11.575H13.6689L17.9167 10.6311C17.9184 10.567 17.9193 10.5028 17.9193 10.4384C17.9193 6.33548 14.3556 3.0094 9.95964 3.0094C5.56365 3.0094 2 6.33548 2 10.4384C2 12.3371 2.76318 14.0695 4.01885 15.3828L3.31173 17.8577C3.19717 18.2586 3.59908 18.613 3.98253 18.4492L6.7836 17.2524C7.60542 17.5866 8.49942 17.795 9.43773 17.8517ZM6.74045 9.44785C7.42427 9.44785 7.97862 8.8935 7.97862 8.20968C7.97862 7.52586 7.42427 6.97151 6.74045 6.97151C6.05663 6.97151 5.50229 7.52586 5.50229 8.20968C5.50229 8.8935 6.05663 9.44785 6.74045 9.44785ZM14.4171 8.20968C14.4171 8.8935 13.8627 9.44785 13.1789 9.44785C12.4951 9.44785 11.9408 8.8935 11.9408 8.20968C11.9408 7.52586 12.4951 6.97151 13.1789 6.97151C13.8627 6.97151 14.4171 7.52586 14.4171 8.20968Z" fill="#03C160"/>
</svg>
