<svg width="24" height="24" viewBox="0 0 24 24" fill="none" xmlns="http://www.w3.org/2000/svg">
<path fill-rule="evenodd" clip-rule="evenodd" d="M2 18.0001C2 19.1047 2.89543 20.0001 4 20.0001H6.6C7.15228 20.0001 7.6 19.5524 7.6 19.0001C7.6 18.4478 7.15228 18.0001 6.6 18.0001H4V15.5001C4 14.9478 3.55228 14.5001 3 14.5001C2.44772 14.5001 2 14.9478 2 15.5001V18.0001ZM16.4 19.0001C16.4 19.5524 16.8477 20.0001 17.4 20.0001H20C21.1046 20.0001 22 19.1047 22 18.0001V15.5001C22 14.9478 21.5523 14.5001 21 14.5001C20.4477 14.5001 20 14.9478 20 15.5001V18.0001H17.4C16.8477 18.0001 16.4 18.4478 16.4 19.0001ZM3 9.50012C3.55228 9.50012 4 9.05241 4 8.50012V6.00012H6.6C7.15228 6.00012 7.6 5.55241 7.6 5.00012C7.6 4.44784 7.15228 4.00012 6.6 4.00012H4C2.89543 4.00012 2 4.89555 2 6.00012V8.50012C2 9.05241 2.44772 9.50012 3 9.50012ZM21 9.50012C21.5523 9.50012 22 9.05241 22 8.50012V6.00012C22 4.89555 21.1046 4.00012 20 4.00012H17.4C16.8477 4.00012 16.4 4.44784 16.4 5.00012C16.4 5.55241 16.8477 6.00012 17.4 6.00012H20V8.50012C20 9.05241 20.4477 9.50012 21 9.50012Z" fill="#03C160"/>
<path fill-rule="evenodd" clip-rule="evenodd" d="M16.7071 8.79289C17.0976 9.18342 17.0976 9.81658 16.7071 10.2071L12.0607 14.8536C11.4749 15.4393 10.5251 15.4393 9.93934 14.8536L7.29289 12.2071C6.90237 11.8166 6.90237 11.1834 7.29289 10.7929C7.68342 10.4024 8.31658 10.4024 8.70711 10.7929L11 13.0858L15.2929 8.79289C15.6834 8.40237 16.3166 8.40237 16.7071 8.79289Z" fill="white"/>
<path opacity="0.7" fill-rule="evenodd" clip-rule="evenodd" d="M16.7071 8.79289C17.0976 9.18342 17.0976 9.81658 16.7071 10.2071L12.0607 14.8536C11.4749 15.4393 10.5251 15.4393 9.93934 14.8536L7.29289 12.2071C6.90237 11.8166 6.90237 11.1834 7.29289 10.7929C7.68342 10.4024 8.31658 10.4024 8.70711 10.7929L11 13.0858L15.2929 8.79289C15.6834 8.40237 16.3166 8.40237 16.7071 8.79289Z" fill="#03C160"/>
</svg>
