<svg width="24" height="24" viewBox="0 0 24 24" fill="none" xmlns="http://www.w3.org/2000/svg">
<path d="M5 4.5C5 3.67157 5.67157 3 6.5 3H19.5C20.3284 3 21 3.67157 21 4.5V17.5C21 18.3284 20.3284 19 19.5 19H6.5C5.67157 19 5 18.3284 5 17.5V4.5Z" fill="#208BF1"/>
<path d="M3 6.5C3 5.67157 3.67157 5 4.5 5H17.5C18.3284 5 19 5.67157 19 6.5V19.5C19 20.3284 18.3284 21 17.5 21H4.5C3.67157 21 3 20.3284 3 19.5V6.5Z" fill="white"/>
<path opacity="0.7" d="M3 6.5C3 5.67157 3.67157 5 4.5 5H17.5C18.3284 5 19 5.67157 19 6.5V19.5C19 20.3284 18.3284 21 17.5 21H4.5C3.67157 21 3 20.3284 3 19.5V6.5Z" fill="#208BF1"/>
<path fill-rule="evenodd" clip-rule="evenodd" d="M6.25 10.8C6.25 10.3858 6.58579 10.05 7 10.05H14C14.4142 10.05 14.75 10.3858 14.75 10.8C14.75 11.2142 14.4142 11.55 14 11.55H7C6.58579 11.55 6.25 11.2142 6.25 10.8Z" fill="white"/>
<path fill-rule="evenodd" clip-rule="evenodd" d="M6.25 15C6.25 14.5858 6.58579 14.25 7 14.25H11C11.4142 14.25 11.75 14.5858 11.75 15C11.75 15.4142 11.4142 15.75 11 15.75H7C6.58579 15.75 6.25 15.4142 6.25 15Z" fill="white"/>
</svg>
