<svg width="24" height="24" viewBox="0 0 24 24" fill="none" xmlns="http://www.w3.org/2000/svg">
<path d="M20 3.5C20 2.67157 19.3284 2 18.5 2H6C4.89543 2 4 2.89543 4 4V20C4 21.1046 4.89543 22 6 22H18.5C19.3284 22 20 21.3284 20 20.5V3.5Z" fill="#03C160"/>
<path d="M20 18H6C4.89543 18 4 18.8954 4 20Lnan nanL4 20C4 21.1046 4.89543 22 6 22H18.7C19.418 22 20 21.418 20 20.7V18Z" fill="white"/>
<path opacity="0.7" d="M20 18H6C4.89543 18 4 18.8954 4 20Lnan nanL4 20C4 21.1046 4.89543 22 6 22H18.7C19.418 22 20 21.418 20 20.7V18Z" fill="#03C160"/>
<path fill-rule="evenodd" clip-rule="evenodd" d="M9 7.68949V1.99996H7.5V9.0419C7.5 9.75462 8.32444 10.1509 8.88099 9.70564L10.75 8.21043L12.619 9.70564C13.1756 10.1509 14 9.75463 14 9.0419V1.99996H12.5V7.68949L11.281 6.71428C10.9706 6.46593 10.5294 6.46594 10.219 6.71428L9 7.68949Z" fill="white"/>
</svg>
