<svg width="24" height="24" viewBox="0 0 24 24" fill="none" xmlns="http://www.w3.org/2000/svg">
<path d="M20.0554 4.44238C20.0245 3.63697 19.3625 3 18.5565 3L5.44342 3C4.63741 3 3.97549 3.63697 3.94453 4.44238L3.36795 19.4424C3.33526 20.2928 4.01582 21 4.86684 21H19.1331C19.9841 21 20.6647 20.2928 20.632 19.4424L20.0554 4.44238Z" fill="#03C160"/>
<path d="M18.6528 3C19.4051 3 20.0229 3.59451 20.0518 4.34623L20.1404 6.65007C20.1687 7.38708 19.5789 8 18.8413 8H5.15878C4.42123 8 3.83141 7.38708 3.85974 6.65007L3.9483 4.34622C3.9772 3.5945 4.59499 3 5.34727 3H18.6528Z" fill="white"/>
<path opacity="0.7" d="M18.6528 3C19.4051 3 20.0229 3.59451 20.0518 4.34623L20.1404 6.65007C20.1687 7.38708 19.5789 8 18.8413 8H5.15878C4.42123 8 3.83141 7.38708 3.85974 6.65007L3.9483 4.34622C3.9772 3.5945 4.59499 3 5.34727 3H18.6528Z" fill="#03C160"/>
<path d="M7 6.8C7 6.08203 7.58203 5.5 8.3 5.5H15.7C16.418 5.5 17 6.08203 17 6.8V8H7V6.8Z" fill="white"/>
<path fill-rule="evenodd" clip-rule="evenodd" d="M9 11.25C9.41421 11.25 9.75 11.5858 9.75 12V13C9.75 14.2426 10.7574 15.25 12 15.25C13.2426 15.25 14.25 14.2426 14.25 13V12C14.25 11.5858 14.5858 11.25 15 11.25C15.4142 11.25 15.75 11.5858 15.75 12V13C15.75 15.0711 14.0711 16.75 12 16.75C9.92893 16.75 8.25 15.0711 8.25 13V12C8.25 11.5858 8.58579 11.25 9 11.25Z" fill="white"/>
</svg>
