<svg width="24" height="24" viewBox="0 0 24 24" fill="none" xmlns="http://www.w3.org/2000/svg">
<path d="M20 3.49997C20 2.67154 19.3284 1.99997 18.5 1.99997H5.5C4.67157 1.99997 4 2.67154 4 3.49997V20.5C4 21.3284 4.67157 22 5.5 22H18.5C19.3284 22 20 21.3284 20 20.5V3.49997Z" fill="#FF6045"/>
<path d="M4 8.00017V3.49997C4 2.67154 4.67157 1.99997 5.5 1.99997H18.5C19.3284 1.99997 20 2.67154 20 3.49997V8C17.8282 9.78268 15.0404 11 12 11C8.95966 11 6.17175 9.78275 4 8.00017Z" fill="white"/>
<path opacity="0.7" d="M4 8.00017V3.49997C4 2.67154 4.67157 1.99997 5.5 1.99997H18.5C19.3284 1.99997 20 2.67154 20 3.49997V8C17.8282 9.78268 15.0404 11 12 11C8.95966 11 6.17175 9.78275 4 8.00017Z" fill="#FF6045"/>
<path d="M14 11C14 12.1046 13.1046 13 12 13C10.8954 13 10 12.1046 10 11C10 9.89543 10.8954 9 12 9C13.1046 9 14 9.89543 14 11Z" fill="white"/>
</svg>
