<svg width="24" height="24" viewBox="0 0 24 24" fill="none" xmlns="http://www.w3.org/2000/svg">
<path fill-rule="evenodd" clip-rule="evenodd" d="M11.6229 2.50049C9.13778 2.50049 7.12317 4.51507 7.12317 7.00019V9.50002C7.12317 10.9648 7.82332 12.2657 8.90561 13.0869C9.03852 13.1877 9.12296 13.342 9.12295 13.5088L9.12295 13.8228C9.12295 14.0272 8.99848 14.2111 8.80866 14.287L6.39845 15.2511C5.01808 15.8032 3.99954 17.0015 3.67702 18.4528L3.27043 20.2824C3.13166 20.9069 3.60685 21.4993 4.24656 21.4993H11.5569C11.6913 19.8065 12.0758 18.109 13.108 16.7542C13.7726 15.882 14.6002 15.2035 15.5657 14.7385L14.437 14.287C14.2472 14.2111 14.1227 14.0272 14.1227 13.8228V13.509C14.1227 13.3421 14.2072 13.1878 14.3401 13.087C15.4225 12.2658 16.1227 10.9649 16.1227 9.50002V7.00019C16.1227 4.51507 14.1081 2.50049 11.6229 2.50049Z" fill="#00C777"/>
<path fill-rule="evenodd" clip-rule="evenodd" d="M13.6555 22.0453C13.492 22.2724 13.0159 22.1558 13.0337 21.8766C13.141 20.195 13.4798 18.7413 14.3011 17.6633C15.2681 16.3941 16.6786 15.6323 18.5077 15.5175C18.6424 15.509 18.75 15.3988 18.75 15.2638L18.75 13.9098C18.75 13.4501 19.3183 13.234 19.6237 13.5776L23.0302 17.41C23.2061 17.6079 23.1973 17.9085 23.0101 18.0957L19.6036 21.5023C19.2886 21.8172 18.75 21.5942 18.75 21.1487L18.75 19.7615C18.75 19.621 18.6343 19.5078 18.494 19.5149C17.2557 19.5784 16.2242 19.8808 15.3872 20.43C14.7715 20.8341 14.149 21.3599 13.6555 22.0453Z" fill="white"/>
<path opacity="0.7" fill-rule="evenodd" clip-rule="evenodd" d="M13.6555 22.0453C13.492 22.2724 13.0159 22.1558 13.0337 21.8766C13.141 20.195 13.4798 18.7413 14.3011 17.6633C15.2681 16.3941 16.6786 15.6323 18.5077 15.5175C18.6424 15.509 18.75 15.3988 18.75 15.2638L18.75 13.9098C18.75 13.4501 19.3183 13.234 19.6237 13.5776L23.0302 17.41C23.2061 17.6079 23.1973 17.9085 23.0101 18.0957L19.6036 21.5023C19.2886 21.8172 18.75 21.5942 18.75 21.1487L18.75 19.7615C18.75 19.621 18.6343 19.5078 18.494 19.5149C17.2557 19.5784 16.2242 19.8808 15.3872 20.43C14.7715 20.8341 14.149 21.3599 13.6555 22.0453Z" fill="#00C777"/>
</svg>
