<svg width="24" height="24" viewBox="0 0 24 24" fill="none" xmlns="http://www.w3.org/2000/svg">
<path d="M20.5 19.5C20.5 20.3284 19.8284 21 19 21H5C4.17157 21 3.5 20.3284 3.5 19.5V8H20.5V19.5Z" fill="#208BF1"/>
<path fill-rule="evenodd" clip-rule="evenodd" d="M8.25 13C8.25 12.5858 8.58579 12.25 9 12.25H15C15.4142 12.25 15.75 12.5858 15.75 13C15.75 13.4142 15.4142 13.75 15 13.75H9C8.58579 13.75 8.25 13.4142 8.25 13Z" fill="white"/>
<path fill-rule="evenodd" clip-rule="evenodd" d="M8.25 16.5C8.25 16.0858 8.58579 15.75 9 15.75H13C13.4142 15.75 13.75 16.0858 13.75 16.5C13.75 16.9142 13.4142 17.25 13 17.25H9C8.58579 17.25 8.25 16.9142 8.25 16.5Z" fill="white"/>
<path d="M22.0001 4.5C22.0001 3.67157 21.3285 3 20.5001 3H3.50012C2.67169 3 2.00012 3.67157 2.00012 4.5V7.5C2.00012 8.32843 2.67169 9 3.50012 9H20.5001C21.3285 9 22.0001 8.32843 22.0001 7.5V4.5Z" fill="#208BF1"/>
<path d="M22.0001 4.5C22.0001 3.67157 21.3285 3 20.5001 3H3.50012C2.67169 3 2.00012 3.67157 2.00012 4.5V7.5C2.00012 8.32843 2.67169 9 3.50012 9H20.5001C21.3285 9 22.0001 8.32843 22.0001 7.5V4.5Z" fill="white" fill-opacity="0.3"/>
</svg>
