<svg width="24" height="24" viewBox="0 0 24 24" fill="none" xmlns="http://www.w3.org/2000/svg">
<path fill-rule="evenodd" clip-rule="evenodd" d="M16.0708 3H7.92908L7.92909 3.00006H4.29057C3.71779 3.00006 3.20927 3.36658 3.02814 3.90997L2.15617 6.52589C1.50897 8.46747 2.95413 10.4725 5.00074 10.4725H5.65544C6.98402 10.4725 8.167 9.7188 8.74811 8.57735L8.74812 8.57709L8.74814 8.57723C10.1676 11.1247 13.8322 11.1247 15.2518 8.57745L15.2518 8.57752C15.833 9.71887 17.0159 10.4725 18.3444 10.4725H18.9991C21.0457 10.4725 22.4909 8.46747 21.8437 6.52589L20.9717 3.90997C20.7906 3.36658 20.2821 3.00006 19.7093 3.00006H16.0708L16.0708 3Z" fill="white"/>
<path opacity="0.7" fill-rule="evenodd" clip-rule="evenodd" d="M16.0708 3H7.92908L7.92909 3.00006H4.29057C3.71779 3.00006 3.20927 3.36658 3.02814 3.90997L2.15617 6.52589C1.50897 8.46747 2.95413 10.4725 5.00074 10.4725H5.65544C6.98402 10.4725 8.167 9.7188 8.74811 8.57735L8.74812 8.57709L8.74814 8.57723C10.1676 11.1247 13.8322 11.1247 15.2518 8.57745L15.2518 8.57752C15.833 9.71887 17.0159 10.4725 18.3444 10.4725H18.9991C21.0457 10.4725 22.4909 8.46747 21.8437 6.52589L20.9717 3.90997C20.7906 3.36658 20.2821 3.00006 19.7093 3.00006H16.0708L16.0708 3Z" fill="#6367F0"/>
<path d="M3.5 11.1838V19.5C3.5 20.3284 4.17157 21 5 21L19 21C19.8284 21 20.5 20.3284 20.5 19.5V11.1837C20.0407 11.3693 19.5354 11.4725 18.9991 11.4725H18.3444C17.1498 11.4725 16.0471 10.9996 15.2354 10.2143C13.44 11.9124 10.5598 11.9124 8.76453 10.2141C7.95282 10.9995 6.85004 11.4725 5.65535 11.4725H5.00066C4.46445 11.4725 3.95921 11.3693 3.5 11.1838Z" fill="#6367F0"/>
<path fill-rule="evenodd" clip-rule="evenodd" d="M12.75 12.5C13.109 12.5 13.4 12.791 13.4 13.15C13.4 13.6195 13.7805 14 14.25 14C14.609 14 14.9 14.291 14.9 14.65C14.9 15.009 14.609 15.3 14.25 15.3C13.9481 15.3 13.6607 15.2378 13.4 15.1255V17.15C13.4 18.3374 12.4374 19.3 11.25 19.3C10.0626 19.3 9.09998 18.3374 9.09998 17.15C9.09998 15.9626 10.0626 15 11.25 15C11.609 15 11.9 15.291 11.9 15.65C11.9 16.009 11.609 16.3 11.25 16.3C10.7805 16.3 10.4 16.6806 10.4 17.15C10.4 17.6195 10.7805 18 11.25 18C11.7194 18 12.1 17.6195 12.1 17.15V13.15C12.1 12.791 12.391 12.5 12.75 12.5Z" fill="white"/>
</svg>
