<svg xmlns="http://www.w3.org/2000/svg" width="24" height="24" viewBox="0 0 24 24" fill="none" stroke="#D1D3DB" stroke-width="2" stroke-linecap="butt" stroke-linejoin="miter"><path fill="#D1D3DB" stroke="none" d="M17.05 12.04c-.03-3.04 2.49-4.5 2.6-4.57-1.42-2.07-3.62-2.36-4.4-2.39-1.87-.19-3.65 1.1-4.6 1.1-.96 0-2.42-1.08-3.98-1.05-2.05.03-3.94 1.19-4.99 3.02-2.13 3.69-.54 9.13 1.53 12.12 1.01 1.46 2.21 3.1 3.78 3.04 1.52-.06 2.09-.98 3.93-.98 1.83 0 2.36.98 3.97.95 1.64-.03 2.68-1.49 3.68-2.96 1.16-1.7 1.64-3.35 1.66-3.43-.04-.02-3.18-1.22-3.21-4.85zM14.06 4.34c.83-1.01 1.39-2.41 1.24-3.81-1.2.05-2.65.8-3.51 1.8-.77.89-1.45 2.31-1.27 3.68 1.34.1 2.71-.68 3.54-1.67z"/></svg>
