<svg width="24" height="24" viewBox="0 0 24 24" fill="none" xmlns="http://www.w3.org/2000/svg">
<path fill-rule="evenodd" clip-rule="evenodd" d="M12.6359 10.9662C13.1599 10.7916 13.7262 11.0747 13.9009 11.5987L15.3051 15.8114C15.4798 16.3354 15.1966 16.9017 14.6727 17.0763C14.1487 17.251 13.5824 16.9678 13.4077 16.4439L12.0035 12.2311C11.8288 11.7072 12.112 11.1408 12.6359 10.9662Z" fill="#208BF1"/>
<path fill-rule="evenodd" clip-rule="evenodd" d="M1.18616 11.9149C1.18616 11.3626 1.63387 10.9149 2.18616 10.9149H5.93084C6.48312 10.9149 6.93084 11.3626 6.93084 11.9149C6.93084 12.4672 6.48312 12.9149 5.93084 12.9149H2.18616C1.63387 12.9149 1.18616 12.4672 1.18616 11.9149Z" fill="white"/>
<path opacity="0.7" fill-rule="evenodd" clip-rule="evenodd" d="M1.18616 11.9149C1.18616 11.3626 1.63387 10.9149 2.18616 10.9149H5.93084C6.48312 10.9149 6.93084 11.3626 6.93084 11.9149C6.93084 12.4672 6.48312 12.9149 5.93084 12.9149H2.18616C1.63387 12.9149 1.18616 12.4672 1.18616 11.9149Z" fill="#208BF1"/>
<path fill-rule="evenodd" clip-rule="evenodd" d="M1.18616 7.70212C1.18616 7.14983 1.63387 6.70212 2.18616 6.70212H6.39892C6.95121 6.70212 7.39892 7.14983 7.39892 7.70212C7.39892 8.2544 6.95121 8.70212 6.39892 8.70212H3.18616V15.1277H6.39892C6.95121 15.1277 7.39892 15.5754 7.39892 16.1277C7.39892 16.6799 6.95121 17.1277 6.39892 17.1277H2.18616C1.63387 17.1277 1.18616 16.6799 1.18616 16.1277V7.70212ZM16.633 7.70212C16.633 7.14983 17.0807 6.70212 17.633 6.70212H20.2074C21.923 6.70212 23.3138 8.09289 23.3138 9.8085C23.3138 11.5241 21.923 12.9149 20.2074 12.9149H18.633V16.1277C18.633 16.6799 18.1852 17.1277 17.633 17.1277C17.0807 17.1277 16.633 16.6799 16.633 16.1277V11.9149V7.70212ZM18.633 10.9149H20.2074C20.8185 10.9149 21.3138 10.4195 21.3138 9.8085C21.3138 9.19746 20.8185 8.70212 20.2074 8.70212H18.633V10.9149ZM9.67552 6.70212C9.12323 6.70212 8.67552 7.14983 8.67552 7.70212V11.9149V16.1277C8.67552 16.6799 9.12323 17.1277 9.67552 17.1277C10.2278 17.1277 10.6755 16.6799 10.6755 16.1277V12.9149H12.25C13.9656 12.9149 15.3564 11.5241 15.3564 9.8085C15.3564 8.09289 13.9656 6.70212 12.25 6.70212H9.67552ZM10.6755 8.70212V10.9149H12.25C12.861 10.9149 13.3564 10.4195 13.3564 9.8085C13.3564 9.19746 12.861 8.70212 12.25 8.70212H10.6755Z" fill="#208BF1"/>
</svg>
