<svg width="24" height="24" viewBox="0 0 24 24" fill="none" xmlns="http://www.w3.org/2000/svg">
<path fill-rule="evenodd" clip-rule="evenodd" d="M12 17.25C12.4142 17.25 12.75 17.5858 12.75 18V20.25H15.5C15.9142 20.25 16.25 20.5858 16.25 21C16.25 21.4142 15.9142 21.75 15.5 21.75H8.5C8.08579 21.75 7.75 21.4142 7.75 21C7.75 20.5858 8.08579 20.25 8.5 20.25H11.25V18C11.25 17.5858 11.5858 17.25 12 17.25Z" fill="#208BF1"/>
<path d="M21 4.5C21 3.67157 20.3284 3 19.5 3H4.5C3.67157 3 3 3.67157 3 4.5V16.5C3 17.3284 3.67157 18 4.5 18H19.5C20.3284 18 21 17.3284 21 16.5V4.5Z" fill="#208BF1"/>
<path d="M21 15H3L3 16.5C3 17.3284 3.67157 18 4.5 18H19.5C20.3284 18 21 17.3284 21 16.5V15Z" fill="white"/>
<g opacity="0.7">
<path d="M21 15H3L3 16.5C3 17.3284 3.67157 18 4.5 18H19.5C20.3284 18 21 17.3284 21 16.5V15Z" fill="white"/>
<path d="M21 15H3L3 16.5C3 17.3284 3.67157 18 4.5 18H19.5C20.3284 18 21 17.3284 21 16.5V15Z" fill="#208BF1"/>
</g>
</svg>
