<svg width="24" height="24" viewBox="0 0 24 24" fill="none" xmlns="http://www.w3.org/2000/svg">
<path fill-rule="evenodd" clip-rule="evenodd" d="M10.1565 10.013C9.92939 9.90127 9.83578 9.62658 9.94748 9.39943C11.8462 5.53777 16.516 3.94654 20.3776 5.84531C20.8917 6.09806 21.3659 6.40022 21.7973 6.74338C21.9953 6.90098 22.0282 7.18932 21.8706 7.3874C21.713 7.58549 21.4246 7.61831 21.2265 7.4607C20.8464 7.15824 20.4278 6.89146 19.9732 6.66791C16.5658 4.99253 12.4455 6.39656 10.7701 9.8039C10.6584 10.0311 10.3837 10.1247 10.1565 10.013Z" fill="white"/>
<path fill-rule="evenodd" clip-rule="evenodd" d="M11.8018 10.8216C11.5746 10.7099 11.481 10.4352 11.5927 10.208C13.0447 7.25499 16.6157 6.03816 19.5688 7.49016C19.7959 7.60185 19.8895 7.87655 19.7778 8.1037C19.6661 8.33086 19.3914 8.42446 19.1643 8.31277C16.6656 7.08415 13.644 8.11378 12.4153 10.6125C12.3037 10.8397 12.029 10.9333 11.8018 10.8216Z" fill="white"/>
<path opacity="0.3" fill-rule="evenodd" clip-rule="evenodd" d="M10.1564 10.0129C9.92926 9.90124 9.83566 9.62655 9.94735 9.3994C11.8461 5.53774 16.5159 3.94651 20.3775 5.84527C20.8916 6.09803 21.3658 6.40019 21.7971 6.74335C21.9952 6.90095 22.028 7.18929 21.8704 7.38737C21.7128 7.58546 21.4245 7.61827 21.2264 7.46067C20.8462 7.15821 20.4277 6.89143 19.9731 6.66788C16.5657 4.9925 12.4453 6.39653 10.77 9.80387C10.6583 10.031 10.3836 10.1246 10.1564 10.0129Z" fill="#FF6045"/>
<path opacity="0.3" fill-rule="evenodd" clip-rule="evenodd" d="M11.8018 10.8215C11.5746 10.7098 11.481 10.4351 11.5927 10.208C13.0447 7.25496 16.6157 6.03813 19.5688 7.49013C19.7959 7.60182 19.8895 7.87652 19.7778 8.10367C19.6661 8.33083 19.3914 8.42443 19.1643 8.31274C16.6656 7.08412 13.644 8.11375 12.4153 10.6125C12.3037 10.8396 12.029 10.9332 11.8018 10.8215Z" fill="#FF6045"/>
<path fill-rule="evenodd" clip-rule="evenodd" d="M10.9791 10.4172C10.7519 10.3055 10.6583 10.0308 10.77 9.80369C12.4454 6.39635 16.5657 4.99232 19.9731 6.6677C20.6995 7.02488 21.3356 7.49378 21.8703 8.04379C22.0467 8.22529 22.0426 8.51546 21.8611 8.69191C21.6796 8.86835 21.3895 8.86424 21.213 8.68274C20.7505 8.20691 20.1995 7.80054 19.5686 7.49031C16.6156 6.03831 13.0446 7.25514 11.5926 10.2082C11.4809 10.4353 11.2062 10.5289 10.9791 10.4172Z" fill="#FF6045"/>
<path d="M10.2825 4.71867C9.88681 5.01394 9.37118 5.09561 8.90364 4.93706L5.78703 3.88019C4.60963 3.48092 3.4855 4.60506 3.88477 5.78245L4.94164 8.89905C5.10019 9.3666 5.01852 9.88222 4.72325 10.2779L2.75502 12.9154C2.01146 13.9118 2.7332 15.3282 3.97636 15.3124L7.26701 15.2703C7.76067 15.264 8.22582 15.501 8.51088 15.9041L10.4111 18.591C11.1289 19.6061 12.6991 19.3574 13.0681 18.1702L14.045 15.0276C14.1916 14.5561 14.5607 14.187 15.0321 14.0404L18.1747 13.0636C19.362 12.6945 19.6107 11.1243 18.5956 10.4065L15.9087 8.5063C15.5056 8.22124 15.2686 7.75609 15.2749 7.26243L15.3169 3.97177C15.3328 2.72862 13.9163 2.00689 12.9199 2.75045L10.2825 4.71867Z" fill="#FF6045"/>
<path fill-rule="evenodd" clip-rule="evenodd" d="M16.1744 16.1696C16.5063 15.8376 17.0445 15.8376 17.3765 16.1696L21.0431 19.8362C21.3751 20.1682 21.3751 20.7064 21.0431 21.0383C20.7112 21.3702 20.173 21.3702 19.841 21.0383L16.1744 17.3716C15.8424 17.0397 15.8424 16.5015 16.1744 16.1696Z" fill="#FF6045"/>
<path d="M5.51084 19.1334L5.98776 18.1795C6.08911 17.9768 6.37835 17.9768 6.4797 18.1795L6.95663 19.1334C6.98324 19.1866 7.02639 19.2297 7.07961 19.2564L8.03346 19.7333C8.23615 19.8346 8.23615 20.1239 8.03346 20.2252L7.07961 20.7021C7.02639 20.7287 6.98324 20.7719 6.95663 20.8251L6.4797 21.779C6.37835 21.9817 6.08911 21.9817 5.98776 21.779L5.51084 20.8251C5.48423 20.7719 5.44107 20.7287 5.38785 20.7021L4.434 20.2252C4.23131 20.1239 4.23131 19.8346 4.434 19.7333L5.38785 19.2564C5.44107 19.2297 5.48423 19.1866 5.51084 19.1334Z" fill="white"/>
<path opacity="0.7" d="M5.51084 19.1333L5.98776 18.1795C6.08911 17.9768 6.37835 17.9768 6.4797 18.1795L6.95663 19.1333C6.98324 19.1866 7.02639 19.2297 7.07961 19.2563L8.03346 19.7332C8.23615 19.8346 8.23615 20.1238 8.03346 20.2252L7.07961 20.7021C7.02639 20.7287 6.98324 20.7719 6.95663 20.8251L6.4797 21.7789C6.37835 21.9816 6.08911 21.9816 5.98776 21.7789L5.51084 20.8251C5.48423 20.7719 5.44107 20.7287 5.38785 20.7021L4.434 20.2252C4.23131 20.1238 4.23131 19.8346 4.434 19.7332L5.38785 19.2563C5.44107 19.2297 5.48423 19.1866 5.51084 19.1333Z" fill="#FF6045"/>
</svg>
