<svg width="24" height="24" viewBox="0 0 24 24" fill="none" xmlns="http://www.w3.org/2000/svg">
<path d="M4.29057 3.00007C3.71779 3.00007 3.20927 3.36659 3.02814 3.90997L2.15617 6.52589C1.50897 8.46748 2.95413 10.4725 5.00074 10.4725H5.65544C6.98402 10.4725 8.167 9.7188 8.74811 8.57735C10.1676 11.1248 13.8322 11.1247 15.2518 8.57741C15.833 9.71877 17.0159 10.4725 18.3444 10.4725H18.9991C21.0457 10.4725 22.4909 8.46747 21.8437 6.52589L20.9717 3.90997C20.7906 3.36658 20.2821 3.00006 19.7093 3.00006L4.29057 3.00007Z" fill="white"/>
<path opacity="0.7" d="M4.29057 3.00007C3.71779 3.00007 3.20927 3.36659 3.02814 3.90997L2.15617 6.52589C1.50897 8.46748 2.95413 10.4725 5.00074 10.4725H5.65544C6.98402 10.4725 8.167 9.7188 8.74811 8.57735C10.1676 11.1248 13.8322 11.1247 15.2518 8.57741C15.833 9.71877 17.0159 10.4725 18.3444 10.4725H18.9991C21.0457 10.4725 22.4909 8.46747 21.8437 6.52589L20.9717 3.90997C20.7906 3.36658 20.2821 3.00006 19.7093 3.00006L4.29057 3.00007Z" fill="#FA9D3B"/>
<path d="M3.5 11.1834V19.4996C3.5 20.328 4.17157 20.9996 5 20.9996L13.9993 20.9996C13.3718 20.164 13 19.1254 13 18C13 15.2386 15.2386 13 18 13C18.9107 13 19.7646 13.2435 20.5 13.6689V11.1833C20.0407 11.3689 19.5354 11.4721 18.9991 11.4721H18.3444C17.1498 11.4721 16.0471 10.9992 15.2354 10.2138C13.44 11.912 10.5598 11.912 8.76453 10.2137C7.95282 10.9991 6.85004 11.4721 5.65535 11.4721H5.00065C4.46445 11.4721 3.95921 11.3689 3.5 11.1834Z" fill="#FA9D3B"/>
<path d="M18.75 15.7143C18.75 15.3001 18.4142 14.9643 18 14.9643C17.5858 14.9643 17.25 15.3001 17.25 15.7143V17.1071H15.8572C15.443 17.1071 15.1072 17.4429 15.1072 17.8571C15.1072 18.2713 15.443 18.6071 15.8572 18.6071H17.25V20C17.25 20.4142 17.5858 20.75 18 20.75C18.4142 20.75 18.75 20.4142 18.75 20V18.6071H20.1429C20.5571 18.6071 20.8929 18.2713 20.8929 17.8571C20.8929 17.4429 20.5571 17.1071 20.1429 17.1071H18.75V15.7143Z" fill="#FA9D3B"/>
</svg>
