<svg width="24" height="24" viewBox="0 0 24 24" fill="none" xmlns="http://www.w3.org/2000/svg">
<path fill-rule="evenodd" clip-rule="evenodd" d="M1.50012 10.519C1.50012 6.31257 5.13997 2.97672 9.53533 2.97672C13.5584 2.97672 16.9485 5.77135 17.4939 9.47025C17.1497 9.41429 16.7963 9.38517 16.4367 9.38517C13.1469 9.38517 10.3734 11.823 10.3734 14.9556C10.3734 16.0385 10.7048 17.0385 11.2745 17.8834C10.7135 17.9999 10.1314 18.0612 9.53533 18.0612C8.34701 18.0612 7.21391 17.8174 6.19303 17.3784L3.58594 18.4924C3.20429 18.6554 2.80425 18.3027 2.91827 17.9036L3.58091 15.5844C2.29112 14.2516 1.50012 12.4799 1.50012 10.519ZM7.56341 8.30056C7.56341 8.9812 7.01164 9.53296 6.33101 9.53296C5.65038 9.53296 5.09862 8.9812 5.09862 8.30056C5.09862 7.61993 5.65038 7.06817 6.33101 7.06817C7.01164 7.06817 7.56341 7.61993 7.56341 8.30056ZM13.9719 8.30056C13.9719 8.9812 13.4201 9.53296 12.7395 9.53296C12.0588 9.53296 11.5071 8.9812 11.5071 8.30056C11.5071 7.61993 12.0588 7.06817 12.7395 7.06817C13.4201 7.06817 13.9719 7.61993 13.9719 8.30056Z" fill="#03C160"/>
<path fill-rule="evenodd" clip-rule="evenodd" d="M16.4367 9.38516C13.1468 9.38516 10.3733 11.823 10.3733 14.9556C10.3733 18.0882 13.1468 20.526 16.4367 20.526C17.3331 20.526 18.1912 20.345 18.9653 20.0183L20.6275 20.6668C21.0112 20.8164 21.3983 20.4576 21.2782 20.0637L20.8775 18.7498C21.8796 17.7634 22.5001 16.4372 22.5001 14.9556C22.5001 11.823 19.7265 9.38516 16.4367 9.38516ZM14.9577 13.9696C14.9577 14.5141 14.5163 14.9555 13.9718 14.9555C13.4273 14.9555 12.9859 14.5141 12.9859 13.9696C12.9859 13.4251 13.4273 12.9837 13.9718 12.9837C14.5163 12.9837 14.9577 13.4251 14.9577 13.9696ZM19.8873 13.9696C19.8873 14.5141 19.4459 14.9555 18.9014 14.9555C18.3569 14.9555 17.9154 14.5141 17.9154 13.9696C17.9154 13.4251 18.3569 12.9837 18.9014 12.9837C19.4459 12.9837 19.8873 13.4251 19.8873 13.9696Z" fill="white"/>
<path opacity="0.7" fill-rule="evenodd" clip-rule="evenodd" d="M16.4367 9.38516C13.1468 9.38516 10.3733 11.823 10.3733 14.9556C10.3733 18.0882 13.1468 20.526 16.4367 20.526C17.3331 20.526 18.1912 20.345 18.9653 20.0183L20.6275 20.6668C21.0112 20.8164 21.3983 20.4576 21.2782 20.0637L20.8775 18.7498C21.8796 17.7634 22.5001 16.4372 22.5001 14.9556C22.5001 11.823 19.7265 9.38516 16.4367 9.38516ZM14.9577 13.9696C14.9577 14.5141 14.5163 14.9555 13.9718 14.9555C13.4273 14.9555 12.9859 14.5141 12.9859 13.9696C12.9859 13.4251 13.4273 12.9837 13.9718 12.9837C14.5163 12.9837 14.9577 13.4251 14.9577 13.9696ZM19.8873 13.9696C19.8873 14.5141 19.4459 14.9555 18.9014 14.9555C18.3569 14.9555 17.9154 14.5141 17.9154 13.9696C17.9154 13.4251 18.3569 12.9837 18.9014 12.9837C19.4459 12.9837 19.8873 13.4251 19.8873 13.9696Z" fill="#03C160"/>
</svg>
