<svg width="24" height="24" viewBox="0 0 24 24" fill="none" xmlns="http://www.w3.org/2000/svg">
<path fill-rule="evenodd" clip-rule="evenodd" d="M11.4697 15.0303L8.46973 12.0303L9.53039 10.9697L12.5304 13.9697C12.8233 14.2626 12.8233 14.7374 12.5304 15.0303C12.2375 15.3232 11.7626 15.3232 11.4697 15.0303Z" fill="white"/>
<path opacity="0.7" fill-rule="evenodd" clip-rule="evenodd" d="M11.4697 15.0303L8.46973 12.0303L9.53039 10.9697L12.5304 13.9697C12.8233 14.2626 12.8233 14.7374 12.5304 15.0303C12.2375 15.3232 11.7626 15.3232 11.4697 15.0303Z" fill="#00C777"/>
<path fill-rule="evenodd" clip-rule="evenodd" d="M11.4697 13.9697L14.4697 10.9697L15.5303 12.0303L12.5303 15.0303C12.2374 15.3232 11.7626 15.3232 11.4697 15.0303C11.1768 14.7374 11.1768 14.2626 11.4697 13.9697Z" fill="#00C777"/>
<path fill-rule="evenodd" clip-rule="evenodd" d="M4.75 5C4.75 3.48122 5.98122 2.25 7.5 2.25C9.01878 2.25 10.25 3.48122 10.25 5C10.25 6.51878 9.01878 7.75 7.5 7.75C5.98122 7.75 4.75 6.51878 4.75 5Z" fill="#00C777"/>
<path fill-rule="evenodd" clip-rule="evenodd" d="M13.75 5C13.75 3.48122 14.9812 2.25 16.5 2.25C18.0188 2.25 19.25 3.48122 19.25 5C19.25 6.51878 18.0188 7.75 16.5 7.75C14.9812 7.75 13.75 6.51878 13.75 5Z" fill="#00C777"/>
<path fill-rule="evenodd" clip-rule="evenodd" d="M4.44619 9.49425C4.58828 9.33865 4.78928 9.25 5 9.25H10C10.2107 9.25 10.4117 9.33865 10.5538 9.49425C10.6959 9.64985 10.766 9.85805 10.7469 10.0679L9.74692 21.0679C9.7118 21.4542 9.38791 21.75 9 21.75H6C5.6121 21.75 5.2882 21.4542 5.25308 21.0679L4.25308 10.0679C4.23401 9.85805 4.30409 9.64985 4.44619 9.49425Z" fill="white"/>
<path opacity="0.7" fill-rule="evenodd" clip-rule="evenodd" d="M4.44619 9.49425C4.58828 9.33865 4.78928 9.25 5 9.25H10C10.2107 9.25 10.4117 9.33865 10.5538 9.49425C10.6959 9.64985 10.766 9.85805 10.7469 10.0679L9.74692 21.0679C9.7118 21.4542 9.38791 21.75 9 21.75H6C5.6121 21.75 5.2882 21.4542 5.25308 21.0679L4.25308 10.0679C4.23401 9.85805 4.30409 9.64985 4.44619 9.49425Z" fill="#00C777"/>
<path fill-rule="evenodd" clip-rule="evenodd" d="M13.4462 9.49425C13.5883 9.33865 13.7893 9.25 14 9.25H19C19.2107 9.25 19.4117 9.33865 19.5538 9.49425C19.6959 9.64985 19.766 9.85805 19.7469 10.0679L18.7469 21.0679C18.7118 21.4542 18.3879 21.75 18 21.75H15C14.6121 21.75 14.2882 21.4542 14.2531 21.0679L13.2531 10.0679C13.234 9.85805 13.3041 9.64985 13.4462 9.49425Z" fill="#00C777"/>
</svg>
