<svg width="24" height="24" viewBox="0 0 24 24" fill="none" xmlns="http://www.w3.org/2000/svg">
<rect x="1.07141" y="10.1668" width="12.6467" height="12.6467" rx="6.32333" fill="url(#paint0_linear_6142_26635)"/>
<path d="M3.58977 14.6774L3.0546 15.5739L4.04521 16.245C4.04521 16.245 4.7051 16.6116 4.39202 17.2993C4.09478 17.9504 2.65234 19.377 2.65234 19.377L3.94606 20.2536C4.83902 18.1456 4.78331 18.4263 5.00821 17.6694C5.23872 16.8953 5.28779 16.305 4.8978 15.8799C4.39331 15.331 4.33759 15.2799 3.58977 14.6774ZM11.9763 14.4422C11.9763 14.4422 11.6991 12.069 6.91732 13.5401C7.11972 13.1541 7.22017 12.9009 7.22017 12.9009L6.02485 12.5383C6.02485 12.5383 5.54337 14.2439 4.68464 15.0411C4.68464 15.0411 5.5155 15.5609 5.50707 15.5464C5.74474 15.2885 5.95688 15.025 6.14448 14.7701C6.33435 14.679 6.51861 14.5946 6.6983 14.5147C6.47826 14.9478 6.12046 15.5936 5.76367 16.0018L6.26664 16.4802C6.26664 16.4802 6.60806 16.122 6.9835 15.69H7.41183V16.4871H5.74475V17.1241H7.41184V18.6512C7.39012 18.6506 7.3684 18.6506 7.34823 18.6473C7.1642 18.6384 6.87642 18.6051 6.76627 18.4135C6.62982 18.1797 6.72921 17.7508 6.73688 17.4867H5.58809L5.54617 17.51C5.54617 17.51 5.12704 19.558 6.76192 19.5128C8.29074 19.5575 9.16837 19.0505 9.5888 18.7001L9.75671 19.377L10.7008 18.9511L10.0634 17.2513L9.2954 17.51L9.43929 18.0931C9.24251 18.2519 9.01454 18.3713 8.77226 18.4599V17.1241H10.3967V16.4872H8.77226V15.69H10.4036V15.053H7.5054C7.71369 14.7768 7.87775 14.5246 7.92172 14.3631L7.41721 14.2153C9.58344 13.3735 10.7908 13.5168 10.7795 14.8984V18.538C10.7795 18.538 10.9083 19.7907 9.58881 19.6994L8.87603 19.5325L8.70937 20.2689C8.70937 20.2689 11.7877 21.224 12.04 18.6529C12.2915 16.0812 11.9763 14.4422 11.9763 14.4422Z" fill="white"/>
<path d="M4.29702 14.342C4.76803 14.342 5.14934 13.9691 5.14934 13.5124C5.14934 13.0548 4.76803 12.681 4.29702 12.681C3.82601 12.681 3.4447 13.0548 3.4447 13.5124C3.4447 13.9691 3.82601 14.342 4.29702 14.342Z" fill="#FFEB0E"/>
<rect x="5.55054" y="1.20868" width="12.6467" height="12.6467" rx="6.32333" fill="#1A0E1F"/>
<path d="M9.80434 8.5777C9.84642 8.22248 9.99161 8.02333 10.2656 7.81888C10.6577 7.54195 11.1486 7.69697 11.1486 7.69697L11.1465 6.77065C11.2657 6.76733 11.385 6.77413 11.503 6.79096L11.5057 7.98305C11.5057 7.98305 11.015 7.82802 10.6229 8.1051C10.3491 8.3094 10.2036 8.5087 10.1617 8.86391C10.1608 9.05675 10.1975 9.30873 10.3647 9.5263C10.3234 9.50527 10.2814 9.48129 10.2385 9.45436C9.87085 9.2087 9.80315 8.83904 9.80434 8.5777ZM13.5245 5.05245C13.2537 4.75704 13.1509 4.4584 13.1135 4.24852L13.4533 4.24775C13.4533 4.24775 13.3868 4.79841 13.8818 5.33867L13.8887 5.34593C13.7554 5.26251 13.6332 5.16397 13.5245 5.05245ZM15.1635 5.88797L15.1662 7.05608C15.1662 7.05608 14.7325 7.04008 14.4114 6.95917C13.963 6.84601 13.6746 6.67154 13.6746 6.67154C13.6746 6.67154 13.4754 6.5471 13.4593 6.53843L13.4648 8.95058C13.4651 9.08489 13.4291 9.42039 13.3176 9.7004C13.172 10.0667 12.9466 10.3074 12.9052 10.3566C12.9052 10.3566 12.6312 10.682 12.147 10.9017C11.7105 11.1 11.3268 11.0959 11.2122 11.1011C11.2122 11.1011 10.5491 11.1289 9.95149 10.7425C9.82226 10.6573 9.70159 10.5607 9.59104 10.4541L9.59403 10.4562C10.1918 10.8427 10.8547 10.8149 10.8547 10.8149C10.9695 10.8096 11.3532 10.8138 11.7895 10.6155C12.2733 10.3957 12.5477 10.0704 12.5477 10.0704C12.5887 10.0212 12.8151 9.78048 12.9601 9.41404C13.0713 9.13418 13.1076 8.79853 13.1073 8.66422L13.1018 6.25236C13.1179 6.26117 13.317 6.38561 13.317 6.38561C13.317 6.38561 13.6056 6.56022 14.0539 6.67324C14.3752 6.75415 14.8087 6.77015 14.8087 6.77015L14.8066 5.85481C14.955 5.88773 15.0815 5.89644 15.1635 5.88797Z" fill="#EE1D52"/>
<path d="M14.807 5.85492L14.8091 6.76997C14.8091 6.76997 14.3755 6.75397 14.0543 6.67306C13.6059 6.5599 13.3174 6.38543 13.3174 6.38543C13.3174 6.38543 13.1183 6.26099 13.1022 6.25218L13.1077 8.66461C13.108 8.79892 13.072 9.13457 12.9605 9.41443C12.8149 9.78087 12.5895 10.0216 12.5481 10.0708C12.5481 10.0708 12.2739 10.3961 11.7899 10.6159C11.3535 10.8142 10.9699 10.81 10.8551 10.8153C10.8551 10.8153 10.1922 10.8431 9.5944 10.4566L9.59141 10.4545C9.52826 10.3936 9.46879 10.3293 9.41331 10.2619C9.22231 10.0301 9.10493 9.75579 9.07542 9.6775C9.07536 9.67717 9.07536 9.67683 9.07541 9.6765C9.0279 9.54044 8.92797 9.21367 8.9408 8.89692C8.9635 8.33808 9.15929 7.99465 9.21107 7.90861C9.34818 7.67398 9.52673 7.46393 9.73877 7.2878C9.92589 7.13581 10.1381 7.01474 10.3667 6.92954C10.6138 6.82956 10.8785 6.77567 11.1467 6.77076L11.1488 7.69708C11.1488 7.69708 10.6579 7.54262 10.266 7.81899C9.99197 8.02344 9.84678 8.22259 9.80471 8.5778C9.80351 8.83915 9.87122 9.20881 10.2386 9.45461C10.2814 9.48163 10.3235 9.50561 10.3647 9.52655C10.429 9.6097 10.5072 9.6821 10.596 9.74083C10.9549 9.96681 11.2551 9.98197 11.6387 9.8338C11.8945 9.73473 12.0867 9.51234 12.1755 9.26621C12.2313 9.11251 12.2302 8.95793 12.2298 8.79807L12.2194 4.25067L13.1129 4.24863C13.1504 4.45851 13.2532 4.75715 13.524 5.05256C13.6326 5.16408 13.7549 5.26262 13.8882 5.34604C13.9276 5.38663 14.1291 5.58728 14.3875 5.71015C14.5211 5.77366 14.6618 5.82224 14.807 5.85492Z" fill="white"/>
<path d="M8.71912 9.39392L8.71912 9.39463L8.74143 9.45467C8.73886 9.44769 8.73058 9.42644 8.71912 9.39392Z" fill="#69C9D0"/>
<path d="M10.3666 6.92944C10.138 7.01464 9.92579 7.13571 9.73867 7.2877C9.52656 7.46422 9.34806 7.67472 9.21112 7.90979C9.15934 7.99555 8.96355 8.33926 8.94085 8.89811C8.92802 9.21486 9.02795 9.54163 9.07546 9.67768C9.07541 9.67802 9.07541 9.67835 9.07547 9.67868C9.10543 9.75626 9.22236 10.0306 9.41336 10.2631C9.46884 10.3305 9.52831 10.3948 9.59146 10.4557C9.38925 10.3223 9.20881 10.1609 9.05604 9.97675C8.86669 9.74696 8.74961 9.47546 8.71905 9.39532C8.71901 9.39475 8.71901 9.39418 8.71904 9.39361L8.71904 9.39261C8.67137 9.25669 8.57115 8.92978 8.58428 8.6126C8.60698 8.05376 8.80277 7.71032 8.85455 7.62428C8.99144 7.38918 9.16995 7.17869 9.38209 7.0022C9.56918 6.85015 9.7814 6.72907 10.01 6.64394C10.1526 6.58685 10.3012 6.54464 10.4532 6.51803C10.6823 6.47917 10.9164 6.47531 11.1467 6.5066L11.1473 6.77066C10.8789 6.77548 10.6139 6.82937 10.3666 6.92944Z" fill="#69C9D0"/>
<path d="M13.1132 4.2484L12.2197 4.25044L12.23 8.79799C12.2304 8.95784 12.2307 9.11199 12.1757 9.26613C12.086 9.51212 11.8946 9.7345 11.6389 9.83357C11.2552 9.98231 10.9549 9.96658 10.5963 9.7406C10.5072 9.68213 10.4289 9.60997 10.3644 9.52703C10.6699 9.68234 10.943 9.67901 11.281 9.54806C11.5365 9.449 11.7282 9.22661 11.8176 8.98048C11.8736 8.82678 11.8725 8.6722 11.8721 8.51248L11.8617 3.96408L13.0955 3.96127C13.0955 3.96127 13.0819 4.07434 13.1132 4.2484ZM14.8059 5.60163L14.8065 5.8547C14.6616 5.82196 14.5211 5.77338 14.3877 5.70992C14.1293 5.58705 13.9278 5.3864 13.8884 5.34581C13.9341 5.37441 13.9815 5.40042 14.0304 5.4237C14.3445 5.57314 14.6536 5.61725 14.8059 5.60163Z" fill="#69C9D0"/>
<rect x="10.4248" y="10.4303" width="12.6467" height="12.6467" rx="6.32333" fill="#208BF1"/>
<path fill-rule="evenodd" clip-rule="evenodd" d="M17.5924 15.7985C18.4012 16.6073 18.4012 17.9187 17.5924 18.7275L16.4633 19.8567C15.6544 20.6655 14.3431 20.6655 13.5342 19.8567C12.7254 19.0478 12.7254 17.7365 13.5342 16.9276L14.0988 16.363L14.7695 17.0337L14.2049 17.5983C13.7665 18.0367 13.7665 18.7475 14.2049 19.186C14.6433 19.6244 15.3542 19.6244 15.7926 19.186L16.9217 18.0568C17.3601 17.6184 17.3601 16.9076 16.9217 16.4692L17.5924 15.7985Z" fill="white"/>
<path fill-rule="evenodd" clip-rule="evenodd" d="M16.9218 13.54C17.7306 12.7312 19.042 12.7312 19.8508 13.54C20.6597 14.3489 20.6597 15.6602 19.8508 16.4691L19.2863 17.0336L18.6156 16.3629L19.1802 15.7984C19.6186 15.3599 19.6186 14.6491 19.1802 14.2107C18.7417 13.7723 18.0309 13.7723 17.5925 14.2107L16.4633 15.3399C16.0249 15.7783 16.0249 16.4891 16.4633 16.9275L15.7927 17.5982C14.9838 16.7894 14.9838 15.478 15.7927 14.6692L16.9218 13.54Z" fill="white"/>
<defs>
<linearGradient id="paint0_linear_6142_26635" x1="13.0858" y1="11.1785" x2="3.22137" y2="21.4223" gradientUnits="userSpaceOnUse">
<stop stop-color="#FE8D00"/>
<stop offset="1" stop-color="#FF5000"/>
</linearGradient>
</defs>
</svg>
