<svg width="24" height="24" viewBox="0 0 24 24" fill="none" xmlns="http://www.w3.org/2000/svg">
<path d="M13 17.5C13 15.0147 15.0147 13 17.5 13C19.9853 13 22 15.0147 22 17.5C22 19.9853 19.9853 22 17.5 22C15.0147 22 13 19.9853 13 17.5Z" fill="white"/>
<path d="M11.6228 2.50049C9.13766 2.50049 7.12304 4.51507 7.12304 7.00019V9.50002C7.12304 10.9648 7.8232 12.2657 8.90549 13.0869C9.0384 13.1877 9.12283 13.342 9.12283 13.5088L9.12283 13.8228C9.12283 14.0272 8.99836 14.2111 8.80854 14.287L6.39833 15.2511C5.01796 15.8032 3.99941 17.0015 3.6769 18.4528L3.27031 20.2824C3.13154 20.9069 3.60673 21.4993 4.24644 21.4993H13.2993C12.3083 20.4587 11.7 19.0504 11.7 17.5C11.7 15.0903 13.1695 13.0237 15.2614 12.1478C15.8028 11.4051 16.1226 10.49 16.1226 9.50002V7.00019C16.1226 4.51507 14.108 2.50049 11.6228 2.50049Z" fill="#FA9D3B"/>
<path opacity="0.7" fill-rule="evenodd" clip-rule="evenodd" d="M17.5 13C15.0147 13 13 15.0147 13 17.5C13 19.9853 15.0147 22 17.5 22C19.9853 22 22 19.9853 22 17.5C22 15.0147 19.9853 13 17.5 13ZM18.1501 15.5C18.1501 15.141 17.8591 14.85 17.5001 14.85C17.1411 14.85 16.8501 15.141 16.8501 15.5V16.85L15.5 16.85C15.1411 16.85 14.85 17.1411 14.85 17.5C14.85 17.859 15.1411 18.15 15.5001 18.15L16.8501 18.15V19.5C16.8501 19.859 17.1411 20.15 17.5001 20.15C17.8591 20.15 18.1501 19.859 18.1501 19.5V18.15L19.5 18.15C19.859 18.15 20.15 17.859 20.15 17.5C20.15 17.141 19.859 16.85 19.5 16.85L18.1501 16.85V15.5Z" fill="#FA9D3B"/>
</svg>
