<svg width="24" height="24" viewBox="0 0 24 24" fill="none" xmlns="http://www.w3.org/2000/svg">
<path fill-rule="evenodd" clip-rule="evenodd" d="M20.5 4C21.3284 4 22 4.67157 22 5.5V9.53962C22 9.78223 21.8225 9.9838 21.5971 10.0735C20.8314 10.378 20.2901 11.1258 20.2901 12C20.2901 12.8742 20.8314 13.622 21.5971 13.9265C21.8225 14.0162 22 14.2178 22 14.4604V18.5C22 19.3284 21.3284 20 20.5 20H3.5C2.67157 20 2 19.3284 2 18.5V14.4604C2 14.2178 2.17747 14.0162 2.40291 13.9265C3.16859 13.622 3.70985 12.8742 3.70985 12C3.70985 11.1258 3.16859 10.378 2.40291 10.0735C2.17747 9.9838 2 9.78223 2 9.53961V5.5C2 4.67157 2.67157 4 3.5 4H20.5Z" fill="#FA9D3B"/>
<path fill-rule="evenodd" clip-rule="evenodd" d="M20.4561 12.814C17.5966 16.5231 13.4091 19.1558 8.60547 20H20.5C21.3284 20 22 19.3284 22 18.5V14.4756C22 14.2242 21.8159 14.0155 21.583 13.9209C21.0769 13.7153 20.6705 13.3155 20.4561 12.814Z" fill="white"/>
<path opacity="0.7" fill-rule="evenodd" clip-rule="evenodd" d="M20.4561 12.814C17.5966 16.5231 13.4091 19.1558 8.60547 20H20.5C21.3284 20 22 19.3284 22 18.5V14.4604C22 14.2178 21.8225 14.0162 21.5971 13.9266C21.0845 13.7227 20.6725 13.3201 20.4561 12.814Z" fill="#FA9D3B"/>
<path fill-rule="evenodd" clip-rule="evenodd" d="M9 8.25C9.41421 8.25 9.75 8.58579 9.75 9V10C9.75 10.4142 9.41421 10.75 9 10.75C8.58579 10.75 8.25 10.4142 8.25 10V9C8.25 8.58579 8.58579 8.25 9 8.25Z" fill="white"/>
<path fill-rule="evenodd" clip-rule="evenodd" d="M15 8.25C15.4142 8.25 15.75 8.58579 15.75 9V10C15.75 10.4142 15.4142 10.75 15 10.75C14.5858 10.75 14.25 10.4142 14.25 10V9C14.25 8.58579 14.5858 8.25 15 8.25Z" fill="white"/>
<path fill-rule="evenodd" clip-rule="evenodd" d="M7.93057 12.5119C8.20014 12.1974 8.67361 12.161 8.98811 12.4306L9.79053 13.1184C11.0619 14.2081 12.9381 14.2081 14.2095 13.1184L15.0119 12.4306C15.3264 12.161 15.7999 12.1974 16.0695 12.5119C16.339 12.8264 16.3026 13.2999 15.9881 13.5695L15.1857 14.2572C13.3525 15.8285 10.6475 15.8285 8.81434 14.2572L8.01192 13.5695C7.69743 13.2999 7.661 12.8264 7.93057 12.5119Z" fill="white"/>
</svg>
