<svg width="24" height="24" viewBox="0 0 24 24" fill="none" xmlns="http://www.w3.org/2000/svg">
<path fill-rule="evenodd" clip-rule="evenodd" d="M12.0001 4.00049C7.58203 4.00049 4.00049 7.58203 4.00049 12.0001C4.00049 16.4181 7.58203 19.9997 12.0001 19.9997C16.4181 19.9997 19.9997 16.4181 19.9997 12.0001C19.9997 7.58203 16.4181 4.00049 12.0001 4.00049Z" fill="#FA9D3B"/>
<path fill-rule="evenodd" clip-rule="evenodd" d="M12 3C7.02944 3 3 7.02944 3 12C3 16.9706 7.02944 21 12 21C16.9706 21 21 16.9706 21 12C21 7.02944 16.9706 3 12 3ZM2 12C2 6.47715 6.47715 2 12 2C17.5228 2 22 6.47715 22 12C22 17.5228 17.5228 22 12 22C6.47715 22 2 17.5228 2 12Z" fill="white"/>
<path opacity="0.7" fill-rule="evenodd" clip-rule="evenodd" d="M12 3C7.02944 3 3 7.02944 3 12C3 16.9706 7.02944 21 12 21C16.9706 21 21 16.9706 21 12C21 7.02944 16.9706 3 12 3ZM2 12C2 6.47715 6.47715 2 12 2C17.5228 2 22 6.47715 22 12C22 17.5228 17.5228 22 12 22C6.47715 22 2 17.5228 2 12Z" fill="#FA9D3B"/>
<path fill-rule="evenodd" clip-rule="evenodd" d="M12.0001 7.25C11.4152 7.25 10.9444 7.73036 10.9561 8.31514L11.0464 12.8151C11.0568 13.3344 11.4808 13.75 12.0003 13.75C12.5197 13.75 12.9437 13.3344 12.9541 12.815L13.0441 8.31507C13.0558 7.73033 12.585 7.25 12.0001 7.25ZM12 17C12.5523 17 13 16.5523 13 16C13 15.4477 12.5523 15 12 15C11.4477 15 11 15.4477 11 16C11 16.5523 11.4477 17 12 17Z" fill="white"/>
</svg>
