<svg width="24" height="24" viewBox="0 0 24 24" fill="none" xmlns="http://www.w3.org/2000/svg">
<path d="M20 3.55026C20 2.72184 19.3284 2.05026 18.5 2.05026H5.5C4.67157 2.05026 4 2.72184 4 3.55026V20.5503C4 21.3787 4.67157 22.0503 5.5 22.0503H12H16.8489C17.0982 22.0503 17.3436 21.9881 17.5629 21.8694L19.214 20.9758C19.6983 20.7137 20 20.2073 20 19.6566V16.1954V3.55026Z" fill="#00C777"/>
<path fill-rule="evenodd" clip-rule="evenodd" d="M7.25 6C7.25 5.58579 7.58579 5.25 8 5.25H14C14.4142 5.25 14.75 5.58579 14.75 6C14.75 6.41421 14.4142 6.75 14 6.75H8C7.58579 6.75 7.25 6.41421 7.25 6Z" fill="white"/>
<path fill-rule="evenodd" clip-rule="evenodd" d="M7.25 9.5C7.25 9.08579 7.58579 8.75 8 8.75H12C12.4142 8.75 12.75 9.08579 12.75 9.5C12.75 9.91421 12.4142 10.25 12 10.25H8C7.58579 10.25 7.25 9.91421 7.25 9.5Z" fill="white"/>
<path d="M21.551 15.6216C21.551 15.0857 21.2651 14.5906 20.801 14.3226L17.9709 12.6886C17.5068 12.4207 16.935 12.4207 16.4709 12.6886L13.6407 14.3226C13.1766 14.5906 12.8907 15.0857 12.8907 15.6216V18.8896C12.8907 19.4255 13.1766 19.9207 13.6407 20.1886L16.4709 21.8226C16.935 22.0906 17.5068 22.0906 17.9709 21.8226L20.801 20.1886C21.2651 19.9207 21.551 19.4255 21.551 18.8896V15.6216Z" fill="white"/>
<path opacity="0.7" d="M21.551 15.6216C21.551 15.0857 21.2651 14.5906 20.801 14.3226L17.9709 12.6886C17.5068 12.4207 16.935 12.4207 16.4709 12.6886L13.6407 14.3226C13.1766 14.5906 12.8907 15.0857 12.8907 15.6216V18.8896C12.8907 19.4255 13.1766 19.9207 13.6407 20.1886L16.4709 21.8226C16.935 22.0906 17.5068 22.0906 17.9709 21.8226L20.801 20.1886C21.2651 19.9207 21.551 19.4255 21.551 18.8896V15.6216Z" fill="#00C777"/>
<path d="M18.2517 17.2556C18.2517 17.825 17.7902 18.2865 17.2208 18.2865C16.6515 18.2865 16.1899 17.825 16.1899 17.2556C16.1899 16.6863 16.6515 16.2247 17.2208 16.2247C17.7902 16.2247 18.2517 16.6863 18.2517 17.2556Z" fill="white"/>
</svg>
