<svg width="24" height="24" viewBox="0 0 24 24" fill="none" xmlns="http://www.w3.org/2000/svg">
<path d="M20.5 19.5C20.5 20.3284 19.8284 21 19 21H5C4.17157 21 3.5 20.3284 3.5 19.5V8H20.5V19.5Z" fill="#208BF1"/>
<path fill-rule="evenodd" clip-rule="evenodd" d="M8.75 7.25H15.25V13.8234C15.25 14.4841 14.5292 14.8922 13.9627 14.5522L12 13.3746L10.0373 14.5522C9.47078 14.8922 8.75 14.4841 8.75 13.8234V7.25ZM10.25 8.75V12.6754L11.5627 11.8877C11.8319 11.7262 12.1681 11.7262 12.4373 11.8877L13.75 12.6754V8.75H10.25Z" fill="white"/>
<path d="M22.0001 4.5C22.0001 3.67157 21.3286 3 20.5001 3H3.50012C2.6717 3 2.00012 3.67157 2.00012 4.5V7.5C2.00012 8.32843 2.67169 9 3.50012 9H20.5001C21.3285 9 22.0001 8.32843 22.0001 7.5V4.5Z" fill="white"/>
<path opacity="0.7" d="M22.0001 4.5C22.0001 3.67157 21.3286 3 20.5001 3H3.50012C2.6717 3 2.00012 3.67157 2.00012 4.5V7.5C2.00012 8.32843 2.67169 9 3.50012 9H20.5001C21.3285 9 22.0001 8.32843 22.0001 7.5V4.5Z" fill="#208BF1"/>
</svg>
