<svg width="24" height="24" viewBox="0 0 24 24" fill="none" xmlns="http://www.w3.org/2000/svg">
<path fill-rule="evenodd" clip-rule="evenodd" d="M20.4391 14.8555C19.5465 13.9629 18.1836 13.8275 17.1483 14.4491C16.1129 13.8275 14.75 13.9629 13.8574 14.8555C12.8052 15.9077 12.8053 17.6135 13.8575 18.6657L16.3689 21.1772C16.7993 21.6076 17.4972 21.6076 17.9277 21.1772L20.4391 18.6657C21.4914 17.6135 21.4913 15.9077 20.4391 14.8555Z" fill="white"/>
<path opacity="0.7" fill-rule="evenodd" clip-rule="evenodd" d="M20.4391 14.8555C19.5465 13.9629 18.1836 13.8275 17.1483 14.4491C16.113 13.8275 14.75 13.9629 13.8574 14.8555C12.8052 15.9077 12.8053 17.6135 13.8575 18.6657L16.3689 21.1772C16.7993 21.6076 17.4972 21.6076 17.9277 21.1772L20.4391 18.6657C21.4914 17.6135 21.4913 15.9077 20.4391 14.8555Z" fill="#FA9D3B"/>
<path fill-rule="evenodd" clip-rule="evenodd" d="M11.6235 2.5C9.13821 2.5 7.12347 4.51471 7.12347 6.99998V9.49997C7.12347 10.9649 7.82367 12.2658 8.90602 13.087C9.03894 13.1879 9.12338 13.3422 9.12338 13.509L9.12338 13.823C9.12338 14.0275 8.9989 14.2113 8.80907 14.2872L6.39871 15.2514C5.01825 15.8036 3.99964 17.0019 3.67711 18.4533L3.2705 20.2831C3.13171 20.9076 3.60693 21.5 4.24668 21.5H14.6133L12.8182 19.7049C11.1922 18.0788 11.192 15.4424 12.8182 13.8162C13.3776 13.2569 14.0559 12.8902 14.7713 12.7157C15.6053 11.8992 16.1236 10.7603 16.1236 9.49997V6.99998C16.1236 4.51471 14.1088 2.5 11.6235 2.5Z" fill="#FA9D3B"/>
</svg>
