<svg width="24" height="24" viewBox="0 0 24 24" fill="none" xmlns="http://www.w3.org/2000/svg">
<path fill-rule="evenodd" clip-rule="evenodd" d="M7.12341 6.99998C7.12341 4.51471 9.13815 2.5 11.6235 2.5C14.1088 2.5 16.1235 4.51471 16.1235 6.99998V9.49997C16.1235 10.965 15.4232 12.2659 14.3408 13.0871C14.2079 13.188 14.1234 13.3423 14.1234 13.5091V13.823C14.1234 14.0274 14.2479 14.2113 14.4377 14.2872L16.8481 15.2514C16.8876 15.2672 16.9267 15.2835 16.9656 15.3003L15.434 17.0872L14.8892 16.5612C14.0946 15.794 12.8284 15.8162 12.0612 16.6108C11.294 17.4054 11.3162 18.6716 12.1108 19.4388L14.1822 21.4388C14.2039 21.4597 14.226 21.4801 14.2486 21.5H4.24662C3.60687 21.5 3.13165 20.9076 3.27044 20.2831L3.67705 18.4533C3.99958 17.0019 5.01819 15.8036 6.39865 15.2514L8.80901 14.2872C8.99884 14.2113 9.12332 14.0275 9.12332 13.823L9.12332 13.509C9.12332 13.3422 9.03888 13.1879 8.90596 13.087C7.82361 12.2658 7.12341 10.9649 7.12341 9.49997V6.99998Z" fill="#FA9D3B"/>
<path fill-rule="evenodd" clip-rule="evenodd" d="M19.4881 15.4306C19.8026 15.7001 19.839 16.1736 19.5694 16.4881L16.1409 20.4881C16.0064 20.645 15.8132 20.7394 15.6068 20.7492C15.4004 20.7589 15.1991 20.6831 15.0505 20.5396L12.9791 18.5396C12.6811 18.2519 12.6727 17.7771 12.9604 17.4791C13.2482 17.1811 13.723 17.1728 14.0209 17.4605L15.5199 18.9077L18.4306 15.5119C18.7001 15.1974 19.1736 15.161 19.4881 15.4306Z" fill="white"/>
<path opacity="0.7" fill-rule="evenodd" clip-rule="evenodd" d="M19.4881 15.4306C19.8026 15.7001 19.839 16.1736 19.5694 16.4881L16.1409 20.4881C16.0064 20.645 15.8132 20.7394 15.6068 20.7492C15.4004 20.7589 15.1991 20.6831 15.0505 20.5396L12.9791 18.5396C12.6811 18.2519 12.6727 17.7771 12.9604 17.4791C13.2482 17.1811 13.723 17.1728 14.0209 17.4605L15.5199 18.9077L18.4306 15.5119C18.7001 15.1974 19.1736 15.161 19.4881 15.4306Z" fill="#FA9D3B"/>
</svg>
