<svg width="24" height="24" viewBox="0 0 24 24" fill="none" xmlns="http://www.w3.org/2000/svg">
<path fill-rule="evenodd" clip-rule="evenodd" d="M11.6235 2.5C9.13815 2.5 7.12341 4.51471 7.12341 6.99998V9.49997C7.12341 10.9649 7.82361 12.2658 8.90596 13.087C9.03888 13.1879 9.12332 13.3422 9.12332 13.509L9.12332 13.823C9.12332 14.0275 8.99884 14.2113 8.80901 14.2872L6.39865 15.2514C5.01819 15.8036 3.99958 17.0019 3.67705 18.4533L3.27044 20.2831C3.13165 20.9076 3.60687 21.5 4.24662 21.5H13.7771L11.9396 19.6626L11.9186 19.6416C11.8105 19.5335 11.6814 19.4045 11.577 19.2815C11.456 19.139 11.2949 18.9227 11.1979 18.6241C11.0723 18.2376 11.0723 17.8212 11.1979 17.4346C11.2949 17.1361 11.456 16.9197 11.577 16.7772C11.6814 16.6542 11.8105 16.5252 11.9186 16.4171L11.9396 16.3962L14.2189 14.1169C14.1582 14.0333 14.1234 13.931 14.1234 13.823V13.5091C14.1234 13.3423 14.2079 13.188 14.3408 13.0871C15.4232 12.2659 16.1235 10.965 16.1235 9.49997V6.99998C16.1235 4.51471 14.1088 2.5 11.6235 2.5Z" fill="#FA9D3B"/>
<path fill-rule="evenodd" clip-rule="evenodd" d="M16.3058 14.4999C16.3146 14.5 16.3231 14.5 16.3314 14.5L18.2159 14.5C18.3421 14.5 18.465 14.4999 18.5691 14.5084C18.6834 14.5178 18.8183 14.5398 18.954 14.609C19.1421 14.7048 19.2951 14.8578 19.391 15.046C19.4601 15.1817 19.4822 15.3166 19.4915 15.4309C19.5 15.5349 19.5 15.6578 19.5 15.784L19.5 17.6686C19.5 17.6769 19.5 17.6854 19.5 17.6941C19.5003 17.7891 19.5006 17.9086 19.4724 18.0263C19.4479 18.1283 19.4075 18.2259 19.3526 18.3154C19.2894 18.4185 19.2046 18.5029 19.1373 18.5698C19.1311 18.576 19.1251 18.582 19.1192 18.5878L16.9079 20.7991C16.8187 20.8884 16.7318 20.9753 16.6522 21.0429C16.5648 21.1171 16.4539 21.1969 16.309 21.2439C16.1082 21.3092 15.8918 21.3092 15.691 21.2439C15.5461 21.1969 15.4352 21.1171 15.3477 21.0429C15.2681 20.9753 15.1812 20.8884 15.092 20.7991L13.2008 18.9079C13.1116 18.8187 13.0247 18.7318 12.9571 18.6522C12.8829 18.5648 12.8031 18.4538 12.756 18.309C12.6908 18.1081 12.6908 17.8918 12.756 17.691C12.8031 17.5461 12.8829 17.4352 12.9571 17.3477C13.0247 17.2681 13.1116 17.1812 13.2008 17.092C13.2046 17.0883 13.2084 17.0845 13.2121 17.0807L15.4121 14.8807C15.418 14.8749 15.424 14.8688 15.4301 14.8627C15.4971 14.7953 15.5814 14.7106 15.6846 14.6473C15.7741 14.5925 15.8716 14.5521 15.9736 14.5276C16.0913 14.4994 16.2109 14.4997 16.3058 14.4999Z" fill="white"/>
<path opacity="0.7" fill-rule="evenodd" clip-rule="evenodd" d="M16.3058 14.4999C16.3146 14.5 16.3231 14.5 16.3314 14.5L18.2159 14.5C18.3421 14.5 18.465 14.4999 18.5691 14.5084C18.6834 14.5178 18.8183 14.5398 18.954 14.609C19.1421 14.7048 19.2951 14.8578 19.391 15.046C19.4601 15.1817 19.4822 15.3166 19.4915 15.4309C19.5 15.5349 19.5 15.6578 19.5 15.784L19.5 17.6686C19.5 17.6769 19.5 17.6854 19.5 17.6941C19.5003 17.7891 19.5006 17.9086 19.4724 18.0263C19.4479 18.1283 19.4075 18.2259 19.3526 18.3154C19.2894 18.4185 19.2046 18.5029 19.1373 18.5698C19.1311 18.576 19.1251 18.582 19.1192 18.5878L16.9079 20.7991C16.8187 20.8884 16.7318 20.9753 16.6522 21.0429C16.5648 21.1171 16.4539 21.1969 16.309 21.2439C16.1082 21.3092 15.8918 21.3092 15.691 21.2439C15.5461 21.1969 15.4352 21.1171 15.3477 21.0429C15.2681 20.9753 15.1812 20.8884 15.092 20.7991L13.2008 18.9079C13.1116 18.8187 13.0247 18.7318 12.9571 18.6522C12.8829 18.5648 12.8031 18.4538 12.756 18.309C12.6908 18.1081 12.6908 17.8918 12.756 17.691C12.8031 17.5461 12.8829 17.4352 12.9571 17.3477C13.0247 17.2681 13.1116 17.1812 13.2008 17.092C13.2046 17.0883 13.2084 17.0845 13.2121 17.0807L15.4121 14.8807C15.418 14.8749 15.424 14.8688 15.4301 14.8627C15.4971 14.7953 15.5814 14.7106 15.6846 14.6473C15.7741 14.5925 15.8716 14.5521 15.9736 14.5276C16.0913 14.4994 16.2109 14.4997 16.3058 14.4999Z" fill="#FA9D3B"/>
</svg>
