<svg width="24" height="24" viewBox="0 0 24 24" fill="none" xmlns="http://www.w3.org/2000/svg">
<path d="M12.5289 3.58914C12.2451 3.21783 11.8044 3 11.3371 3H4.5C3.67157 3 3 3.67157 3 4.5V7H15.1357L12.5289 3.58914Z" fill="white"/>
<path opacity="0.7" d="M12.5289 3.58914C12.2451 3.21783 11.8044 3 11.3371 3H4.5C3.67157 3 3 3.67157 3 4.5V7H15.1357L12.5289 3.58914Z" fill="#00C777"/>
<path d="M21 7.5C21 6.67157 20.3284 6 19.5 6H3V19.5C3 20.3284 3.67157 21 4.5 21H19.5C20.3284 21 21 20.3284 21 19.5V7.5Z" fill="#00C777"/>
<path fill-rule="evenodd" clip-rule="evenodd" d="M11.25 17L11.25 12C11.25 11.5858 11.5858 11.25 12 11.25C12.4142 11.25 12.75 11.5858 12.75 12L12.75 17C12.75 17.4142 12.4142 17.75 12 17.75C11.5858 17.75 11.25 17.4142 11.25 17Z" fill="white"/>
<path fill-rule="evenodd" clip-rule="evenodd" d="M14.5303 14.0303C14.8232 13.7374 14.8232 13.2626 14.5303 12.9697L12.601 11.0404C12.2691 10.7084 11.7309 10.7084 11.399 11.0404L9.46967 12.9697C9.17678 13.2626 9.17678 13.7374 9.46967 14.0303C9.76256 14.3232 10.2374 14.3232 10.5303 14.0303L12 12.5607L13.4697 14.0303C13.7626 14.3232 14.2374 14.3232 14.5303 14.0303Z" fill="white"/>
</svg>
