<svg width="24" height="24" viewBox="0 0 24 24" fill="none" xmlns="http://www.w3.org/2000/svg">
<path d="M20.5 9.025L12 3.5L3.5 9.025V19.7C3.5 20.418 4.08203 21 4.8 21H19.2C19.918 21 20.5 20.418 20.5 19.7V9.025Z" fill="#208BF1"/>
<path fill-rule="evenodd" clip-rule="evenodd" d="M15.25 13C15.25 13.4142 14.9142 13.75 14.5 13.75L9.74142 13.75C8.98415 13.75 8.60491 12.8344 9.14038 12.299L10.4697 10.9697C10.7626 10.6768 11.2374 10.6768 11.5303 10.9697C11.8232 11.2626 11.8232 11.7374 11.5303 12.0303L11.3107 12.25L14.5 12.25C14.9142 12.25 15.25 12.5858 15.25 13ZM12.6893 16.25L12.4697 16.4697C12.1768 16.7626 12.1768 17.2374 12.4697 17.5303C12.7626 17.8232 13.2374 17.8232 13.5303 17.5303L14.8596 16.201L14.8596 16.201C15.3951 15.6656 15.0159 14.75 14.2586 14.75L9.50001 14.75C9.0858 14.75 8.75001 15.0858 8.75001 15.5C8.75001 15.9142 9.0858 16.25 9.50001 16.25L12.6893 16.25Z" fill="white"/>
<path fill-rule="evenodd" clip-rule="evenodd" d="M10.8906 2.43688C11.5624 1.98902 12.4376 1.98902 13.1094 2.43688L21.8321 8.25198C22.5214 8.71151 22.7076 9.64281 22.2481 10.3321C21.7886 11.0214 20.8573 11.2077 20.168 10.7481L12 5.30283L3.83209 10.7481C3.14279 11.2077 2.21149 11.0214 1.75196 10.3321C1.29243 9.64281 1.47869 8.71151 2.16799 8.25198L10.8906 2.43688Z" fill="white"/>
<g opacity="0.7">
<path fill-rule="evenodd" clip-rule="evenodd" d="M10.8906 2.43688C11.5624 1.98902 12.4376 1.98902 13.1094 2.43688L21.8321 8.25198C22.5214 8.71151 22.7076 9.64281 22.2481 10.3321C21.7886 11.0214 20.8573 11.2077 20.168 10.7481L12 5.30283L3.83209 10.7481C3.14279 11.2077 2.21149 11.0214 1.75196 10.3321C1.29243 9.64281 1.47869 8.71151 2.16799 8.25198L10.8906 2.43688Z" fill="white"/>
<path fill-rule="evenodd" clip-rule="evenodd" d="M10.8906 2.43688C11.5624 1.98902 12.4376 1.98902 13.1094 2.43688L21.8321 8.25198C22.5214 8.71151 22.7076 9.64281 22.2481 10.3321C21.7886 11.0214 20.8573 11.2077 20.168 10.7481L12 5.30283L3.83209 10.7481C3.14279 11.2077 2.21149 11.0214 1.75196 10.3321C1.29243 9.64281 1.47869 8.71151 2.16799 8.25198L10.8906 2.43688Z" fill="#208BF1"/>
</g>
</svg>
