<svg width="24" height="24" viewBox="0 0 24 24" fill="none" xmlns="http://www.w3.org/2000/svg">
<path d="M19.5 4.5C19.5 3.67157 18.8284 3 18 3H6C5.17157 3 4.5 3.67157 4.5 4.5V12H19.5V4.5Z" fill="white"/>
<path opacity="0.7" d="M19.5 4.5C19.5 3.67157 18.8284 3 18 3H6C5.17157 3 4.5 3.67157 4.5 4.5V12H19.5V4.5Z" fill="#FA5051"/>
<path d="M15 19.5C15 18.6716 15.6716 18 16.5 18H19.5001C20.3285 18 21.0001 17.3284 21.0001 16.5V10.5C21.0001 9.67157 20.3285 9 19.5001 9H4.5C3.67157 9 3 9.67157 3 10.5V16.5C3 17.3284 3.67157 18 4.5 18H7.5C8.32843 18 9 18.6716 9 19.5V20.5C9 21.3284 9.67157 22 10.5 22H13.5C14.3284 22 15 21.3284 15 20.5V19.5Z" fill="#FA5051"/>
<path fill-rule="evenodd" clip-rule="evenodd" d="M14.75 6V3H16.25V6C16.25 6.41421 15.9142 6.75 15.5 6.75C15.0858 6.75 14.75 6.41421 14.75 6Z" fill="white"/>
</svg>
