<svg width="24" height="24" viewBox="0 0 24 24" fill="none" xmlns="http://www.w3.org/2000/svg">
<path d="M4.29051 3.00006C3.71773 3.00006 3.20921 3.36658 3.02808 3.90997L2.15611 6.52589C1.50891 8.46747 2.95407 10.4725 5.00068 10.4725H5.65538C6.98396 10.4725 8.16694 9.7188 8.74805 8.57735C8.75048 8.58162 8.75291 8.58589 8.75535 8.59016L8.74805 8.57735L8.92915 3.00006H4.29051Z" fill="#FA9D3B"/>
<path d="M15.2519 8.57752C15.833 9.71887 17.0159 10.4725 18.3445 10.4725H18.9992C21.0458 10.4725 22.4909 8.46747 21.8437 6.52589L20.9718 3.90997C20.7906 3.36658 20.2821 3.00006 19.7093 3.00006H15.0709L15.2519 8.57752Z" fill="#91D300"/>
<path fill-rule="evenodd" clip-rule="evenodd" d="M8.9291 3H15.0709L15.252 8.57723Lnan nanL15.252 8.57723C13.8324 11.1247 10.1677 11.1248 8.74817 8.57723Lnan nanL8.74817 8.57723L8.9291 3Z" fill="#FFC300"/>
<path d="M3.5 11.1838V19.5C3.5 20.3284 4.17157 21 5 21L19 21C19.8284 21 20.5 20.3284 20.5 19.5V11.1837C20.0407 11.3693 19.5354 11.4725 18.9991 11.4725H18.3444C17.1498 11.4725 16.0471 10.9996 15.2354 10.2143C13.44 11.9124 10.5598 11.9124 8.76453 10.2141C7.95282 10.9995 6.85004 11.4725 5.65535 11.4725H5.00066C4.46445 11.4725 3.95921 11.3693 3.5 11.1838Z" fill="#03C160"/>
<path fill-rule="evenodd" clip-rule="evenodd" d="M13.142 13.9131C12.6857 13.9936 12.381 14.4287 12.4615 14.8849C12.4639 14.8985 12.4658 14.912 12.4674 14.9255L12.8115 16.8772C12.8142 16.8887 12.8166 16.9004 12.8187 16.9122C13.0238 18.0756 12.247 19.1849 11.0837 19.3901C9.92035 19.5952 8.81099 18.8184 8.60586 17.6551C8.44062 16.7179 8.91239 15.8175 9.70816 15.3946C10.0252 15.2262 10.4187 15.3466 10.5872 15.6636C10.7556 15.9806 10.6352 16.3742 10.3182 16.5426C10.0052 16.7089 9.82154 17.0631 9.88611 17.4293C9.96657 17.8856 10.4017 18.1903 10.8579 18.1098C11.313 18.0296 11.6172 17.5966 11.5391 17.1417L11.5381 17.1419L11.18 15.111L11.1813 15.1108C11.1813 15.1107 11.1813 15.1107 11.1813 15.1107C10.9761 13.9473 11.7529 12.838 12.9162 12.6329C14.0796 12.4277 15.1889 13.2045 15.3941 14.3678C15.5595 15.3061 15.0864 16.2076 14.2888 16.6298C13.9715 16.7978 13.5782 16.6767 13.4102 16.3595C13.2423 16.0422 13.3633 15.6488 13.6806 15.4809C13.9943 15.3148 14.1784 14.9602 14.1138 14.5936C14.0333 14.1373 13.5982 13.8327 13.142 13.9131Z" fill="white"/>
</svg>
