<svg width="24" height="24" viewBox="0 0 24 24" fill="none" xmlns="http://www.w3.org/2000/svg">
<path d="M3 19.5C3 20.3284 3.67157 21 4.5 21L17.5 21C18.3284 21 19 20.3284 19 19.5L19 6.5C19 5.67157 18.3284 5 17.5 5H4.5C3.67157 5 3 5.67157 3 6.5L3 19.5Z" fill="white"/>
<path opacity="0.7" d="M3 19.5C3 20.3284 3.67157 21 4.5 21L17.5 21C18.3284 21 19 20.3284 19 19.5L19 6.5C19 5.67157 18.3284 5 17.5 5H4.5C3.67157 5 3 5.67157 3 6.5L3 19.5Z" fill="#208BF1"/>
<path d="M5 17.5C5 18.3284 5.67157 19 6.5 19H19.5C20.3284 19 21 18.3284 21 17.5L21 4.5C21 3.67157 20.3284 3 19.5 3H6.5C5.67157 3 5 3.67157 5 4.5L5 17.5Z" fill="#208BF1"/>
<path fill-rule="evenodd" clip-rule="evenodd" d="M17.0303 8.46967C17.3232 8.76256 17.3232 9.23744 17.0303 9.53033L13.3839 13.1768C12.8957 13.6649 12.1043 13.6649 11.6161 13.1768L9.96967 11.5303C9.67678 11.2374 9.67678 10.7626 9.96967 10.4697C10.2626 10.1768 10.7374 10.1768 11.0303 10.4697L12.5 11.9393L15.9697 8.46967C16.2626 8.17678 16.7374 8.17678 17.0303 8.46967Z" fill="white"/>
</svg>
