<svg width="24" height="24" viewBox="0 0 24 24" fill="none" xmlns="http://www.w3.org/2000/svg">
<path d="M5 19.5V6H19V19.5C19 20.3284 18.3284 21 17.5 21H6.5C5.67157 21 5 20.3284 5 19.5Z" fill="#FA5051"/>
<path d="M8 3H16" stroke="white" stroke-width="1.5" stroke-linecap="round"/>
<path opacity="0.7" d="M8 3H16" stroke="#FA5051" stroke-width="1.5" stroke-linecap="round"/>
<path d="M14 11V13.5V16M10 16V11" stroke="white" stroke-width="1.5" stroke-linecap="round"/>
<path d="M3.5 6H20.5" stroke="#FA5051" stroke-width="1.5" stroke-linecap="round"/>
<path d="M5 19.5V6H19V19.5C19 20.3284 18.3284 21 17.5 21H6.5C5.67157 21 5 20.3284 5 19.5Z" fill="#FA5051"/>
<path fill-rule="evenodd" clip-rule="evenodd" d="M7.25 3C7.25 2.58579 7.58579 2.25 8 2.25H16C16.4142 2.25 16.75 2.58579 16.75 3C16.75 3.41421 16.4142 3.75 16 3.75H8C7.58579 3.75 7.25 3.41421 7.25 3Z" fill="white"/>
<path opacity="0.7" fill-rule="evenodd" clip-rule="evenodd" d="M7.25 3C7.25 2.58579 7.58579 2.25 8 2.25H16C16.4142 2.25 16.75 2.58579 16.75 3C16.75 3.41421 16.4142 3.75 16 3.75H8C7.58579 3.75 7.25 3.41421 7.25 3Z" fill="#FA5051"/>
<path fill-rule="evenodd" clip-rule="evenodd" d="M10 10.25C10.4142 10.25 10.75 10.5858 10.75 11V16C10.75 16.4142 10.4142 16.75 10 16.75C9.58579 16.75 9.25 16.4142 9.25 16V11C9.25 10.5858 9.58579 10.25 10 10.25ZM14 10.25C14.4142 10.25 14.75 10.5858 14.75 11V16C14.75 16.4142 14.4142 16.75 14 16.75C13.5858 16.75 13.25 16.4142 13.25 16V11C13.25 10.5858 13.5858 10.25 14 10.25Z" fill="white"/>
<path fill-rule="evenodd" clip-rule="evenodd" d="M2.75 6C2.75 5.58579 3.08579 5.25 3.5 5.25H20.5C20.9142 5.25 21.25 5.58579 21.25 6C21.25 6.41421 20.9142 6.75 20.5 6.75H3.5C3.08579 6.75 2.75 6.41421 2.75 6Z" fill="#FA5051"/>
</svg>
