<svg width="24" height="24" viewBox="0 0 24 24" fill="none" xmlns="http://www.w3.org/2000/svg">
<path d="M21.0001 4.50002C21.0001 3.67159 20.3285 3.00002 19.5001 3.00002H4.50012C3.67169 3.00002 3.00012 3.67159 3.00012 4.50001V19.5C3.00012 20.3284 3.67169 21 4.50012 21H19.5001C20.3285 21 21.0001 20.3284 21.0001 19.5V4.50002Z" fill="#FA9D3B"/>
<path fill-rule="evenodd" clip-rule="evenodd" d="M21.0001 13.1564C20.2648 13.0798 19.5185 13.0405 18.7629 13.0405C12.5379 13.0405 6.93581 15.7071 3.03656 19.9605C3.17781 20.5565 3.71349 21 4.35275 21H19.6475C20.3945 21 21.0001 20.3944 21.0001 19.6474V13.1564Z" fill="white"/>
<path opacity="0.7" fill-rule="evenodd" clip-rule="evenodd" d="M21.0001 13.1564C20.2648 13.0798 19.5185 13.0405 18.7629 13.0405C12.5379 13.0405 6.93581 15.7071 3.03656 19.9605C3.17781 20.5565 3.71349 21 4.35275 21H19.6475C20.3945 21 21.0001 20.3944 21.0001 19.6474V13.1564Z" fill="#FA9D3B"/>
<path fill-rule="evenodd" clip-rule="evenodd" d="M15.25 6L15.25 9.5L14.45 8.9C14.1186 8.65147 13.6485 8.71862 13.4 9.05C13.1515 9.38137 13.2186 9.85147 13.55 10.1L15.49 11.555C15.7922 11.7817 16.2078 11.7817 16.51 11.555L18.45 10.1C18.7814 9.85147 18.8485 9.38136 18.6 9.04999C18.3515 8.71862 17.8814 8.65147 17.55 8.9L16.75 9.5L16.75 6C16.75 5.58579 16.4142 5.25 16 5.25C15.5858 5.25 15.25 5.58579 15.25 6ZM6.75 8.25C7.44036 8.25 8 7.69036 8 7C8 6.30964 7.44036 5.75 6.75 5.75C6.05964 5.75 5.5 6.30964 5.5 7C5.5 7.69036 6.05964 8.25 6.75 8.25Z" fill="white"/>
</svg>
