<svg width="24" height="24" viewBox="0 0 24 24" fill="none" xmlns="http://www.w3.org/2000/svg">
<path fill-rule="evenodd" clip-rule="evenodd" d="M14.75 5C14.75 4.58579 15.0858 4.25 15.5 4.25H19C19.9665 4.25 20.75 5.0335 20.75 6V7C20.75 7.41421 20.4142 7.75 20 7.75C19.5858 7.75 19.25 7.41421 19.25 7V6C19.25 5.86193 19.1381 5.75 19 5.75H15.5C15.0858 5.75 14.75 5.41421 14.75 5ZM20 16.25C20.4142 16.25 20.75 16.5858 20.75 17V18C20.75 18.9665 19.9665 19.75 19 19.75H15.5C15.0858 19.75 14.75 19.4142 14.75 19C14.75 18.5858 15.0858 18.25 15.5 18.25H19C19.1381 18.25 19.25 18.1381 19.25 18V17C19.25 16.5858 19.5858 16.25 20 16.25Z" fill="white"/>
<path opacity="0.7" fill-rule="evenodd" clip-rule="evenodd" d="M14.25 5C14.25 4.58579 14.5858 4.25 15 4.25H19C19.9665 4.25 20.75 5.0335 20.75 6V7C20.75 7.41421 20.4142 7.75 20 7.75C19.5858 7.75 19.25 7.41421 19.25 7V6C19.25 5.86193 19.1381 5.75 19 5.75H15C14.5858 5.75 14.25 5.41421 14.25 5ZM20 16.25C20.4142 16.25 20.75 16.5858 20.75 17V18C20.75 18.9665 19.9665 19.75 19 19.75H15C14.5858 19.75 14.25 19.4142 14.25 19C14.25 18.5858 14.5858 18.25 15 18.25H19C19.1381 18.25 19.25 18.1381 19.25 18V17C19.25 16.5858 19.5858 16.25 20 16.25Z" fill="#03C160"/>
<path fill-rule="evenodd" clip-rule="evenodd" d="M4.08 4.68497C3.44 4.87164 3 5.45831 3 6.12497V17.875C3 18.5416 3.44 19.1283 4.08 19.315L13.08 21.94C14.04 22.22 15 21.5 15 20.5V3.5C15 2.5 14.04 1.78 13.08 2.06L4.08 4.68497ZM21.61 11.98L20.65 12.7V10C20.65 9.64102 20.359 9.35001 20 9.35001C19.6411 9.35001 19.35 9.64102 19.35 10V12.7L18.39 11.98C18.1028 11.7646 17.6954 11.8228 17.48 12.11C17.2646 12.3972 17.3228 12.8046 17.61 13.02L19.55 14.475C19.8167 14.675 20.1833 14.675 20.45 14.475L22.39 13.02C22.6772 12.8046 22.7354 12.3972 22.52 12.11C22.3046 11.8228 21.8972 11.7646 21.61 11.98Z" fill="#03C160"/>
<path d="M11.1279 9.04298L9.62437 11.9071C9.59382 11.9653 9.59382 12.0348 9.62437 12.093L11.1279 14.9571C11.1979 15.0902 11.1013 15.25 10.9509 15.25H9.94075C9.86641 15.25 9.79821 15.2088 9.76366 15.143L8.845 13.3927L7.92634 15.143C7.89179 15.2088 7.82358 15.25 7.74925 15.25H6.73763C6.58722 15.25 6.49063 15.0902 6.56054 14.9571L8.06412 12.093C8.09467 12.0348 8.09467 11.9653 8.06412 11.9071L6.56054 9.04298C6.49063 8.9098 6.58722 8.75002 6.73763 8.75002H7.7492C7.82356 8.75002 7.89178 8.79127 7.92632 8.85712L8.84425 10.6073L9.76291 8.85707C9.79745 8.79124 9.86566 8.75002 9.94 8.75002H10.9509C11.1013 8.75002 11.1979 8.9098 11.1279 9.04298Z" fill="white"/>
</svg>
