<svg width="24" height="24" viewBox="0 0 24 24" fill="none" xmlns="http://www.w3.org/2000/svg">
<path d="M10.8847 2.06652C9.97658 2.16888 9.10612 2.39493 8.28784 2.72321C8.28784 2.72321 15.0351 9.37639 15.2147 9.6237V2.52877C15.0136 2.46058 14.8082 2.39919 14.6011 2.342C13.777 2.12105 12.9098 2 12.0154 2C11.6319 2 11.2553 2.02307 10.8847 2.06652Z" fill="#FA5452"/>
<path d="M18.2164 4.14048C17.5009 3.57413 16.7254 3.11877 15.9148 2.77588C15.9148 2.77588 15.9644 12.2314 15.9148 12.5334L20.9512 7.51604C20.8561 7.32529 20.755 7.13756 20.6481 6.95312C20.221 6.21627 19.6955 5.51946 19.063 4.89012C18.7925 4.62062 18.5091 4.3715 18.2164 4.14048Z" fill="#6467F0"/>
<path d="M14.3479 15.2047H21.4692C21.5376 15.0043 21.5994 14.7996 21.6558 14.5932C21.8782 13.7702 21.9999 12.9088 21.9999 12.0168C21.9999 11.6355 21.9759 11.2594 21.9322 10.8901C21.8295 9.98524 21.6036 9.11793 21.2731 8.30347C21.2731 8.30346 14.5979 15.0256 14.3479 15.2047Z" fill="#5283F0"/>
<path d="M16.4071 20.9697C16.5989 20.8751 16.7876 20.7744 16.9729 20.6678C17.7124 20.2438 18.4109 19.7194 19.0443 19.0883C19.3138 18.8196 19.563 18.5364 19.7957 18.2448C20.3632 17.5317 20.8212 16.76 21.1652 15.9514C21.1652 15.9514 11.6748 16.001 11.3708 15.9523L16.4071 20.9697Z" fill="#00B1FE"/>
<path d="M8.78613 14.376V21.4717H8.78613C8.9887 21.5401 9.19336 21.6021 9.39983 21.6577C10.225 21.8794 11.0904 22.0005 11.9857 22.0005C12.3674 22.0005 12.7448 21.9766 13.1146 21.934C14.0061 21.8327 14.8796 21.6115 15.7115 21.2764C15.7123 21.2764 8.96585 14.6251 8.78614 14.376L8.78613 14.376Z" fill="#66D020"/>
<path d="M8.07826 11.416L3.0437 16.4333C3.13794 16.6253 3.23982 16.8129 3.34677 16.9971C3.77222 17.7357 4.29853 18.4316 4.93196 19.0619C5.20158 19.3314 5.48577 19.5796 5.77847 19.8107C6.49482 20.3779 7.26779 20.8324 8.08096 21.1752C8.08093 21.1752 8.02953 11.7188 8.07826 11.416L8.07826 11.416Z" fill="#9AD122"/>
<path d="M2.34318 9.41152C2.12149 10.2337 2 11.096 2 11.9881C2 12.3684 2.02398 12.7453 2.06759 13.1138C2.17034 14.0195 2.3954 14.8869 2.72752 15.7005C2.72752 15.7005 9.40209 8.97832 9.652 8.80005H2.52979C2.46133 8.99957 2.39969 9.20511 2.34317 9.41152L2.34318 9.41152Z" fill="#FFC817"/>
<path d="M6.97964 3.37144C6.23844 3.79616 5.53996 4.32073 4.90825 4.95007C4.63608 5.22046 4.38789 5.5036 4.15593 5.79354C3.58754 6.50662 3.13052 7.27923 2.78564 8.08858C2.78564 8.08858 12.2778 8.03826 12.5809 8.08691L7.54535 3.06958C7.35371 3.16505 7.16448 3.26487 6.97963 3.37143L6.97964 3.37144Z" fill="#FF7612"/>
</svg>
