<svg width="24" height="24" viewBox="0 0 24 24" fill="none" xmlns="http://www.w3.org/2000/svg">
<path d="M3 19.5C3 20.3284 3.67157 21 4.5 21L17.5 21C18.3284 21 19 20.3284 19 19.5L19 6.5C19 5.67157 18.3284 5 17.5 5H4.5C3.67157 5 3 5.67157 3 6.5L3 19.5Z" fill="white"/>
<path opacity="0.7" d="M3 19.5C3 20.3284 3.67157 21 4.5 21L17.5 21C18.3284 21 19 20.3284 19 19.5L19 6.5C19 5.67157 18.3284 5 17.5 5H4.5C3.67157 5 3 5.67157 3 6.5L3 19.5Z" fill="#208BF1"/>
<path d="M5 17.5C5 18.3284 5.67157 19 6.5 19L19.5 19C20.3284 19 21 18.3284 21 17.5L21 4.5C21 3.67157 20.3284 3 19.5 3H6.5C5.67157 3 5 3.67157 5 4.5L5 17.5Z" fill="#208BF1"/>
<path d="M14.3949 7.40468L16.9518 10.2813C17.1937 10.5534 17.1816 10.9669 16.9241 11.2244L14.3845 13.764C14.222 13.9265 13.9442 13.8114 13.9442 13.5817V12.0553C11.9017 12.0553 10.3985 12.7293 9.43447 14.1843C9.2751 14.4248 8.83946 14.3191 8.87649 14.033C9.27026 10.9899 10.9595 9.04671 13.9443 9.04671L13.9443 7.57601C13.9443 7.33888 14.2373 7.22746 14.3949 7.40468Z" fill="white"/>
<path d="M3 19.5C3 20.3284 3.67157 21 4.5 21L17.5 21C18.3284 21 19 20.3284 19 19.5L19 6.5C19 5.67157 18.3284 5 17.5 5H4.5C3.67157 5 3 5.67157 3 6.5L3 19.5Z" fill="white"/>
<path opacity="0.7" d="M3 19.5C3 20.3284 3.67157 21 4.5 21L17.5 21C18.3284 21 19 20.3284 19 19.5L19 6.5C19 5.67157 18.3284 5 17.5 5H4.5C3.67157 5 3 5.67157 3 6.5L3 19.5Z" fill="#208BF1"/>
<path d="M5 17.5C5 18.3284 5.67157 19 6.5 19H19.5C20.3284 19 21 18.3284 21 17.5L21 4.5C21 3.67157 20.3284 3 19.5 3H6.5C5.67157 3 5 3.67157 5 4.5L5 17.5Z" fill="#208BF1"/>
<path d="M14.3949 7.40468L16.9518 10.2813C17.1937 10.5534 17.1816 10.9669 16.9241 11.2244L14.3845 13.764C14.222 13.9265 13.9442 13.8114 13.9442 13.5817V12.0553C11.9017 12.0553 10.3985 12.7293 9.43447 14.1843C9.2751 14.4248 8.83946 14.3191 8.87649 14.033C9.27026 10.9899 10.9595 9.04671 13.9443 9.04671L13.9443 7.57601C13.9443 7.33888 14.2373 7.22746 14.3949 7.40468Z" fill="white"/>
</svg>
