<svg width="24" height="24" viewBox="0 0 24 24" fill="none" xmlns="http://www.w3.org/2000/svg">
<path d="M12.0001 1.99997C6.47727 1.99997 2.00012 6.47712 2.00012 12C2.00012 17.5228 6.47727 22 12.0001 22C17.523 22 22.0001 17.5228 22.0001 12C22.0001 6.47712 17.523 1.99997 12.0001 1.99997Z" fill="#FF6045"/>
<path fill-rule="evenodd" clip-rule="evenodd" d="M17.1458 3.42365L12 12H22.0002C22.0002 12 22.0002 12 22.0002 11.9999C22.0002 8.35896 20.0544 5.17245 17.1458 3.42365ZM17.1458 20.5763L12 12L12 12L12 12L6.85428 3.42386C3.94595 5.17272 2.00024 8.35911 2.00024 11.9999C2.00024 12 2.00024 12 2.00024 12H11.9999L6.85432 20.5761C8.35768 21.4801 10.1182 21.9999 12.0002 21.9999C13.8821 21.9999 15.6425 21.4801 17.1458 20.5763Z" fill="white"/>
<path opacity="0.7" fill-rule="evenodd" clip-rule="evenodd" d="M17.1458 3.42365L12 12H22.0002C22.0002 12 22.0002 12 22.0002 11.9999C22.0002 8.35896 20.0544 5.17245 17.1458 3.42365ZM17.1458 20.5763L12 12L12 12L12 12L6.85428 3.42386C3.94595 5.17272 2.00024 8.35911 2.00024 11.9999C2.00024 12 2.00024 12 2.00024 12H11.9999L6.85432 20.5761C8.35768 21.4801 10.1182 21.9999 12.0002 21.9999C13.8821 21.9999 15.6425 21.4801 17.1458 20.5763Z" fill="#FF6045"/>
<path d="M14 12C14 13.1046 13.1046 14 12 14C10.8954 14 10 13.1046 10 12C10 10.8954 12 7.5 12 7.5C12 7.5 14 10.8954 14 12Z" fill="white"/>
</svg>
