<svg width="24" height="24" viewBox="0 0 24 24" fill="none" xmlns="http://www.w3.org/2000/svg">
<path fill-rule="evenodd" clip-rule="evenodd" d="M15.25 2.5C15.25 2.08579 15.5858 1.75 16 1.75C17.7977 1.75 19.2453 3.12079 20.1992 4.93318C21.1713 6.7802 21.75 9.27995 21.75 12C21.75 14.7201 21.1713 17.2198 20.1992 19.0668C19.2453 20.8792 17.7977 22.25 16 22.25C15.5858 22.25 15.25 21.9142 15.25 21.5C15.25 21.0858 15.5858 20.75 16 20.75C16.9637 20.75 18.0161 19.9941 18.8718 18.3682C19.7094 16.7769 20.25 14.5267 20.25 12C20.25 9.47335 19.7094 7.2231 18.8718 5.6318C18.0161 4.00586 16.9637 3.25 16 3.25C15.5858 3.25 15.25 2.91421 15.25 2.5Z" fill="white"/>
<path opacity="0.7" fill-rule="evenodd" clip-rule="evenodd" d="M15.25 2.5C15.25 2.08579 15.5858 1.75 16 1.75C17.7977 1.75 19.2453 3.12079 20.1992 4.93318C21.1713 6.7802 21.75 9.27995 21.75 12C21.75 14.7201 21.1713 17.2198 20.1992 19.0668C19.2453 20.8792 17.7977 22.25 16 22.25C15.5858 22.25 15.25 21.9142 15.25 21.5C15.25 21.0858 15.5858 20.75 16 20.75C16.9637 20.75 18.0161 19.9941 18.8718 18.3682C19.7094 16.7769 20.25 14.5267 20.25 12C20.25 9.47335 19.7094 7.2231 18.8718 5.6318C18.0161 4.00586 16.9637 3.25 16 3.25C15.5858 3.25 15.25 2.91421 15.25 2.5Z" fill="#FA9D3B"/>
<path fill-rule="evenodd" clip-rule="evenodd" d="M3.5 4H14.5C14.5 4 19 4 19 12C19 20 14.5 20 14.5 20H3.5C2.67157 20 2 19.3284 2 18.5V14.4604C2 14.2178 2.17747 14.0162 2.40291 13.9265C3.16859 13.622 3.70984 12.8742 3.70984 12C3.70984 11.1258 3.16859 10.378 2.40291 10.0735C2.17747 9.9838 2 9.78223 2 9.53962V5.5C2 4.67157 2.67157 4 3.5 4Z" fill="#FA9D3B"/>
<path fill-rule="evenodd" clip-rule="evenodd" d="M8 8.75C8.41421 8.75 8.75 9.08579 8.75 9.5V14.5C8.75 14.9142 8.41421 15.25 8 15.25C7.58579 15.25 7.25 14.9142 7.25 14.5V9.5C7.25 9.08579 7.58579 8.75 8 8.75Z" fill="white"/>
</svg>
