<svg width="24" height="24" viewBox="0 0 24 24" fill="none" xmlns="http://www.w3.org/2000/svg">
<path d="M19.5 19.5C19.5 20.3284 18.8284 21 18 21H6C5.17157 21 4.5 20.3284 4.5 19.5V17H19.5V19.5Z" fill="white"/>
<path opacity="0.7" d="M19.5 19.5C19.5 20.3284 18.8284 21 18 21H6C5.17157 21 4.5 20.3284 4.5 19.5V17H19.5V19.5Z" fill="#208BF1"/>
<path d="M21 4.5C21 3.67157 20.3284 3 19.5 3H4.5C3.67157 3 3 3.67157 3 4.5V17.5C3 18.3284 3.67157 19 4.5 19H19.5C20.3284 19 21 18.3284 21 17.5V4.5Z" fill="#208BF1"/>
<path fill-rule="evenodd" clip-rule="evenodd" d="M16.4217 8.70197C16.7146 8.99487 16.7146 9.46974 16.4217 9.76263L14.4564 11.7279C13.9238 12.2605 13.1101 12.3925 12.4364 12.0557L10.8973 11.2861C10.801 11.238 10.6848 11.2569 10.6087 11.3329L8.6435 13.2982C8.3506 13.5911 7.87573 13.5911 7.58284 13.2982C7.28994 13.0053 7.28994 12.5304 7.58284 12.2375L9.54806 10.2723C10.0807 9.73966 10.8944 9.60761 11.5681 9.94448L13.1072 10.714C13.2035 10.7621 13.3197 10.7433 13.3958 10.6672L15.361 8.70197C15.6539 8.40908 16.1288 8.40908 16.4217 8.70197Z" fill="white"/>
</svg>
