<svg width="24" height="24" viewBox="0 0 24 24" fill="none" xmlns="http://www.w3.org/2000/svg">
<path fill-rule="evenodd" clip-rule="evenodd" d="M8 3.5C8 2.67157 8.67157 2 9.5 2H14.5C15.3284 2 16 2.67157 16 3.5V9H8V3.5Z" fill="white"/>
<path opacity="0.7" fill-rule="evenodd" clip-rule="evenodd" d="M8 3.5C8 2.67157 8.67157 2 9.5 2H14.5C15.3284 2 16 2.67157 16 3.5V9H8V3.5Z" fill="#03C160"/>
<path fill-rule="evenodd" clip-rule="evenodd" d="M5.38909 8C4.60528 8 3.95362 8.60346 3.8935 9.38496L3.2071 18.3083C3.09541 19.7602 4.24346 21 5.69973 21H9.60872C9.12537 20.3637 8.83851 19.5699 8.83851 18.7092V16.6559C8.83851 16.2779 9.14495 15.9715 9.52296 15.9715C9.90097 15.9715 10.2074 16.2779 10.2074 16.6559V18.7092C10.2074 19.7709 10.8906 20.673 11.8413 21H14.8737C14.3904 20.3637 14.1035 19.5699 14.1035 18.7092V16.6559C14.1035 16.2779 14.4099 15.9715 14.7879 15.9715C15.166 15.9715 15.4724 16.2779 15.4724 16.6559V18.7092C15.4724 19.7709 16.1555 20.673 17.1062 21H22.5C21.5525 20.3683 20.9457 19.3382 20.8526 18.2033L20.1285 9.37734C20.0646 8.59909 19.4144 8 18.6335 8H5.38909Z" fill="#03C160"/>
</svg>
