<svg width="24" height="24" viewBox="0 0 24 24" fill="none" xmlns="http://www.w3.org/2000/svg">
<path d="M20.4001 19.35C20.4001 20.0679 19.8181 20.65 19.1001 20.65H4.9001C4.18213 20.65 3.6001 20.0679 3.6001 19.35V7.34998H20.4001V19.35Z" fill="#6367F0"/>
<path d="M21.6501 4.65001C21.6501 3.93204 21.0681 3.35001 20.3501 3.35001H3.6501C2.93213 3.35001 2.3501 3.93204 2.3501 4.65001V7.35001C2.3501 8.06798 2.93213 8.65001 3.6501 8.65001H20.3501C21.0681 8.65001 21.6501 8.06798 21.6501 7.35001V4.65001Z" fill="white"/>
<path opacity="0.7" d="M21.6501 4.65001C21.6501 3.93204 21.0681 3.35001 20.3501 3.35001H3.6501C2.93213 3.35001 2.3501 3.93204 2.3501 4.65001V7.35001C2.3501 8.06798 2.93213 8.65001 3.6501 8.65001H20.3501C21.0681 8.65001 21.6501 8.06798 21.6501 7.35001V4.65001Z" fill="#6367F0"/>
<path fill-rule="evenodd" clip-rule="evenodd" d="M12 12.15C11.1163 12.15 10.4 12.8664 10.4 13.75C10.4 14.6337 11.1163 15.35 12 15.35C12.4921 15.35 12.9318 15.1287 13.2263 14.7777C13.4599 14.4994 13.6 14.1419 13.6 13.75C13.6 12.8664 12.8836 12.15 12 12.15ZM9.09998 13.75C9.09998 12.1484 10.3983 10.85 12 10.85C13.6016 10.85 14.9 12.1484 14.9 13.75C14.9 14.2442 14.7759 14.7103 14.5575 15.118L15.4647 16.0455C15.7157 16.3022 15.7111 16.7137 15.4545 16.9647C15.1978 17.2157 14.7863 17.2111 14.5353 16.9545L13.6995 16.1C13.2222 16.4456 12.6348 16.65 12 16.65C10.3983 16.65 9.09998 15.3516 9.09998 13.75Z" fill="white"/>
</svg>
