<svg width="24" height="24" viewBox="0 0 24 24" fill="none" xmlns="http://www.w3.org/2000/svg">
<path d="M18.5 2C19.3284 2 20 2.67157 20 3.5V14.2506C20 14.4907 19.6784 14.6048 19.5072 14.4364C18.6047 13.5481 17.3664 13 16 13C13.2386 13 11 15.2386 11 18C11 19.3664 11.5481 20.6047 12.4364 21.5072C12.6049 21.6784 12.4907 22 12.2506 22H5.5C4.67157 22 4 21.3284 4 20.5V3.5C4 2.67157 4.67157 2 5.5 2H18.5Z" fill="#00C777"/>
<path fill-rule="evenodd" clip-rule="evenodd" d="M7.25 6.5C7.25 6.08579 7.58579 5.75 8 5.75H16C16.4142 5.75 16.75 6.08579 16.75 6.5C16.75 6.91421 16.4142 7.25 16 7.25H8C7.58579 7.25 7.25 6.91421 7.25 6.5Z" fill="white"/>
<path fill-rule="evenodd" clip-rule="evenodd" d="M7.25 10.5C7.25 10.0858 7.58579 9.75 8 9.75H12C12.4142 9.75 12.75 10.0858 12.75 10.5C12.75 10.9142 12.4142 11.25 12 11.25H8C7.58579 11.25 7.25 10.9142 7.25 10.5Z" fill="white"/>
<path fill-rule="evenodd" clip-rule="evenodd" d="M20 18C20 18.8335 19.7451 19.6075 19.3089 20.2482L20.3588 21.2981C20.6517 21.591 20.6517 22.0659 20.3588 22.3588C20.0659 22.6516 19.591 22.6516 19.2981 22.3588L18.2482 21.3089C17.6075 21.745 16.8335 22 16 22C13.7909 22 12 20.2091 12 18C12 15.7909 13.7909 14 16 14C18.2091 14 20 15.7909 20 18ZM16 20.5C17.3807 20.5 18.5 19.3807 18.5 18C18.5 16.6193 17.3807 15.5 16 15.5C14.6193 15.5 13.5 16.6193 13.5 18C13.5 19.3807 14.6193 20.5 16 20.5Z" fill="#00C777"/>
<path fill-rule="evenodd" clip-rule="evenodd" d="M20 18C20 18.8335 19.7451 19.6075 19.3089 20.2482L20.3588 21.2981C20.6517 21.591 20.6517 22.0659 20.3588 22.3588C20.0659 22.6516 19.591 22.6516 19.2981 22.3588L18.2482 21.3089C17.6075 21.745 16.8335 22 16 22C13.7909 22 12 20.2091 12 18C12 15.7909 13.7909 14 16 14C18.2091 14 20 15.7909 20 18ZM16 20.5C17.3807 20.5 18.5 19.3807 18.5 18C18.5 16.6193 17.3807 15.5 16 15.5C14.6193 15.5 13.5 16.6193 13.5 18C13.5 19.3807 14.6193 20.5 16 20.5Z" fill="white" fill-opacity="0.3"/>
</svg>
