<svg width="24" height="24" viewBox="0 0 24 24" fill="none" xmlns="http://www.w3.org/2000/svg">
<path d="M13.335 21.7549C14.0402 22.162 14.9415 21.9321 15.3655 21.237L21 12L11.4773 20.6824L13.335 21.7549Z" fill="white"/>
<path opacity="0.7" d="M13.335 21.7549C14.0402 22.162 14.9415 21.9321 15.3655 21.237L21 12L11.4773 20.6824L13.335 21.7549Z" fill="#03C160"/>
<path d="M21.1269 12.6392C21.4574 12.3087 21.6149 11.8431 21.553 11.3799L20.6519 4.63626C20.5623 3.96548 20.0346 3.43779 19.3638 3.34814L12.62 2.44689C12.1568 2.38498 11.6911 2.54253 11.3607 2.87301L2.71192 11.5218C2.12614 12.1076 2.12614 13.0573 2.71192 13.6431L10.3568 21.288C10.9426 21.8738 11.8923 21.8738 12.4781 21.288L21.1269 12.6392Z" fill="#03C160"/>
<path d="M18.1339 7.63389C17.6457 8.12204 16.8543 8.12204 16.3661 7.63389C15.878 7.14573 15.878 6.35427 16.3661 5.86612C16.8543 5.37796 17.6457 5.37796 18.1339 5.86612C18.622 6.35427 18.622 7.14573 18.1339 7.63389Z" fill="white"/>
</svg>
