<svg width="24" height="24" viewBox="0 0 24 24" fill="none" xmlns="http://www.w3.org/2000/svg">
<path d="M13.335 21.7549C14.0402 22.162 14.9415 21.9321 15.3655 21.237L21 12L11.4773 20.6824L13.335 21.7549Z" fill="white"/>
<path opacity="0.7" d="M13.335 21.7549C14.0402 22.162 14.9415 21.9321 15.3655 21.237L21 12L11.4773 20.6824L13.335 21.7549Z" fill="#FA9D3B"/>
<path d="M21.1268 12.6392C21.4572 12.3087 21.6148 11.8431 21.5529 11.3799L20.6518 4.63626C20.5622 3.96548 20.0345 3.43779 19.3637 3.34814L12.6199 2.44689C12.1567 2.38498 11.691 2.54253 11.3605 2.87301L2.7118 11.5218C2.12602 12.1076 2.12601 13.0573 2.7118 13.6431L10.3567 21.288C10.9425 21.8738 11.8922 21.8738 12.478 21.288L21.1268 12.6392Z" fill="#FA9D3B"/>
<path d="M18.1339 7.63389C17.6457 8.12204 16.8543 8.12204 16.3661 7.63389C15.878 7.14573 15.878 6.35427 16.3661 5.86612C16.8543 5.37796 17.6457 5.37796 18.1339 5.86612C18.622 6.35427 18.622 7.14573 18.1339 7.63389Z" fill="white"/>
<path fill-rule="evenodd" clip-rule="evenodd" d="M12.6336 7.90308C13.045 7.95054 13.3401 8.32259 13.2927 8.73408L13.0345 10.9726L15.2963 10.7308C15.7082 10.6868 16.0778 10.985 16.1218 11.3968C16.1658 11.8087 15.8676 12.1783 15.4558 12.2223L13.1828 12.4653L13.6329 12.9154C13.9258 13.2083 13.9258 13.6832 13.6329 13.9761C13.34 14.269 12.8651 14.269 12.5723 13.9761L11.8284 13.2322L11.3211 13.7395L12.2171 14.6355C12.51 14.9284 12.51 15.4033 12.2171 15.6961C11.9242 15.989 11.4493 15.989 11.1565 15.6961L10.2605 14.8002L9.53031 15.5303C9.23742 15.8232 8.76254 15.8232 8.46965 15.5303C8.17676 15.2374 8.17676 14.7626 8.46965 14.4697L9.19981 13.7395L8.32802 12.8677C8.03513 12.5748 8.03513 12.1 8.32802 11.8071C8.62092 11.5142 9.09579 11.5142 9.38868 11.8071L10.2605 12.6788L10.7677 12.1716L10.0339 11.4378C9.74105 11.1449 9.74105 10.67 10.0339 10.3771C10.3268 10.0842 10.8017 10.0842 11.0946 10.3771L11.5416 10.8241L11.8025 8.56219C11.85 8.15071 12.2221 7.85561 12.6336 7.90308Z" fill="white"/>
</svg>
