<svg width="24" height="24" viewBox="0 0 24 24" fill="none" xmlns="http://www.w3.org/2000/svg">
<path fill-rule="evenodd" clip-rule="evenodd" d="M12 9.4379C11.1708 7.87563 10.2247 6.42966 9.23412 5.27182C8.46839 4.3768 7.62264 3.59073 6.72551 3.07456C5.83026 2.55948 4.72999 2.23114 3.58792 2.55753C2.56135 2.85092 1.96579 3.64454 1.64578 4.40544C1.33065 5.1547 1.20376 6.03513 1.17415 6.90458C1.11439 8.65909 1.44019 10.7846 1.97125 12.7695C2.50151 14.7514 3.27408 16.7339 4.19262 18.1738C4.64584 18.8842 5.20068 19.5683 5.87001 20.0242C6.57607 20.5051 7.53705 20.8006 8.55714 20.3926C10.1242 19.7659 11.2158 18.2204 11.8985 17.0125C11.9329 16.9517 11.9667 16.8908 12 16.8299C12.0333 16.8908 12.0671 16.9517 12.1015 17.0125C12.7842 18.2204 13.8759 19.7659 15.4429 20.3926C16.6512 20.8759 17.7398 20.3769 18.4626 19.7721C19.0979 19.2404 19.182 18.2944 18.6503 17.6591C18.1187 17.0238 17.1727 16.9397 16.5373 17.4714C16.4963 17.5057 16.4615 17.5313 16.4333 17.55C15.9157 17.2799 15.3051 16.5836 14.7133 15.5364C14.1868 14.6049 13.8047 13.6314 13.5995 13.0543C14.5558 10.7929 15.8009 8.6768 17.0455 7.22209C17.6887 6.47023 18.2786 5.95796 18.7706 5.67489C19.1656 5.44764 19.3997 5.42016 19.519 5.4301C19.5398 5.46299 19.5697 5.51811 19.6032 5.60384C19.9053 6.37524 20.7755 6.75572 21.5469 6.45366C22.3183 6.15161 22.6988 5.2814 22.3967 4.51001C22.0859 3.71631 21.4867 2.86463 20.4121 2.55753C19.27 2.23114 18.1698 2.55948 17.2745 3.07456C16.3774 3.59073 15.5316 4.3768 14.7659 5.27182C13.7753 6.42966 12.8293 7.87563 12 9.4379ZM5.22941 5.67489C4.83339 5.44704 4.59909 5.42002 4.48009 5.43018C4.46289 5.45778 4.43925 5.50168 4.41116 5.56848C4.29489 5.84493 4.19588 6.31739 4.17241 7.00669C4.12599 8.36967 4.3853 10.1851 4.86932 11.9941C5.35414 13.8062 6.02661 15.4706 6.72178 16.5603C7.07542 17.1146 7.36959 17.4158 7.55878 17.5447L7.56669 17.55C8.0843 17.2799 8.69497 16.5836 9.28678 15.5364C9.81327 14.6049 10.1953 13.6314 10.4005 13.0543C9.44422 10.7929 8.19912 8.6768 6.95455 7.22209C6.3113 6.47023 5.72142 5.95796 5.22941 5.67489ZM4.50246 5.39813C4.50788 5.39152 4.51095 5.38945 4.51095 5.38945C4.51095 5.38945 4.50837 5.39317 4.50246 5.39813Z" fill="#FA9D3B"/>
<path d="M20.5096 7.20817C20.1847 7.10563 19.8469 7.35027 19.8265 7.69036C19.8114 7.94277 19.7868 8.26007 19.7466 8.63503L22.6709 9.47355C22.7324 9.01058 22.7758 8.61306 22.8033 8.33935C22.8266 8.10748 22.6825 7.89396 22.4603 7.82382L20.5096 7.20817Z" fill="white"/>
<path d="M22.5231 10.4715L19.6178 9.6384C19.5563 10.0524 19.4785 10.508 19.38 11C19.0558 12.6211 18.4162 14.1766 18.1855 14.7077C18.1319 14.8313 18.1271 14.971 18.1751 15.0969L18.7053 16.4887C18.8099 16.7634 19.1276 16.889 19.3917 16.7601L20.8076 16.0695C20.9003 16.0243 20.9761 15.9519 21.0194 15.8583C21.1887 15.4915 21.6513 14.3696 22.22 12C22.34 11.5004 22.4404 10.9738 22.5231 10.4715Z" fill="white"/>
<g opacity="0.7">
<path d="M20.5096 7.20817C20.1847 7.10563 19.8469 7.35027 19.8265 7.69036C19.8114 7.94277 19.7868 8.26007 19.7466 8.63503L22.6709 9.47355C22.7324 9.01058 22.7758 8.61306 22.8033 8.33935C22.8266 8.10748 22.6825 7.89396 22.4603 7.82382L20.5096 7.20817Z" fill="#FA9D3B"/>
<path d="M22.5231 10.4715L19.6178 9.6384C19.5563 10.0524 19.4785 10.508 19.38 11C19.0558 12.6211 18.4162 14.1766 18.1855 14.7077C18.1319 14.8313 18.1271 14.971 18.1751 15.0969L18.7053 16.4887C18.8099 16.7634 19.1276 16.889 19.3917 16.7601L20.8076 16.0695C20.9003 16.0243 20.9761 15.9519 21.0194 15.8583C21.1887 15.4915 21.6513 14.3696 22.22 12C22.34 11.5004 22.4404 10.9738 22.5231 10.4715Z" fill="#FA9D3B"/>
</g>
</svg>
