<svg width="24" height="24" viewBox="0 0 24 24" fill="none" xmlns="http://www.w3.org/2000/svg">
<path d="M12 2.35004C6.67043 2.35004 2.34998 6.67049 2.34998 12C2.34998 17.3296 6.67043 21.65 12 21.65C17.3295 21.65 21.65 17.3296 21.65 12C21.65 6.67049 17.3295 2.35004 12 2.35004Z" fill="#208BF1"/>
<path fill-rule="evenodd" clip-rule="evenodd" d="M10.4161 20.4994C10.1403 20.7292 9.73048 20.6919 9.50066 20.4161L10 20C9.50066 20.4161 9.50091 20.4164 9.50066 20.4161L9.49964 20.4149L9.49844 20.4134L9.49549 20.4099L9.48748 20.4C9.48121 20.3922 9.47312 20.3819 9.46333 20.3693C9.44374 20.3439 9.41735 20.3088 9.38514 20.2638C9.32073 20.1736 9.23307 20.0435 9.13014 19.8719C8.92421 19.5287 8.65743 19.02 8.39333 18.3333C7.86454 16.9585 7.35001 14.8794 7.35001 12C7.35001 9.12065 7.86454 7.04152 8.39333 5.66667C8.65743 4.98003 8.92421 4.4713 9.13014 4.12809C9.23307 3.95653 9.32073 3.82645 9.38515 3.73627C9.41735 3.69118 9.44375 3.65606 9.46333 3.63074C9.47312 3.61807 9.48121 3.60785 9.48748 3.60005L9.49549 3.59016L9.49844 3.58657L9.49964 3.58512C9.49989 3.58482 9.50067 3.58389 10 4.00001L9.50067 3.58389C9.73048 3.30811 10.1403 3.27085 10.4161 3.50066C10.691 3.72976 10.7289 4.13779 10.5015 4.41354C10.5017 4.41332 10.5014 4.41368 10.5015 4.41354L10.4918 4.42592C10.4821 4.43848 10.4655 4.4604 10.443 4.49187C10.398 4.55482 10.3294 4.65599 10.2449 4.79693C10.0758 5.07872 9.84259 5.51999 9.60668 6.13334C9.13547 7.35849 8.65001 9.27937 8.65001 12C8.65001 14.7207 9.13547 16.6415 9.60668 17.8667C9.84259 18.48 10.0758 18.9213 10.2449 19.2031C10.3294 19.344 10.398 19.4452 10.443 19.5081C10.4655 19.5396 10.4821 19.5615 10.4918 19.5741L10.5011 19.5859M10.5002 19.5849L10.5011 19.5859L10.5002 19.5849Z" fill="white"/>
<path fill-rule="evenodd" clip-rule="evenodd" d="M13.5839 20.4994C13.8597 20.7292 14.2695 20.6919 14.4993 20.4161L14 20C14.4993 20.4161 14.4991 20.4164 14.4993 20.4161L14.5004 20.4149L14.5016 20.4134L14.5045 20.4099L14.5125 20.4C14.5188 20.3922 14.5269 20.3819 14.5367 20.3693C14.5563 20.3439 14.5826 20.3088 14.6149 20.2638C14.6793 20.1736 14.7669 20.0435 14.8699 19.8719C15.0758 19.5287 15.3426 19.02 15.6067 18.3333C16.1355 16.9585 16.65 14.8794 16.65 12C16.65 9.12065 16.1355 7.04152 15.6067 5.66667C15.3426 4.98003 15.0758 4.4713 14.8699 4.12809C14.7669 3.95653 14.6793 3.82645 14.6149 3.73627C14.5826 3.69118 14.5563 3.65606 14.5367 3.63074C14.5269 3.61807 14.5188 3.60785 14.5125 3.60005L14.5045 3.59016L14.5016 3.58657L14.5004 3.58512C14.5001 3.58482 14.4993 3.58389 14 4.00001L14.4993 3.58389C14.2695 3.30811 13.8597 3.27085 13.5839 3.50066C13.309 3.72976 13.2711 4.13779 13.4985 4.41354C13.4983 4.41332 13.4986 4.41368 13.4985 4.41354L13.5082 4.42592C13.5179 4.43848 13.5345 4.4604 13.557 4.49187C13.602 4.55482 13.6706 4.65599 13.7551 4.79693C13.9242 5.07872 14.1574 5.51999 14.3933 6.13334C14.8645 7.35849 15.35 9.27937 15.35 12C15.35 14.7207 14.8645 16.6415 14.3933 17.8667C14.1574 18.48 13.9242 18.9213 13.7551 19.2031C13.6706 19.344 13.602 19.4452 13.557 19.5081C13.5345 19.5396 13.5179 19.5615 13.5082 19.5741L13.4989 19.5859M13.4998 19.5849L13.4989 19.5859L13.4998 19.5849Z" fill="white"/>
<path opacity="0.7" fill-rule="evenodd" clip-rule="evenodd" d="M10.4161 20.4994C10.1403 20.7292 9.73048 20.6919 9.50066 20.4161L10 20C9.50066 20.4161 9.50091 20.4164 9.50066 20.4161L9.49964 20.4149L9.49844 20.4134L9.49549 20.4099L9.48748 20.4C9.48121 20.3922 9.47312 20.3819 9.46333 20.3693C9.44374 20.3439 9.41735 20.3088 9.38514 20.2638C9.32073 20.1736 9.23307 20.0435 9.13014 19.8719C8.92421 19.5287 8.65743 19.02 8.39333 18.3333C7.86454 16.9585 7.35001 14.8794 7.35001 12C7.35001 9.12065 7.86454 7.04152 8.39333 5.66667C8.65743 4.98003 8.92421 4.4713 9.13014 4.12809C9.23307 3.95653 9.32073 3.82645 9.38515 3.73627C9.41735 3.69118 9.44375 3.65606 9.46333 3.63074C9.47312 3.61807 9.48121 3.60785 9.48748 3.60005L9.49549 3.59016L9.49844 3.58657L9.49964 3.58512C9.49989 3.58482 9.50067 3.58389 10 4.00001L9.50067 3.58389C9.73048 3.30811 10.1403 3.27085 10.4161 3.50066C10.691 3.72976 10.7289 4.13779 10.5015 4.41354C10.5017 4.41332 10.5014 4.41368 10.5015 4.41354L10.4918 4.42592C10.4821 4.43848 10.4655 4.4604 10.443 4.49187C10.398 4.55482 10.3294 4.65599 10.2449 4.79693C10.0758 5.07872 9.84259 5.51999 9.60668 6.13334C9.13547 7.35849 8.65001 9.27937 8.65001 12C8.65001 14.7207 9.13547 16.6415 9.60668 17.8667C9.84259 18.48 10.0758 18.9213 10.2449 19.2031C10.3294 19.344 10.398 19.4452 10.443 19.5081C10.4655 19.5396 10.4821 19.5615 10.4918 19.5741L10.5011 19.5859M10.5002 19.5849L10.5011 19.5859L10.5002 19.5849Z" fill="#208BF1"/>
<path opacity="0.7" fill-rule="evenodd" clip-rule="evenodd" d="M13.5839 20.4994C13.8597 20.7292 14.2695 20.6919 14.4993 20.4161L14 20C14.4993 20.4161 14.4991 20.4164 14.4993 20.4161L14.5004 20.4149L14.5016 20.4134L14.5045 20.4099L14.5125 20.4C14.5188 20.3922 14.5269 20.3819 14.5367 20.3693C14.5563 20.3439 14.5826 20.3088 14.6149 20.2638C14.6793 20.1736 14.7669 20.0435 14.8699 19.8719C15.0758 19.5287 15.3426 19.02 15.6067 18.3333C16.1355 16.9585 16.65 14.8794 16.65 12C16.65 9.12065 16.1355 7.04152 15.6067 5.66667C15.3426 4.98003 15.0758 4.4713 14.8699 4.12809C14.7669 3.95653 14.6793 3.82645 14.6149 3.73627C14.5826 3.69118 14.5563 3.65606 14.5367 3.63074C14.5269 3.61807 14.5188 3.60785 14.5125 3.60005L14.5045 3.59016L14.5016 3.58657L14.5004 3.58512C14.5001 3.58482 14.4993 3.58389 14 4.00001L14.4993 3.58389C14.2695 3.30811 13.8597 3.27085 13.5839 3.50066C13.309 3.72976 13.2711 4.13779 13.4985 4.41354C13.4983 4.41332 13.4986 4.41368 13.4985 4.41354L13.5082 4.42592C13.5179 4.43848 13.5345 4.4604 13.557 4.49187C13.602 4.55482 13.6706 4.65599 13.7551 4.79693C13.9242 5.07872 14.1574 5.51999 14.3933 6.13334C14.8645 7.35849 15.35 9.27937 15.35 12C15.35 14.7207 14.8645 16.6415 14.3933 17.8667C14.1574 18.48 13.9242 18.9213 13.7551 19.2031C13.6706 19.344 13.602 19.4452 13.557 19.5081C13.5345 19.5396 13.5179 19.5615 13.5082 19.5741L13.4989 19.5859M13.4998 19.5849L13.4989 19.5859L13.4998 19.5849Z" fill="#208BF1"/>
<path fill-rule="evenodd" clip-rule="evenodd" d="M20.4994 11.5839C20.7292 11.8597 20.6919 12.2695 20.4161 12.4993L20 12C20.4161 12.4993 20.4164 12.4991 20.4161 12.4993L20.4149 12.5004L20.4134 12.5016L20.4099 12.5045L20.4 12.5125C20.3922 12.5188 20.3819 12.5269 20.3693 12.5367C20.3439 12.5563 20.3088 12.5826 20.2638 12.6149C20.1736 12.6793 20.0435 12.7669 19.8719 12.8699C19.5287 13.0758 19.02 13.3426 18.3333 13.6067C16.9585 14.1355 14.8794 14.65 12 14.65C9.12065 14.65 7.04152 14.1355 5.66667 13.6067C4.98003 13.3426 4.4713 13.0758 4.12809 12.8699C3.95653 12.7669 3.82645 12.6793 3.73627 12.6149C3.69118 12.5826 3.65607 12.5563 3.63074 12.5367C3.61807 12.5269 3.60785 12.5188 3.60005 12.5125L3.59016 12.5045L3.58657 12.5016L3.58512 12.5004C3.58482 12.5001 3.58389 12.4993 4.00001 12L3.58389 12.4993C3.30811 12.2695 3.27085 11.8597 3.50066 11.5839C3.72976 11.309 4.13779 11.2711 4.41354 11.4985C4.41416 11.499 4.41477 11.4995 4.41538 11.5L4.41432 11.4991L4.42592 11.5082C4.43848 11.5179 4.4604 11.5345 4.49187 11.557C4.55482 11.602 4.65599 11.6706 4.79693 11.7551C5.07871 11.9242 5.51999 12.1574 6.13334 12.3933C7.35849 12.8645 9.27937 13.35 12 13.35C14.7207 13.35 16.6415 12.8645 17.8667 12.3933C18.48 12.1574 18.9213 11.9242 19.2031 11.7551C19.344 11.6706 19.4452 11.602 19.5081 11.557C19.5396 11.5345 19.5615 11.5179 19.5741 11.5082L19.5859 11.4989M19.5849 11.4998L19.5859 11.4989L19.5849 11.4998ZM4.41354 11.4985C4.41318 11.4982 4.41329 11.4983 4.41354 11.4985V11.4985Z" fill="white"/>
</svg>
