<svg width="24" height="24" viewBox="0 0 24 24" fill="none" xmlns="http://www.w3.org/2000/svg">
<path fill-rule="evenodd" clip-rule="evenodd" d="M21.4156 5.95976C22.0771 5.48336 23 5.95605 23 6.77121V17.2289C23 18.0441 22.077 18.5168 21.4156 18.0404L17.0277 14.88C16.6964 14.6414 16.5 14.258 16.5 13.8497V10.1503C16.5 9.74198 16.6964 9.35857 17.0277 9.11994L21.4156 5.95976Z" fill="white"/>
<path opacity="0.7" fill-rule="evenodd" clip-rule="evenodd" d="M21.4156 5.95976C22.0771 5.48336 23 5.95605 23 6.77121V17.2289C23 18.0441 22.077 18.5168 21.4156 18.0404L17.0277 14.88C16.6964 14.6414 16.5 14.258 16.5 13.8497V10.1503C16.5 9.74198 16.6964 9.35857 17.0277 9.11994L21.4156 5.95976Z" fill="#FF6045"/>
<path fill-rule="evenodd" clip-rule="evenodd" d="M2 6C2 5.17157 2.67157 4.5 3.5 4.5H16.5C17.3284 4.5 18 5.17157 18 6V18C18 18.8284 17.3284 19.5 16.5 19.5H3.5C2.67157 19.5 2 18.8284 2 18V6Z" fill="#FF6045"/>
<path fill-rule="evenodd" clip-rule="evenodd" d="M7 9.33168C7 8.54051 7.87525 8.06267 8.54076 8.49051L12.6915 11.1589C13.3038 11.5525 13.3038 12.4476 12.6915 12.8413L8.54075 15.5095C7.87524 15.9374 7 15.4595 7 14.6684V9.33168Z" fill="white"/>
</svg>
