<svg width="24" height="24" viewBox="0 0 24 24" fill="none" xmlns="http://www.w3.org/2000/svg">
<path d="M21 7.5C21 9.433 19.433 11 17.5 11C15.567 11 14 9.433 14 7.5C14 5.567 15.567 4 17.5 4C19.433 4 21 5.567 21 7.5Z" fill="#03C160"/>
<path fill-rule="evenodd" clip-rule="evenodd" d="M17.5 4.64998C15.926 4.64998 14.65 5.92596 14.65 7.49998C14.65 9.07399 15.926 10.35 17.5 10.35C19.074 10.35 20.35 9.07399 20.35 7.49998C20.35 5.92596 19.074 4.64998 17.5 4.64998ZM13.35 7.49998C13.35 5.20799 15.208 3.34998 17.5 3.34998C19.792 3.34998 21.65 5.20799 21.65 7.49998C21.65 9.79196 19.792 11.65 17.5 11.65C15.208 11.65 13.35 9.79196 13.35 7.49998Z" fill="#03C160"/>
<path d="M4 6C4 4.89543 4.89543 4 6 4H10C11.1046 4 12 4.89543 12 6V9C12 10.1046 11.1046 11 10 11H4L4 6Z" fill="white"/>
<path fill-rule="evenodd" clip-rule="evenodd" d="M3.25 6C3.25 4.48122 4.48122 3.25 6 3.25H10C11.5188 3.25 12.75 4.48122 12.75 6V9C12.75 10.5188 11.5188 11.75 10 11.75H4C3.58579 11.75 3.25 11.4142 3.25 11V6ZM6 4.75C5.30964 4.75 4.75 5.30964 4.75 6V10.25H10C10.6904 10.25 11.25 9.69036 11.25 9V6C11.25 5.30964 10.6904 4.75 10 4.75H6Z" fill="white"/>
<path opacity="0.7" fill-rule="evenodd" clip-rule="evenodd" d="M3.25 6C3.25 4.48122 4.48122 3.25 6 3.25H10C11.5188 3.25 12.75 4.48122 12.75 6V9C12.75 10.5188 11.5188 11.75 10 11.75H4C3.58579 11.75 3.25 11.4142 3.25 11V6Z" fill="#03C160"/>
<path d="M20 15C20 13.8954 19.1046 13 18 13H6C4.89543 13 4 13.8954 4 15V18C4 19.1046 4.89543 20 6 20H20V15Z" fill="#03C160"/>
<path fill-rule="evenodd" clip-rule="evenodd" d="M20.65 15C20.65 13.5364 19.4636 12.35 18 12.35H6.00002C4.53647 12.35 3.35003 13.5364 3.35003 15V18C3.35003 19.4635 4.53647 20.65 6.00002 20.65H20C20.359 20.65 20.65 20.359 20.65 20V15ZM18 13.65C18.7456 13.65 19.35 14.2544 19.35 15V19.35H6.00002C5.25444 19.35 4.65002 18.7456 4.65002 18V15C4.65002 14.2544 5.25444 13.65 6.00002 13.65H18Z" fill="#03C160"/>
<path fill-rule="evenodd" clip-rule="evenodd" d="M7.99992 5.5C8.27606 5.49996 8.49996 5.72378 8.5 5.99992L8.50016 6.99992C8.50021 7.27606 8.27639 7.49996 8.00024 7.5C7.7241 7.50004 7.50021 7.27622 7.50016 7.00008L7.5 6.00008C7.49996 5.72394 7.72378 5.50004 7.99992 5.5ZM9.99959 5.5C10.2757 5.49996 10.4996 5.72378 10.4997 5.99992L10.4998 6.99992C10.4999 7.27606 10.2761 7.49996 9.99992 7.5C9.72378 7.50004 9.49988 7.27622 9.49984 7.00008L9.49967 6.00008C9.49963 5.72394 9.72345 5.50004 9.99959 5.5Z" fill="white"/>
<path fill-rule="evenodd" clip-rule="evenodd" d="M5.99992 14.5C6.27606 14.5 6.49996 14.7238 6.5 14.9999L6.50016 15.9999C6.50021 16.2761 6.27639 16.5 6.00024 16.5C5.7241 16.5 5.50021 16.2762 5.50016 16.0001L5.5 15.0001C5.49996 14.7239 5.72378 14.5 5.99992 14.5ZM7.99959 14.5C8.27574 14.5 8.49963 14.7238 8.49967 14.9999L8.49984 15.9999C8.49988 16.2761 8.27606 16.5 7.99992 16.5C7.72378 16.5 7.49988 16.2762 7.49984 16.0001L7.49967 15.0001C7.49963 14.7239 7.72345 14.5 7.99959 14.5Z" fill="white"/>
<path d="M17.2071 6.62132C17.3689 6.45956 17.6311 6.45956 17.7929 6.62132L18.3787 7.20711C18.5404 7.36887 18.5404 7.63113 18.3787 7.79289L17.7929 8.37868C17.6311 8.54044 17.3689 8.54044 17.2071 8.37868L16.6213 7.79289C16.4596 7.63113 16.4596 7.36887 16.6213 7.20711L17.2071 6.62132Z" fill="white"/>
</svg>
