<svg width="24" height="24" viewBox="0 0 24 24" fill="none" xmlns="http://www.w3.org/2000/svg">
<path fill-rule="evenodd" clip-rule="evenodd" d="M6.25 5C6.25 3.20507 7.70507 1.75 9.5 1.75C11.2949 1.75 12.75 3.20507 12.75 5V7.5C12.75 7.91421 12.4142 8.25 12 8.25H9.5C7.70507 8.25 6.25 6.79493 6.25 5ZM9.5 3.25C8.5335 3.25 7.75 4.0335 7.75 5C7.75 5.9665 8.5335 6.75 9.5 6.75H11.25V5C11.25 4.0335 10.4665 3.25 9.5 3.25Z" fill="#FA9D3B"/>
<path fill-rule="evenodd" clip-rule="evenodd" d="M11.25 5C11.25 3.20507 12.7051 1.75 14.5 1.75C16.2949 1.75 17.75 3.20507 17.75 5C17.75 6.79493 16.2949 8.25 14.5 8.25H12C11.5858 8.25 11.25 7.91421 11.25 7.5V5ZM14.5 3.25C13.5335 3.25 12.75 4.0335 12.75 5V6.75H14.5C15.4665 6.75 16.25 5.9665 16.25 5C16.25 4.0335 15.4665 3.25 14.5 3.25Z" fill="#FA9D3B"/>
<path opacity="0.7" fill-rule="evenodd" clip-rule="evenodd" d="M3.5 12.5L20.5 12.5V20C20.5 20.8284 19.8284 21.5 19 21.5L5 21.5C4.17157 21.5 3.5 20.8284 3.5 20L3.5 12.5Z" fill="#FA9D3B"/>
<path fill-rule="evenodd" clip-rule="evenodd" d="M12.75 6.75V21.75H11.25V6.75H12.75Z" fill="white"/>
<path fill-rule="evenodd" clip-rule="evenodd" d="M20 6.5C20.8284 6.5 21.5 7.17157 21.5 8V11.5C21.5 12.3284 20.8284 13 20 13L4 13C3.17157 13 2.5 12.3284 2.5 11.5L2.5 8C2.5 7.17157 3.17157 6.5 4 6.5L20 6.5Z" fill="#FA9D3B"/>
<path fill-rule="evenodd" clip-rule="evenodd" d="M12.75 6.75V13.25H11.25V6.75H12.75Z" fill="white"/>
</svg>
