<svg width="24" height="24" viewBox="0 0 24 24" fill="none" xmlns="http://www.w3.org/2000/svg">
<path fill-rule="evenodd" clip-rule="evenodd" d="M17.3284 4H3.5C2.67157 4 2 4.67157 2 5.5V18.5C2 19.3284 2.67157 20 3.5 20H20.5C21.3284 20 22 19.3284 22 18.5V7.25736L21.3774 8.39582C20.998 9.08937 20.002 9.08936 19.6226 8.39582L18.8728 7.02474C18.781 6.85695 18.6431 6.71899 18.4753 6.62722L17.1042 5.87735C16.4106 5.49804 16.4106 4.50196 17.1042 4.12264L17.3284 4Z" fill="#FA9D3B"/>
<path fill-rule="evenodd" clip-rule="evenodd" d="M5.76291 8.28848C6.15587 8.15749 6.58061 8.36986 6.71159 8.76282L8.00008 12.6283L9.28857 8.76282C9.41955 8.36986 9.84429 8.15749 10.2373 8.28848C10.6302 8.41946 10.8426 8.8442 10.7116 9.23716L8.71159 15.2372C8.60951 15.5434 8.3229 15.75 8.00008 15.75C7.67726 15.75 7.39065 15.5434 7.28857 15.2372L5.28857 9.23716C5.15758 8.8442 5.36995 8.41946 5.76291 8.28848ZM12.0001 8.24999C12.4143 8.24999 12.7501 8.58578 12.7501 8.99999V15C12.7501 15.4142 12.4143 15.75 12.0001 15.75C11.5859 15.75 11.2501 15.4142 11.2501 15V8.99999C11.2501 8.58578 11.5859 8.24999 12.0001 8.24999ZM13.7501 8.99999C13.7501 8.58578 14.0859 8.24999 14.5001 8.24999H16.2501C17.6308 8.24999 18.7501 9.36928 18.7501 10.75C18.7501 12.1307 17.6308 13.25 16.2501 13.25H15.2501V15C15.2501 15.4142 14.9143 15.75 14.5001 15.75C14.0859 15.75 13.7501 15.4142 13.7501 15V8.99999ZM15.2501 11.75H16.2501C16.8024 11.75 17.2501 11.3023 17.2501 10.75C17.2501 10.1977 16.8024 9.74999 16.2501 9.74999H15.2501V11.75Z" fill="white"/>
<path d="M19.5372 3.92547L20.2763 2.44722C20.3685 2.26296 20.6314 2.26296 20.7236 2.44722L21.4627 3.92547C21.4869 3.97385 21.5261 4.01308 21.5745 4.03727L23.0527 4.7764C23.237 4.86853 23.237 5.13148 23.0527 5.22361L21.5745 5.96274C21.5261 5.98693 21.4869 6.02616 21.4627 6.07454L20.7236 7.55279C20.6314 7.73705 20.3685 7.73705 20.2763 7.55279L19.5372 6.07454C19.513 6.02616 19.4738 5.98693 19.4254 5.96274L17.9472 5.22361C17.7629 5.13148 17.7629 4.86853 17.9472 4.7764L19.4254 4.03727C19.4738 4.01308 19.513 3.97385 19.5372 3.92547Z" fill="white"/>
<path opacity="0.7" d="M19.5372 3.92547L20.2763 2.44722C20.3685 2.26296 20.6314 2.26296 20.7236 2.44722L21.4627 3.92547C21.4869 3.97385 21.5261 4.01308 21.5745 4.03727L23.0527 4.7764C23.237 4.86853 23.237 5.13148 23.0527 5.22361L21.5745 5.96274C21.5261 5.98693 21.4869 6.02616 21.4627 6.07454L20.7236 7.55279C20.6314 7.73705 20.3685 7.73705 20.2763 7.55279L19.5372 6.07454C19.513 6.02616 19.4738 5.98693 19.4254 5.96274L17.9472 5.22361C17.7629 5.13148 17.7629 4.86853 17.9472 4.7764L19.4254 4.03727C19.4738 4.01308 19.513 3.97385 19.5372 3.92547Z" fill="#FA9D3B"/>
</svg>
