<svg width="24" height="24" viewBox="0 0 24 24" fill="none" xmlns="http://www.w3.org/2000/svg">
<g clip-path="url(#clip0_1196_28570)">
<path d="M5.04011 21.3391C3.61747 21.6484 2.35164 20.3826 2.6609 18.9599L5.15016 7.50928C5.48629 5.96306 7.39985 5.40105 8.51873 6.51993L17.4801 15.4813C18.599 16.6002 18.037 18.5138 16.4908 18.8499L5.04011 21.3391Z" fill="#FF6045"/>
<path fill-rule="evenodd" clip-rule="evenodd" d="M13.0303 2.96967L13.9697 3.909C14.8484 4.78768 14.8484 6.21232 13.9697 7.091L13.0303 8.03032C12.7374 8.32321 12.2626 8.3232 11.9697 8.03031C11.6768 7.73741 11.6768 7.26254 11.9697 6.96965L12.909 6.03033C13.2019 5.73744 13.2019 5.26256 12.909 4.96966L11.9697 4.03033C11.6768 3.73744 11.6768 3.26257 11.9697 2.96967C12.2626 2.67678 12.7374 2.67678 13.0303 2.96967ZM19.8839 6.94454C19.3957 6.45639 18.6043 6.45639 18.1161 6.94454L15.0304 10.0303C14.7375 10.3232 14.2626 10.3232 13.9697 10.0303C13.6768 9.73742 13.6768 9.26255 13.9697 8.96966L17.0555 5.88388C18.1294 4.80994 19.8706 4.80994 20.9446 5.88388L21.5303 6.46967C21.8232 6.76256 21.8232 7.23744 21.5303 7.53033C21.2375 7.82322 20.7626 7.82322 20.4697 7.53033L19.8839 6.94454ZM17.4697 11.591C17.7626 11.2981 18.2375 11.2981 18.5303 11.591L19.4697 12.5303C19.7626 12.8232 20.2375 12.8232 20.5303 12.5303C20.8232 12.2374 20.8232 11.7626 20.5303 11.4697L19.591 10.5303C18.7123 9.65165 17.2877 9.65165 16.409 10.5303L15.9697 10.9697C15.6768 11.2626 15.6768 11.7374 15.9697 12.0303C16.2626 12.3232 16.7375 12.3232 17.0303 12.0303L17.4697 11.591Z" fill="white"/>
<path opacity="0.7" fill-rule="evenodd" clip-rule="evenodd" d="M13.0303 2.96967L13.9697 3.909C14.8484 4.78768 14.8484 6.21232 13.9697 7.091L13.0303 8.03032C12.7374 8.32321 12.2626 8.3232 11.9697 8.03031C11.6768 7.73741 11.6768 7.26254 11.9697 6.96965L12.909 6.03033C13.2019 5.73744 13.2019 5.26256 12.909 4.96966L11.9697 4.03033C11.6768 3.73744 11.6768 3.26257 11.9697 2.96967C12.2626 2.67678 12.7374 2.67678 13.0303 2.96967ZM19.8839 6.94454C19.3957 6.45639 18.6043 6.45639 18.1161 6.94454L15.0304 10.0303C14.7375 10.3232 14.2626 10.3232 13.9697 10.0303C13.6768 9.73742 13.6768 9.26255 13.9697 8.96966L17.0555 5.88388C18.1294 4.80994 19.8706 4.80994 20.9446 5.88388L21.5303 6.46967C21.8232 6.76256 21.8232 7.23744 21.5303 7.53033C21.2375 7.82322 20.7626 7.82322 20.4697 7.53033L19.8839 6.94454ZM17.4697 11.591C17.7626 11.2981 18.2375 11.2981 18.5303 11.591L19.4697 12.5303C19.7626 12.8232 20.2375 12.8232 20.5303 12.5303C20.8232 12.2374 20.8232 11.7626 20.5303 11.4697L19.591 10.5303C18.7123 9.65165 17.2877 9.65165 16.409 10.5303L15.9697 10.9697C15.6768 11.2626 15.6768 11.7374 15.9697 12.0303C16.2626 12.3232 16.7375 12.3232 17.0303 12.0303L17.4697 11.591Z" fill="#FF6045"/>
<path d="M17.1213 4.12132C16.7308 4.51184 16.0976 4.51184 15.7071 4.12132C15.3166 3.7308 15.3166 3.09763 15.7071 2.70711C16.0976 2.31658 16.7308 2.31658 17.1213 2.70711C17.5118 3.09763 17.5118 3.7308 17.1213 4.12132Z" fill="#FF6045"/>
</g>
<defs>
<clipPath id="clip0_1196_28570">
<rect width="24" height="24" fill="white"/>
</clipPath>
</defs>
</svg>
