<svg width="24" height="24" viewBox="0 0 24 24" fill="none" xmlns="http://www.w3.org/2000/svg">
<path fill-rule="evenodd" clip-rule="evenodd" d="M4 5C4 4.44772 4.44772 4 5 4L11.9989 4C11.9992 4 11.9996 4 12 4C12.0004 4 12.0008 4 12.0011 4L19 4C19.5523 4 20 4.44772 20 5C20 5.55229 19.5523 6 19 6L13 6V18H16C16.5523 18 17 18.4477 17 19C17 19.5523 16.5523 20 16 20H12.0014C12.0009 20 12.0005 20 12 20C11.9995 20 11.9991 20 11.9986 20H8C7.44772 20 7 19.5523 7 19C7 18.4477 7.44772 18 8 18H11L11 6L5 6C4.44772 6 4 5.55228 4 5Z" fill="white"/>
<path opacity="0.7" fill-rule="evenodd" clip-rule="evenodd" d="M4 5C4 4.44772 4.44772 4 5 4L11.9989 4C11.9992 4 11.9996 4 12 4C12.0004 4 12.0008 4 12.0011 4L19 4C19.5523 4 20 4.44772 20 5C20 5.55229 19.5523 6 19 6L13 6V18H16C16.5523 18 17 18.4477 17 19C17 19.5523 16.5523 20 16 20H12.0014C12.0009 20 12.0005 20 12 20C11.9995 20 11.9991 20 11.9986 20H8C7.44772 20 7 19.5523 7 19C7 18.4477 7.44772 18 8 18H11L11 6L5 6C4.44772 6 4 5.55228 4 5Z" fill="#FA9D3B"/>
<path d="M4.55276 8.89444C4.73703 8.52591 5.26293 8.52591 5.44719 8.89444L8.63817 15.2764C8.8044 15.6089 8.56265 16 8.19096 16H1.80899C1.4373 16 1.19556 15.6089 1.36178 15.2764L4.55276 8.89444Z" fill="#FA9D3B"/>
<path d="M18.5528 8.89444C18.737 8.52591 19.2629 8.52591 19.4472 8.89444L22.6382 15.2764C22.8044 15.6089 22.5627 16 22.191 16H15.809C15.4373 16 15.1956 15.6089 15.3618 15.2764L18.5528 8.89444Z" fill="#FA9D3B"/>
</svg>
