<svg width="24" height="24" viewBox="0 0 24 24" fill="none" xmlns="http://www.w3.org/2000/svg">
<path d="M19.2311 3C19.5237 3 19.8183 3.06388 20.0901 3.17033C20.5923 3.36409 21.2853 3.81547 21.6629 4.8907C21.9327 5.51455 22.0178 6.26827 21.997 7.23491C21.9763 8.87011 21.5986 10.9567 21.2002 13.1072C20.7603 15.4727 20.3827 17.0419 19.9428 18.2044C19.7188 18.8627 19.3938 19.4801 18.98 20.0333C18.3305 20.8275 17.6375 21 17.154 21C16.8285 21.0014 16.5068 20.9287 16.212 20.7871C15.963 20.6551 15.1434 20.291 13.5291 17.5805C12.9609 16.6461 12.4502 15.6761 11.9998 14.6764C11.6014 15.5813 11.0557 16.6139 10.4706 17.5805C8.83548 20.291 8.03869 20.6785 7.78762 20.7849C7.49236 20.9276 7.16987 21.0011 6.84351 21C6.36212 21 5.67115 20.8296 5.01961 20.0333C4.66479 19.6032 4.3494 19.0007 4.05683 18.2023C3.61693 17.0419 3.23929 15.4727 2.79939 13.1072C2.401 10.9567 2.0441 8.87011 2.0026 7.23491C1.98185 6.26827 2.0856 5.51455 2.29518 4.89283C2.67282 3.81547 3.36379 3.36409 3.868 3.17033C4.13982 3.06388 4.43447 3 4.72704 3C5.98447 3 6.98876 3.98793 7.61955 4.74166C8.37484 5.62313 9.1488 6.80695 10.0307 8.1611L10.6532 9.11071L11.2881 10.0539C11.5371 10.418 11.7695 10.7629 11.9791 11.1079C12.1866 10.7629 12.419 10.418 12.67 10.0539C12.7323 9.96876 12.7945 9.86018 12.8589 9.77288C13.2365 9.21504 13.5934 8.67636 13.9275 8.1611C14.8093 6.80482 15.5833 5.64443 16.3386 4.74166C16.9673 3.98793 17.9737 3 19.2311 3ZM4.76854 5.36551C4.74779 5.36551 4.72704 5.36551 4.70629 5.3868C4.66479 5.40809 4.58179 5.42938 4.47597 5.7083C4.35147 6.05323 4.3079 6.54719 4.3079 7.21362C4.32865 8.67636 4.68554 10.6331 5.06319 12.6984C5.41801 14.6359 5.7334 15.99 6.06747 16.978C6.44512 18.1405 6.76051 18.5259 6.88501 18.6558C7.09458 18.4854 7.6818 17.8382 8.62591 16.2477C9.33763 15.0426 9.98709 13.731 10.3232 12.8282C10.2817 12.7431 10.2195 12.5919 10.0929 12.3769C9.90541 12.0394 9.69534 11.7157 9.4642 11.4081C9.40195 11.3016 9.3397 11.2165 9.27538 11.1292C8.89773 10.5692 8.54084 10.0092 8.18602 9.49396C7.34773 8.20368 6.61319 7.08587 5.94297 6.31085C5.16694 5.40809 4.83079 5.36551 4.76854 5.36551ZM19.2788 5.34421C19.2103 5.34421 18.8742 5.3868 18.0982 6.28956C17.4279 7.06458 16.6955 8.18239 15.8572 9.47267C15.5003 10.0092 15.1434 10.5479 14.7657 11.1079L14.579 11.3847C14.3674 11.687 14.137 12.0106 13.971 12.3108C13.8776 12.4521 13.7997 12.6035 13.7386 12.7622C14.0748 13.6671 14.7242 14.9766 15.438 16.1817C16.3801 17.7743 16.9673 18.4173 17.1769 18.5919C17.3014 18.4854 17.6168 18.0958 17.9944 16.9141C18.3305 15.924 18.6439 14.5486 19.0008 12.6345C19.3784 10.5692 19.7125 8.61036 19.754 7.14975C19.7747 6.48332 19.7125 5.98935 19.588 5.64443C19.4614 5.40809 19.3784 5.3868 19.3348 5.36551C19.3173 5.35562 19.2984 5.34844 19.2788 5.34421Z" fill="#FF982A"/>
</svg>
