<svg width="24" height="24" viewBox="0 0 24 24" fill="none" xmlns="http://www.w3.org/2000/svg">
<path d="M9.03223 7.21777C12.9476 4.80848 17.9643 7.75662 17.7646 12.3496L17.4941 18.5547C17.4101 20.4875 15.8144 22.0087 13.8799 22C11.9239 21.991 10.3321 20.4225 10.2949 18.4668L10.2607 16.6445C10.239 15.4995 9.92947 14.3782 9.36133 13.3838L8.0459 11.0811C7.27844 9.73801 7.71484 8.02848 9.03223 7.21777ZM6.22363 2.44434C7.4519 2.44434 8.44824 3.44067 8.44824 4.66895C8.44814 5.89714 7.45184 6.89258 6.22363 6.89258C4.99559 6.89239 4.0001 5.89702 4 4.66895C4 3.44079 4.99552 2.44453 6.22363 2.44434Z" fill="#208BF1"/>
<path fill-rule="evenodd" clip-rule="evenodd" d="M12.4511 3.3344C12.4511 4.07136 11.8537 4.66879 11.1167 4.66879C10.3798 4.66879 9.78235 4.07136 9.78235 3.3344C9.78235 2.59743 10.3798 2 11.1167 2C11.8537 2 12.4511 2.59743 12.4511 3.3344ZM16.4543 3.77916C16.4543 4.51612 15.8569 5.11355 15.1199 5.11355C14.3829 5.11355 13.7855 4.51612 13.7855 3.77916C13.7855 3.04219 14.3829 2.44476 15.1199 2.44476C15.8569 2.44476 16.4543 3.04219 16.4543 3.77916ZM18.6784 7.78238C19.4153 7.78238 20.0128 7.18495 20.0128 6.44798C20.0128 5.71102 19.4153 5.11359 18.6784 5.11359C17.9414 5.11359 17.344 5.71102 17.344 6.44798C17.344 7.18495 17.9414 7.78238 18.6784 7.78238Z" fill="white"/>
<path opacity="0.7" fill-rule="evenodd" clip-rule="evenodd" d="M12.4511 3.3344C12.4511 4.07136 11.8537 4.66879 11.1167 4.66879C10.3798 4.66879 9.78235 4.07136 9.78235 3.3344C9.78235 2.59743 10.3798 2 11.1167 2C11.8537 2 12.4511 2.59743 12.4511 3.3344ZM16.4543 3.77916C16.4543 4.51612 15.8569 5.11355 15.1199 5.11355C14.3829 5.11355 13.7855 4.51612 13.7855 3.77916C13.7855 3.04219 14.3829 2.44476 15.1199 2.44476C15.8569 2.44476 16.4543 3.04219 16.4543 3.77916ZM18.6784 7.78238C19.4153 7.78238 20.0128 7.18495 20.0128 6.44798C20.0128 5.71102 19.4153 5.11359 18.6784 5.11359C17.9414 5.11359 17.344 5.71102 17.344 6.44798C17.344 7.18495 17.9414 7.78238 18.6784 7.78238Z" fill="#208BF1"/>
</svg>
