<svg width="24" height="24" viewBox="0 0 24 24" fill="none" xmlns="http://www.w3.org/2000/svg">
<path d="M7.06692 4.95593C6.7716 4.24717 7.35214 3.4838 8.11403 3.57904L9.57942 3.76221C9.92445 3.80534 10.2671 3.66615 10.4843 3.39463L11.2191 2.4761C11.6195 1.9757 12.3806 1.9757 12.7809 2.4761L13.5157 3.39463C13.7329 3.66615 14.0756 3.80534 14.4206 3.76221L15.886 3.57904C16.6479 3.4838 17.2284 4.24717 16.9331 4.95593L16.0415 7.09586C15.8532 7.54767 15.4118 7.84198 14.9223 7.84198H9.07773C8.58827 7.84198 8.14682 7.54767 7.95856 7.09586L7.06692 4.95593Z" fill="white"/>
<path opacity="0.7" d="M7.06692 4.9559C6.7716 4.24714 7.35214 3.48377 8.11403 3.57901L9.57942 3.76218C9.92445 3.80531 10.2671 3.66612 10.4843 3.3946L11.2191 2.47607C11.6195 1.97567 12.3806 1.97567 12.7809 2.47607L13.5157 3.3946C13.7329 3.66612 14.0756 3.80531 14.4206 3.76218L15.886 3.57901C16.6479 3.48377 17.2284 4.24714 16.9331 4.9559L16.0415 7.09583C15.8532 7.54764 15.4118 7.84195 14.9223 7.84195H9.07773C8.58827 7.84195 8.14682 7.54764 7.95856 7.09583L7.06692 4.9559Z" fill="#FF6045"/>
<path d="M12 6.29791C7.02944 6.29791 3 10.3273 3 15.2979C3 16.5394 3.25208 17.5774 3.73974 18.4292C4.22875 19.2833 4.93317 19.9126 5.77686 20.3678C7.43704 21.2634 9.66656 21.5 12 21.5C14.3334 21.5 16.563 21.2634 18.2231 20.3678C19.0668 19.9126 19.7712 19.2833 20.2603 18.4292C20.7479 17.5774 21 16.5394 21 15.2979C21 10.3273 16.9706 6.29791 12 6.29791Z" fill="#FF6045"/>
<path fill-rule="evenodd" clip-rule="evenodd" d="M13.8495 6.48814L15.0432 10.0689C15.1743 10.4618 14.9619 10.8866 14.569 11.0176C14.176 11.1486 13.7513 10.9362 13.6202 10.5433L12.2211 6.3464C12.2159 6.33106 12.2114 6.31568 12.2073 6.30026C12.7689 6.31295 13.3178 6.37709 13.8495 6.48814Z" fill="white"/>
</svg>
