<svg width="24" height="24" viewBox="0 0 24 24" fill="none" xmlns="http://www.w3.org/2000/svg">
<path fill-rule="evenodd" clip-rule="evenodd" d="M0.996887 3C0.996887 2.58579 1.33267 2.25 1.74689 2.25H2.6802C3.51439 2.25 4.23261 2.83881 4.39621 3.6568L4.61485 4.75H19.5621C20.7788 4.75 21.6983 5.85184 21.4807 7.04883L19.9171 15.6488C19.7485 16.576 18.9409 17.25 17.9985 17.25H7.00149C6.05908 17.25 5.25153 16.576 5.08294 15.6488L3.26327 5.64064L2.92534 3.95097C2.90197 3.83412 2.79937 3.75 2.6802 3.75H1.74689C1.33267 3.75 0.996887 3.41421 0.996887 3Z" fill="#00C777"/>
<path fill-rule="evenodd" clip-rule="evenodd" d="M7.92499 21.5C8.75342 21.5 9.42499 20.8284 9.42499 20C9.42499 19.1716 8.75342 18.5 7.92499 18.5C7.09656 18.5 6.42499 19.1716 6.42499 20C6.42499 20.8284 7.09656 21.5 7.92499 21.5ZM16.925 21.5C17.7534 21.5 18.425 20.8284 18.425 20C18.425 19.1716 17.7534 18.5 16.925 18.5C16.0966 18.5 15.425 19.1716 15.425 20C15.425 20.8284 16.0966 21.5 16.925 21.5Z" fill="white"/>
<path opacity="0.7" fill-rule="evenodd" clip-rule="evenodd" d="M7.92499 21.5C8.75341 21.5 9.42499 20.8284 9.42499 20C9.42499 19.1716 8.75341 18.5 7.92499 18.5C7.09656 18.5 6.42499 19.1716 6.42499 20C6.42499 20.8284 7.09656 21.5 7.92499 21.5ZM16.925 21.5C17.7534 21.5 18.425 20.8284 18.425 20C18.425 19.1716 17.7534 18.5 16.925 18.5C16.0966 18.5 15.425 19.1716 15.425 20C15.425 20.8284 16.0966 21.5 16.925 21.5Z" fill="#00C777"/>
<path fill-rule="evenodd" clip-rule="evenodd" d="M12.5 7.25C12.9142 7.25 13.25 7.58579 13.25 8V11.5L14.05 10.9C14.3814 10.6515 14.8515 10.7186 15.1 11.05C15.3485 11.3814 15.2814 11.8515 14.95 12.1L12.95 13.6C12.6816 13.8013 12.3121 13.7999 12.0453 13.5964L12.5 13C12.0453 13.5964 12.0453 13.5964 12.0453 13.5964L11.7702 13.3871C11.6033 13.2602 11.3782 13.0894 11.1451 12.9132C10.6644 12.5499 10.1898 12.1946 10.0839 12.124C9.73931 11.8942 9.64622 11.4285 9.87602 11.0839C10.1058 10.7393 10.5715 10.6462 10.9161 10.876C11.0366 10.9564 11.3858 11.2165 11.75 11.4906V8C11.75 7.58579 12.0858 7.25 12.5 7.25Z" fill="white"/>
</svg>
