<svg width="24" height="24" viewBox="0 0 24 24" fill="none" xmlns="http://www.w3.org/2000/svg">
<path d="M2.77319 14.4752C2.77319 14.2266 2.97468 14.0251 3.22323 14.0251H5.92344C6.17199 14.0251 6.37348 14.2266 6.37348 14.4752V20.7757C6.37348 21.0242 6.17199 21.2257 5.92344 21.2257H3.22323C2.97468 21.2257 2.77319 21.0242 2.77319 20.7757V14.4752Z" fill="#FFC300"/>
<path d="M7.72412 11.775C7.72412 11.5264 7.92561 11.325 8.17416 11.325H10.8744C11.1229 11.325 11.3244 11.5264 11.3244 11.775V20.7757C11.3244 21.0242 11.1229 21.2257 10.8744 21.2257H8.17416C7.92561 21.2257 7.72412 21.0242 7.72412 20.7757V11.775Z" fill="white"/>
<path opacity="0.7" d="M7.72412 11.775C7.72412 11.5264 7.92561 11.325 8.17416 11.325H10.8744C11.1229 11.325 11.3244 11.5264 11.3244 11.775V20.7757C11.3244 21.0242 11.1229 21.2257 10.8744 21.2257H8.17416C7.92561 21.2257 7.72412 21.0242 7.72412 20.7757V11.775Z" fill="#FFC300"/>
<path d="M12.6743 13.5751C12.6743 13.3266 12.8758 13.1251 13.1244 13.1251H15.8246C16.0731 13.1251 16.2746 13.3266 16.2746 13.5751V20.7757C16.2746 21.0242 16.0731 21.2257 15.8246 21.2257H13.1244C12.8758 21.2257 12.6743 21.0242 12.6743 20.7757V13.5751Z" fill="#FFC300"/>
<path d="M17.625 10.8749C17.625 10.6264 17.8265 10.4249 18.075 10.4249H20.7752C21.0238 10.4249 21.2253 10.6264 21.2253 10.8749V20.7757C21.2253 21.0242 21.0238 21.2257 20.7752 21.2257H18.075C17.8265 21.2257 17.625 21.0242 17.625 20.7757V10.8749Z" fill="white"/>
<path opacity="0.7" d="M17.625 10.8749C17.625 10.6264 17.8265 10.4249 18.075 10.4249H20.7752C21.0238 10.4249 21.2253 10.6264 21.2253 10.8749V20.7757C21.2253 21.0242 21.0238 21.2257 20.7752 21.2257H18.075C17.8265 21.2257 17.625 21.0242 17.625 20.7757V10.8749Z" fill="#FFC300"/>
<path d="M21.4935 2.77524C21.7661 2.75634 21.9929 2.98312 21.974 3.25571L21.6644 7.71762C21.651 7.91018 21.4171 7.99767 21.2806 7.86118L20.0726 6.65317L15.392 10.9999C14.9485 11.4113 14.2902 11.4752 13.7797 11.1688L13.6801 11.1024L9.52576 8.08188L3.57166 12.4491L2.77283 11.3602L1.974 10.2723L8.72498 5.32114L8.8158 5.26059C9.27842 4.97559 9.87247 4.99458 10.3177 5.31821L14.3685 8.2645L18.1615 4.74204L16.8881 3.4686C16.7516 3.3321 16.839 3.09816 17.0316 3.08481L21.4935 2.77524Z" fill="#FFC300"/>
</svg>
