<svg width="24" height="24" viewBox="0 0 24 24" fill="none" xmlns="http://www.w3.org/2000/svg">
<path d="M3 14.5C3 13.6716 3.67157 13 4.5 13H6V21H4.5C3.67157 21 3 20.3284 3 19.5V14.5Z" fill="white"/>
<path opacity="0.7" d="M3 14.5C3 13.6716 3.67157 13 4.5 13H6V21H4.5C3.67157 21 3 20.3284 3 19.5V14.5Z" fill="#00C777"/>
<path d="M21 4.5C21 3.67157 20.3284 3 19.5 3H7.49998C6.67155 3 5.99998 3.67158 5.99998 4.5L6.00002 19.4682L6.00002 19.5C6.00002 20.3284 5.32844 21 4.5 21H19C20.1046 21 21 20.1046 21 19L21 4.5Z" fill="#00C777"/>
<path fill-rule="evenodd" clip-rule="evenodd" d="M9.25 7C9.25 6.58579 9.58579 6.25 10 6.25H16C16.4142 6.25 16.75 6.58579 16.75 7C16.75 7.41421 16.4142 7.75 16 7.75H10C9.58579 7.75 9.25 7.41421 9.25 7Z" fill="white"/>
<path fill-rule="evenodd" clip-rule="evenodd" d="M9.25 10.5C9.25 10.0858 9.58579 9.75 10 9.75H14C14.4142 9.75 14.75 10.0858 14.75 10.5C14.75 10.9142 14.4142 11.25 14 11.25H10C9.58579 11.25 9.25 10.9142 9.25 10.5Z" fill="white"/>
</svg>
