<svg width="24" height="24" viewBox="0 0 24 24" fill="none" xmlns="http://www.w3.org/2000/svg">
<path d="M12 4C7.02944 4 3 8.02944 3 13C3 17.9706 7.02944 22 12 22C16.9706 22 21 17.9706 21 13C21 8.02944 16.9706 4 12 4Z" fill="#6367F0"/>
<path fill-rule="evenodd" clip-rule="evenodd" d="M13.1798 12.1349C13.0732 12.0549 13.0321 11.9143 13.0789 11.7895L14.109 9.04271C14.2166 8.75572 13.8753 8.51109 13.6381 8.70518L9.29631 12.2575C9.14558 12.3809 9.15048 12.6129 9.30628 12.7297L10.8201 13.8651C10.9267 13.9451 10.9678 14.0857 10.921 14.2105L9.89099 16.9573C9.78337 17.2443 10.1246 17.4889 10.3619 17.2948L14.7036 13.7425C14.8544 13.6191 14.8495 13.3871 14.6937 13.2703L13.1798 12.1349Z" fill="white"/>
<path fill-rule="evenodd" clip-rule="evenodd" d="M2.71414 9.28166C3.729 6.74955 5.74955 4.729 8.28166 3.71414C7.63453 3.26393 6.84809 3 6 3C3.79086 3 2 4.79086 2 7C2 7.84809 2.26393 8.63453 2.71414 9.28166ZM15.7183 3.71414C18.2505 4.729 20.271 6.74955 21.2859 9.28167C21.7361 8.63453 22 7.84809 22 7C22 4.79086 20.2091 3 18 3C17.1519 3 16.3655 3.26393 15.7183 3.71414Z" fill="white"/>
<g opacity="0.7">
<path fill-rule="evenodd" clip-rule="evenodd" d="M2.71414 9.28166C3.729 6.74955 5.74955 4.729 8.28166 3.71414C7.63453 3.26393 6.84809 3 6 3C3.79086 3 2 4.79086 2 7C2 7.84809 2.26393 8.63453 2.71414 9.28166ZM15.7183 3.71414C18.2505 4.729 20.271 6.74955 21.2859 9.28167C21.7361 8.63453 22 7.84809 22 7C22 4.79086 20.2091 3 18 3C17.1519 3 16.3655 3.26393 15.7183 3.71414Z" fill="white"/>
<path fill-rule="evenodd" clip-rule="evenodd" d="M2.71414 9.28166C3.729 6.74955 5.74955 4.729 8.28166 3.71414C7.63453 3.26393 6.84809 3 6 3C3.79086 3 2 4.79086 2 7C2 7.84809 2.26393 8.63453 2.71414 9.28166ZM15.7183 3.71414C18.2505 4.729 20.271 6.74955 21.2859 9.28167C21.7361 8.63453 22 7.84809 22 7C22 4.79086 20.2091 3 18 3C17.1519 3 16.3655 3.26393 15.7183 3.71414Z" fill="#6367F0"/>
</g>
</svg>
